<ttFont>
    <TTGlyph name=".notdef" xMin="60" yMin="-253" xMax="1075" yMax="1021">
      <contour>
        <pt x="803" y="785" on="1"/>
        <pt x="803" y="782" on="0"/>
        <pt x="792" y="762" on="0"/>
        <pt x="777" y="739" on="0"/>
        <pt x="763" y="721" on="0"/>
        <pt x="761" y="721" on="1"/>
        <pt x="759" y="721" on="0"/>
        <pt x="740" y="733" on="0"/>
        <pt x="719" y="748" on="0"/>
        <pt x="702" y="762" on="0"/>
        <pt x="702" y="765" on="1"/>
        <pt x="702" y="768" on="0"/>
        <pt x="714" y="788" on="0"/>
        <pt x="729" y="811" on="0"/>
        <pt x="743" y="829" on="0"/>
        <pt x="745" y="829" on="1"/>
        <pt x="748" y="829" on="0"/>
        <pt x="766" y="816" on="0"/>
        <pt x="787" y="801" on="0"/>
        <pt x="803" y="787" on="0"/>
      </contour>
      <contour>
        <pt x="870" y="670" on="1"/>
        <pt x="870" y="667" on="0"/>
        <pt x="859" y="647" on="0"/>
        <pt x="844" y="624" on="0"/>
        <pt x="830" y="606" on="0"/>
        <pt x="827" y="606" on="1"/>
        <pt x="826" y="606" on="0"/>
        <pt x="809" y="618" on="0"/>
        <pt x="799" y="626" on="1"/>
        <pt x="773" y="646" on="1"/>
        <pt x="771" y="648" on="0"/>
        <pt x="767" y="648" on="1"/>
        <pt x="766" y="648" on="0"/>
        <pt x="762" y="646" on="1"/>
        <pt x="752" y="632" on="0"/>
        <pt x="744" y="621" on="1"/>
        <pt x="737" y="611" on="0"/>
        <pt x="725" y="595" on="0"/>
        <pt x="723" y="595" on="1"/>
        <pt x="721" y="595" on="0"/>
        <pt x="702" y="607" on="0"/>
        <pt x="681" y="623" on="0"/>
        <pt x="664" y="637" on="0"/>
        <pt x="664" y="639" on="1"/>
        <pt x="664" y="642" on="0"/>
        <pt x="676" y="662" on="0"/>
        <pt x="692" y="685" on="0"/>
        <pt x="706" y="703" on="0"/>
        <pt x="707" y="703" on="1"/>
        <pt x="710" y="703" on="0"/>
        <pt x="727" y="691" on="0"/>
        <pt x="737" y="683" on="1"/>
        <pt x="748" y="674" on="0"/>
        <pt x="761" y="663" on="1"/>
        <pt x="766" y="660" on="0"/>
        <pt x="767" y="660" on="1"/>
        <pt x="769" y="660" on="0"/>
        <pt x="773" y="665" on="1"/>
        <pt x="782" y="679" on="0"/>
        <pt x="790" y="690" on="1"/>
        <pt x="797" y="699" on="0"/>
        <pt x="809" y="714" on="0"/>
        <pt x="811" y="714" on="1"/>
        <pt x="813" y="714" on="0"/>
        <pt x="832" y="701" on="0"/>
        <pt x="853" y="686" on="0"/>
        <pt x="870" y="672" on="0"/>
      </contour>
      <contour>
        <pt x="968" y="448" on="1"/>
        <pt x="968" y="429" on="0"/>
        <pt x="958" y="378" on="0"/>
        <pt x="937" y="334" on="0"/>
        <pt x="906" y="303" on="0"/>
        <pt x="884" y="303" on="1"/>
        <pt x="865" y="303" on="0"/>
        <pt x="837" y="316" on="0"/>
        <pt x="815" y="333" on="0"/>
        <pt x="800" y="351" on="0"/>
        <pt x="794" y="356" on="1"/>
        <pt x="786" y="343" on="0"/>
        <pt x="762" y="309" on="0"/>
        <pt x="731" y="279" on="0"/>
        <pt x="694" y="258" on="0"/>
        <pt x="672" y="258" on="1"/>
        <pt x="670" y="258" on="1"/>
        <pt x="670" y="152" on="0"/>
        <pt x="610" y="22" on="0"/>
        <pt x="516" y="-49" on="0"/>
        <pt x="400" y="-73" on="0"/>
        <pt x="344" y="-73" on="1"/>
        <pt x="306" y="-73" on="0"/>
        <pt x="245" y="-47" on="0"/>
        <pt x="203" y="-3" on="0"/>
        <pt x="180" y="56" on="0"/>
        <pt x="180" y="88" on="1"/>
        <pt x="180" y="120" on="0"/>
        <pt x="201" y="183" on="0"/>
        <pt x="227" y="235" on="0"/>
        <pt x="251" y="267" on="0"/>
        <pt x="254" y="267" on="1"/>
        <pt x="263" y="267" on="0"/>
        <pt x="263" y="260" on="1"/>
        <pt x="263" y="256" on="0"/>
        <pt x="249" y="232" on="0"/>
        <pt x="231" y="197" on="0"/>
        <pt x="217" y="151" on="0"/>
        <pt x="217" y="124" on="1"/>
        <pt x="217" y="92" on="0"/>
        <pt x="250" y="48" on="0"/>
        <pt x="297" y="21" on="0"/>
        <pt x="351" y="10" on="0"/>
        <pt x="372" y="10" on="1"/>
        <pt x="400" y="10" on="0"/>
        <pt x="459" y="16" on="0"/>
        <pt x="514" y="27" on="0"/>
        <pt x="561" y="44" on="0"/>
        <pt x="576" y="54" on="1"/>
        <pt x="611" y="77" on="0"/>
        <pt x="635" y="141" on="0"/>
        <pt x="635" y="189" on="1"/>
        <pt x="635" y="220" on="0"/>
        <pt x="624" y="263" on="0"/>
        <pt x="612" y="292" on="0"/>
        <pt x="601" y="310" on="0"/>
        <pt x="601" y="315" on="1"/>
        <pt x="601" y="318" on="0"/>
        <pt x="610" y="341" on="0"/>
        <pt x="622" y="365" on="0"/>
        <pt x="633" y="384" on="0"/>
        <pt x="635" y="384" on="1"/>
        <pt x="652" y="362" on="0"/>
        <pt x="659" y="333" on="1"/>
        <pt x="683" y="333" on="0"/>
        <pt x="733" y="354" on="0"/>
        <pt x="775" y="389" on="0"/>
        <pt x="803" y="435" on="0"/>
        <pt x="806" y="461" on="1"/>
        <pt x="808" y="474" on="0"/>
        <pt x="816" y="474" on="1"/>
        <pt x="817" y="473" on="0"/>
        <pt x="819" y="470" on="1"/>
        <pt x="823" y="464" on="0"/>
        <pt x="824" y="458" on="1"/>
        <pt x="827" y="437" on="0"/>
        <pt x="850" y="411" on="0"/>
        <pt x="878" y="396" on="0"/>
        <pt x="905" y="390" on="0"/>
        <pt x="914" y="390" on="1"/>
        <pt x="918" y="390" on="0"/>
        <pt x="937" y="400" on="0"/>
        <pt x="937" y="405" on="1"/>
        <pt x="937" y="409" on="0"/>
        <pt x="928" y="419" on="0"/>
        <pt x="917" y="429" on="0"/>
        <pt x="908" y="437" on="0"/>
        <pt x="908" y="438" on="1"/>
        <pt x="908" y="440" on="0"/>
        <pt x="914" y="464" on="0"/>
        <pt x="923" y="492" on="0"/>
        <pt x="931" y="515" on="0"/>
        <pt x="934" y="515" on="1"/>
        <pt x="940" y="515" on="0"/>
        <pt x="952" y="500" on="0"/>
        <pt x="962" y="478" on="0"/>
        <pt x="968" y="456" on="0"/>
      </contour>
      <contour>
        <pt x="85" y="996" on="1"/>
        <pt x="85" y="-228" on="1"/>
        <pt x="1050" y="-228" on="1"/>
        <pt x="1050" y="996" on="1"/>
      </contour>
      <contour>
        <pt x="60" y="1021" on="1"/>
        <pt x="1075" y="1021" on="1"/>
        <pt x="1075" y="-253" on="1"/>
        <pt x="60" y="-253" on="1"/>
      </contour>
    </TTGlyph>
    <TTGlyph name="A" xMin="12" yMin="0" xMax="1098" yMax="1044">
      <contour>
        <pt x="694" y="0" on="1"/>
        <pt x="694" y="29" on="1"/>
        <pt x="711" y="29" on="0"/>
        <pt x="747" y="34" on="0"/>
        <pt x="777" y="48" on="0"/>
        <pt x="797" y="73" on="0"/>
        <pt x="797" y="94" on="1"/>
        <pt x="797" y="114" on="0"/>
        <pt x="773" y="186" on="0"/>
        <pt x="743" y="262" on="0"/>
        <pt x="713" y="328" on="0"/>
        <pt x="707" y="342" on="1"/>
        <pt x="311" y="342" on="1"/>
        <pt x="307" y="334" on="0"/>
        <pt x="290" y="297" on="0"/>
        <pt x="268" y="250" on="0"/>
        <pt x="246" y="198" on="0"/>
        <pt x="227" y="148" on="0"/>
        <pt x="215" y="106" on="0"/>
        <pt x="215" y="94" on="1"/>
        <pt x="215" y="74" on="0"/>
        <pt x="241" y="49" on="0"/>
        <pt x="279" y="35" on="0"/>
        <pt x="319" y="30" on="0"/>
        <pt x="334" y="29" on="1"/>
        <pt x="334" y="0" on="1"/>
        <pt x="12" y="0" on="1"/>
        <pt x="12" y="29" on="1"/>
        <pt x="50" y="31" on="0"/>
        <pt x="103" y="64" on="0"/>
        <pt x="140" y="113" on="0"/>
        <pt x="168" y="173" on="0"/>
        <pt x="180" y="203" on="1"/>
        <pt x="541" y="1044" on="1"/>
        <pt x="567" y="1044" on="1"/>
        <pt x="922" y="197" on="1"/>
        <pt x="937" y="162" on="0"/>
        <pt x="964" y="103" on="0"/>
        <pt x="1002" y="58" on="0"/>
        <pt x="1056" y="31" on="0"/>
        <pt x="1098" y="29" on="1"/>
        <pt x="1098" y="0" on="1"/>
      </contour>
      <contour>
        <pt x="512" y="813" on="1"/>
        <pt x="334" y="397" on="1"/>
        <pt x="686" y="397" on="1"/>
      </contour>
    </TTGlyph>
    <TTGlyph name="AE" xMin="-18" yMin="0" xMax="1330" yMax="1022">
      <contour>
        <pt x="1249" y="0" on="1"/>
        <pt x="482" y="0" on="1"/>
        <pt x="482" y="28" on="1"/>
        <pt x="519" y="28" on="1"/>
        <pt x="581" y="28" on="0"/>
        <pt x="612" y="65" on="1"/>
        <pt x="630" y="89" on="0"/>
        <pt x="630" y="181" on="1"/>
        <pt x="630" y="395" on="1"/>
        <pt x="332" y="395" on="1"/>
        <pt x="238" y="220" on="1"/>
        <pt x="217" y="181" on="0"/>
        <pt x="190" y="125" on="0"/>
        <pt x="181" y="86" on="0"/>
        <pt x="192" y="60" on="0"/>
        <pt x="207" y="51" on="1"/>
        <pt x="230" y="35" on="0"/>
        <pt x="303" y="28" on="1"/>
        <pt x="303" y="0" on="1"/>
        <pt x="-18" y="0" on="1"/>
        <pt x="-18" y="28" on="1"/>
        <pt x="15" y="28" on="0"/>
        <pt x="38" y="41" on="1"/>
        <pt x="49" y="48" on="0"/>
        <pt x="74" y="71" on="0"/>
        <pt x="103" y="110" on="0"/>
        <pt x="138" y="167" on="0"/>
        <pt x="160" y="207" on="1"/>
        <pt x="472" y="787" on="1"/>
        <pt x="501" y="841" on="0"/>
        <pt x="530" y="915" on="0"/>
        <pt x="530" y="933" on="1"/>
        <pt x="530" y="946" on="0"/>
        <pt x="519" y="967" on="0"/>
        <pt x="490" y="982" on="0"/>
        <pt x="440" y="993" on="0"/>
        <pt x="400" y="995" on="1"/>
        <pt x="400" y="1022" on="1"/>
        <pt x="1238" y="1022" on="1"/>
        <pt x="1249" y="799" on="1"/>
        <pt x="1224" y="799" on="1"/>
        <pt x="1213" y="852" on="0"/>
        <pt x="1191" y="917" on="0"/>
        <pt x="1151" y="954" on="0"/>
        <pt x="1082" y="967" on="0"/>
        <pt x="1025" y="967" on="1"/>
        <pt x="774" y="967" on="1"/>
        <pt x="774" y="563" on="1"/>
        <pt x="968" y="563" on="1"/>
        <pt x="1012" y="563" on="0"/>
        <pt x="1072" y="578" on="0"/>
        <pt x="1110" y="613" on="0"/>
        <pt x="1129" y="669" on="0"/>
        <pt x="1132" y="710" on="1"/>
        <pt x="1158" y="710" on="1"/>
        <pt x="1158" y="357" on="1"/>
        <pt x="1132" y="357" on="1"/>
        <pt x="1126" y="402" on="0"/>
        <pt x="1110" y="460" on="0"/>
        <pt x="1076" y="493" on="0"/>
        <pt x="1017" y="506" on="0"/>
        <pt x="968" y="506" on="1"/>
        <pt x="774" y="506" on="1"/>
        <pt x="774" y="168" on="1"/>
        <pt x="774" y="138" on="0"/>
        <pt x="775" y="94" on="0"/>
        <pt x="780" y="86" on="1"/>
        <pt x="783" y="81" on="0"/>
        <pt x="793" y="70" on="0"/>
        <pt x="811" y="61" on="0"/>
        <pt x="840" y="55" on="0"/>
        <pt x="862" y="55" on="1"/>
        <pt x="998" y="55" on="1"/>
        <pt x="1062" y="55" on="0"/>
        <pt x="1154" y="78" on="0"/>
        <pt x="1223" y="128" on="0"/>
        <pt x="1277" y="204" on="0"/>
        <pt x="1303" y="258" on="1"/>
        <pt x="1330" y="258" on="1"/>
      </contour>
      <contour>
        <pt x="630" y="967" on="1"/>
        <pt x="360" y="452" on="1"/>
        <pt x="630" y="452" on="1"/>
      </contour>
    </TTGlyph>
    <TTGlyph name="Aacute" xMin="12" yMin="0" xMax="1098" yMax="1381">
      <component glyphName="A" x="0" y="0" flags="0x204"/>
      <component glyphName="acute" x="328" y="330" flags="0x4"/>
    </TTGlyph>
    <TTGlyph name="Acircumflex" xMin="12" yMin="0" xMax="1098" yMax="1364">
      <component glyphName="A" x="0" y="0" flags="0x204"/>
      <component glyphName="circumflex" x="313" y="320" flags="0x4"/>
    </TTGlyph>
    <TTGlyph name="Adieresis" xMin="12" yMin="0" xMax="1098" yMax="1321">
      <component glyphName="A" x="0" y="0" flags="0x204"/>
      <component glyphName="dieresis" x="313" y="320" flags="0x4"/>
    </TTGlyph>
    <TTGlyph name="Agrave" xMin="12" yMin="0" xMax="1098" yMax="1381">
      <component glyphName="A" x="0" y="0" flags="0x204"/>
      <component glyphName="grave" x="261" y="330" flags="0x4"/>
    </TTGlyph>
    <TTGlyph name="Aring" xMin="12" yMin="0" xMax="1098" yMax="1404">
      <component glyphName="A" x="0" y="0" flags="0x204"/>
      <component glyphName="ring" x="411" y="330" flags="0x4"/>
    </TTGlyph>
    <TTGlyph name="Atilde" xMin="12" yMin="0" xMax="1098" yMax="1343">
      <component glyphName="A" x="0" y="0" flags="0x204"/>
      <component glyphName="tilde" x="298" y="330" flags="0x4"/>
    </TTGlyph>
    <TTGlyph name="B" xMin="27" yMin="0" xMax="944" yMax="1022">
      <contour>
        <pt x="944" y="279" on="1"/>
        <pt x="944" y="219" on="0"/>
        <pt x="906" y="130" on="0"/>
        <pt x="840" y="68" on="0"/>
        <pt x="753" y="29" on="0"/>
        <pt x="656" y="8" on="0"/>
        <pt x="555" y="0" on="0"/>
        <pt x="508" y="0" on="1"/>
        <pt x="27" y="0" on="1"/>
        <pt x="27" y="29" on="1"/>
        <pt x="75" y="29" on="0"/>
        <pt x="132" y="42" on="0"/>
        <pt x="162" y="75" on="0"/>
        <pt x="172" y="134" on="0"/>
        <pt x="172" y="180" on="1"/>
        <pt x="172" y="842" on="1"/>
        <pt x="172" y="890" on="0"/>
        <pt x="164" y="949" on="0"/>
        <pt x="134" y="983" on="0"/>
        <pt x="76" y="995" on="0"/>
        <pt x="27" y="995" on="1"/>
        <pt x="27" y="1022" on="1"/>
        <pt x="467" y="1022" on="1"/>
        <pt x="514" y="1022" on="0"/>
        <pt x="614" y="1014" on="0"/>
        <pt x="710" y="993" on="0"/>
        <pt x="796" y="955" on="0"/>
        <pt x="861" y="894" on="0"/>
        <pt x="899" y="807" on="0"/>
        <pt x="899" y="748" on="1"/>
        <pt x="899" y="705" on="0"/>
        <pt x="870" y="633" on="0"/>
        <pt x="820" y="576" on="0"/>
        <pt x="752" y="534" on="0"/>
        <pt x="713" y="522" on="1"/>
        <pt x="764" y="513" on="0"/>
        <pt x="848" y="476" on="0"/>
        <pt x="910" y="417" on="0"/>
        <pt x="944" y="334" on="0"/>
      </contour>
      <contour>
        <pt x="739" y="756" on="1"/>
        <pt x="739" y="816" on="0"/>
        <pt x="688" y="898" on="0"/>
        <pt x="607" y="949" on="0"/>
        <pt x="506" y="971" on="0"/>
        <pt x="455" y="971" on="1"/>
        <pt x="420" y="971" on="0"/>
        <pt x="351" y="964" on="0"/>
        <pt x="317" y="956" on="1"/>
        <pt x="317" y="563" on="1"/>
        <pt x="353" y="555" on="0"/>
        <pt x="426" y="553" on="0"/>
        <pt x="461" y="553" on="1"/>
        <pt x="514" y="553" on="0"/>
        <pt x="614" y="570" on="0"/>
        <pt x="692" y="616" on="0"/>
        <pt x="739" y="695" on="0"/>
      </contour>
      <contour>
        <pt x="770" y="268" on="1"/>
        <pt x="770" y="334" on="0"/>
        <pt x="712" y="423" on="0"/>
        <pt x="621" y="477" on="0"/>
        <pt x="507" y="500" on="0"/>
        <pt x="451" y="500" on="1"/>
        <pt x="419" y="500" on="0"/>
        <pt x="349" y="500" on="0"/>
        <pt x="317" y="494" on="1"/>
        <pt x="317" y="74" on="1"/>
        <pt x="361" y="64" on="0"/>
        <pt x="447" y="53" on="0"/>
        <pt x="492" y="53" on="1"/>
        <pt x="543" y="53" on="0"/>
        <pt x="642" y="76" on="0"/>
        <pt x="721" y="127" on="0"/>
        <pt x="770" y="209" on="0"/>
      </contour>
    </TTGlyph>
    <TTGlyph name="C" xMin="55" yMin="-25" xMax="975" yMax="1044">
      <contour>
        <pt x="975" y="240" on="1"/>
        <pt x="906" y="116" on="0"/>
        <pt x="697" y="-25" on="0"/>
        <pt x="553" y="-25" on="1"/>
        <pt x="439" y="-25" on="0"/>
        <pt x="255" y="55" on="0"/>
        <pt x="125" y="195" on="0"/>
        <pt x="55" y="385" on="0"/>
        <pt x="55" y="496" on="1"/>
        <pt x="55" y="610" on="0"/>
        <pt x="130" y="809" on="0"/>
        <pt x="267" y="958" on="0"/>
        <pt x="458" y="1044" on="0"/>
        <pt x="575" y="1044" on="1"/>
        <pt x="614" y="1044" on="0"/>
        <pt x="681" y="1033" on="0"/>
        <pt x="744" y="1015" on="0"/>
        <pt x="806" y="990" on="0"/>
        <pt x="840" y="975" on="1"/>
        <pt x="855" y="975" on="0"/>
        <pt x="877" y="989" on="0"/>
        <pt x="891" y="1009" on="0"/>
        <pt x="900" y="1034" on="0"/>
        <pt x="903" y="1044" on="1"/>
        <pt x="930" y="1044" on="1"/>
        <pt x="952" y="698" on="1"/>
        <pt x="930" y="698" on="1"/>
        <pt x="911" y="762" on="0"/>
        <pt x="852" y="869" on="0"/>
        <pt x="769" y="947" on="0"/>
        <pt x="659" y="991" on="0"/>
        <pt x="588" y="991" on="1"/>
        <pt x="518" y="991" on="0"/>
        <pt x="411" y="950" on="0"/>
        <pt x="330" y="878" on="0"/>
        <pt x="275" y="782" on="0"/>
        <pt x="242" y="671" on="0"/>
        <pt x="227" y="552" on="0"/>
        <pt x="227" y="494" on="1"/>
        <pt x="227" y="403" on="0"/>
        <pt x="271" y="239" on="0"/>
        <pt x="364" y="115" on="0"/>
        <pt x="509" y="43" on="0"/>
        <pt x="610" y="43" on="1"/>
        <pt x="674" y="43" on="0"/>
        <pt x="771" y="73" on="0"/>
        <pt x="850" y="128" on="0"/>
        <pt x="918" y="207" on="0"/>
        <pt x="952" y="256" on="1"/>
      </contour>
    </TTGlyph>
    <TTGlyph name="Ccedilla" xMin="55" yMin="-353" xMax="975" yMax="1044">
      <component glyphName="C" x="0" y="0" flags="0x204"/>
      <component glyphName="cedilla" x="399" y="-21" flags="0x4"/>
    </TTGlyph>
    <TTGlyph name="D" xMin="27" yMin="0" xMax="1055" yMax="1022">
      <contour>
        <pt x="1055" y="516" on="1"/>
        <pt x="1055" y="386" on="0"/>
        <pt x="969" y="193" on="0"/>
        <pt x="816" y="64" on="0"/>
        <pt x="606" y="0" on="0"/>
        <pt x="483" y="0" on="1"/>
        <pt x="27" y="0" on="1"/>
        <pt x="27" y="29" on="1"/>
        <pt x="75" y="29" on="0"/>
        <pt x="132" y="41" on="0"/>
        <pt x="162" y="74" on="0"/>
        <pt x="172" y="133" on="0"/>
        <pt x="172" y="180" on="1"/>
        <pt x="172" y="842" on="1"/>
        <pt x="172" y="890" on="0"/>
        <pt x="164" y="950" on="0"/>
        <pt x="134" y="983" on="0"/>
        <pt x="76" y="995" on="0"/>
        <pt x="27" y="995" on="1"/>
        <pt x="27" y="1022" on="1"/>
        <pt x="442" y="1022" on="1"/>
        <pt x="571" y="1022" on="0"/>
        <pt x="795" y="974" on="0"/>
        <pt x="960" y="857" on="0"/>
        <pt x="1055" y="663" on="0"/>
      </contour>
      <contour>
        <pt x="885" y="510" on="1"/>
        <pt x="885" y="605" on="0"/>
        <pt x="832" y="770" on="0"/>
        <pt x="727" y="894" on="0"/>
        <pt x="574" y="965" on="0"/>
        <pt x="473" y="965" on="1"/>
        <pt x="433" y="965" on="0"/>
        <pt x="356" y="953" on="0"/>
        <pt x="317" y="942" on="1"/>
        <pt x="317" y="74" on="1"/>
        <pt x="356" y="66" on="0"/>
        <pt x="437" y="51" on="0"/>
        <pt x="477" y="51" on="1"/>
        <pt x="577" y="51" on="0"/>
        <pt x="729" y="124" on="0"/>
        <pt x="832" y="249" on="0"/>
        <pt x="885" y="416" on="0"/>
      </contour>
    </TTGlyph>
    <TTGlyph name="E" xMin="33" yMin="0" xMax="909" yMax="1022">
      <contour>
        <pt x="819" y="0" on="1"/>
        <pt x="33" y="0" on="1"/>
        <pt x="33" y="29" on="1"/>
        <pt x="81" y="29" on="0"/>
        <pt x="138" y="41" on="0"/>
        <pt x="168" y="74" on="0"/>
        <pt x="178" y="133" on="0"/>
        <pt x="178" y="180" on="1"/>
        <pt x="178" y="846" on="1"/>
        <pt x="178" y="894" on="0"/>
        <pt x="170" y="952" on="0"/>
        <pt x="140" y="984" on="0"/>
        <pt x="82" y="995" on="0"/>
        <pt x="33" y="995" on="1"/>
        <pt x="33" y="1022" on="1"/>
        <pt x="819" y="1022" on="1"/>
        <pt x="831" y="799" on="1"/>
        <pt x="803" y="799" on="1"/>
        <pt x="790" y="848" on="0"/>
        <pt x="767" y="913" on="0"/>
        <pt x="728" y="951" on="0"/>
        <pt x="661" y="967" on="0"/>
        <pt x="604" y="967" on="1"/>
        <pt x="322" y="967" on="1"/>
        <pt x="322" y="563" on="1"/>
        <pt x="547" y="563" on="1"/>
        <pt x="594" y="563" on="0"/>
        <pt x="651" y="576" on="0"/>
        <pt x="686" y="609" on="0"/>
        <pt x="703" y="666" on="0"/>
        <pt x="709" y="711" on="1"/>
        <pt x="737" y="711" on="1"/>
        <pt x="737" y="354" on="1"/>
        <pt x="709" y="354" on="1"/>
        <pt x="703" y="399" on="0"/>
        <pt x="686" y="457" on="0"/>
        <pt x="652" y="492" on="0"/>
        <pt x="595" y="506" on="0"/>
        <pt x="547" y="506" on="1"/>
        <pt x="322" y="506" on="1"/>
        <pt x="322" y="170" on="1"/>
        <pt x="322" y="142" on="0"/>
        <pt x="324" y="99" on="0"/>
        <pt x="339" y="70" on="0"/>
        <pt x="375" y="55" on="0"/>
        <pt x="408" y="55" on="1"/>
        <pt x="580" y="55" on="1"/>
        <pt x="647" y="55" on="0"/>
        <pt x="733" y="77" on="0"/>
        <pt x="796" y="125" on="0"/>
        <pt x="846" y="202" on="0"/>
        <pt x="877" y="256" on="1"/>
        <pt x="909" y="256" on="1"/>
      </contour>
    </TTGlyph>
    <TTGlyph name="Eacute" xMin="33" yMin="0" xMax="909" yMax="1381">
      <component glyphName="E" x="0" y="0" flags="0x204"/>
      <component glyphName="acute" x="244" y="330" flags="0x4"/>
    </TTGlyph>
    <TTGlyph name="Ecircumflex" xMin="33" yMin="0" xMax="909" yMax="1364">
      <component glyphName="E" x="0" y="0" flags="0x204"/>
      <component glyphName="circumflex" x="229" y="320" flags="0x4"/>
    </TTGlyph>
    <TTGlyph name="Edieresis" xMin="33" yMin="0" xMax="909" yMax="1321">
      <component glyphName="E" x="0" y="0" flags="0x204"/>
      <component glyphName="dieresis" x="229" y="320" flags="0x4"/>
    </TTGlyph>
    <TTGlyph name="Egrave" xMin="33" yMin="0" xMax="909" yMax="1381">
      <component glyphName="E" x="0" y="0" flags="0x204"/>
      <component glyphName="grave" x="177" y="330" flags="0x4"/>
    </TTGlyph>
    <TTGlyph name="Eth" xMin="27" yMin="0" xMax="1055" yMax="1022">
      <contour>
        <pt x="1055" y="519" on="1"/>
        <pt x="1055" y="411" on="0"/>
        <pt x="991" y="222" on="0"/>
        <pt x="853" y="81" on="0"/>
        <pt x="637" y="0" on="0"/>
        <pt x="485" y="0" on="1"/>
        <pt x="27" y="0" on="1"/>
        <pt x="27" y="28" on="1"/>
        <pt x="65" y="28" on="1"/>
        <pt x="132" y="28" on="0"/>
        <pt x="157" y="70" on="1"/>
        <pt x="173" y="93" on="0"/>
        <pt x="173" y="181" on="1"/>
        <pt x="173" y="511" on="1"/>
        <pt x="27" y="511" on="1"/>
        <pt x="27" y="597" on="1"/>
        <pt x="173" y="597" on="1"/>
        <pt x="173" y="842" on="1"/>
        <pt x="173" y="935" on="0"/>
        <pt x="153" y="963" on="1"/>
        <pt x="121" y="995" on="0"/>
        <pt x="65" y="995" on="1"/>
        <pt x="27" y="995" on="1"/>
        <pt x="27" y="1022" on="1"/>
        <pt x="442" y="1022" on="1"/>
        <pt x="681" y="1022" on="0"/>
        <pt x="795" y="968" on="1"/>
        <pt x="852" y="941" on="0"/>
        <pt x="948" y="855" on="0"/>
        <pt x="1017" y="740" on="0"/>
        <pt x="1055" y="599" on="0"/>
      </contour>
      <contour>
        <pt x="886" y="511" on="1"/>
        <pt x="886" y="617" on="0"/>
        <pt x="825" y="786" on="0"/>
        <pt x="716" y="904" on="0"/>
        <pt x="564" y="967" on="0"/>
        <pt x="472" y="967" on="1"/>
        <pt x="439" y="967" on="0"/>
        <pt x="363" y="957" on="0"/>
        <pt x="318" y="945" on="1"/>
        <pt x="318" y="597" on="1"/>
        <pt x="617" y="597" on="1"/>
        <pt x="617" y="511" on="1"/>
        <pt x="318" y="511" on="1"/>
        <pt x="318" y="75" on="1"/>
        <pt x="366" y="65" on="0"/>
        <pt x="446" y="54" on="0"/>
        <pt x="478" y="54" on="1"/>
        <pt x="566" y="53" on="0"/>
        <pt x="715" y="116" on="0"/>
        <pt x="824" y="235" on="0"/>
        <pt x="886" y="405" on="0"/>
      </contour>
    </TTGlyph>
    <TTGlyph name="Euro" xMin="0" yMin="-25" xMax="895" yMax="1044">
      <contour>
        <pt x="895" y="199" on="1"/>
        <pt x="864" y="144" on="0"/>
        <pt x="800" y="60" on="0"/>
        <pt x="722" y="3" on="0"/>
        <pt x="621" y="-25" on="0"/>
        <pt x="553" y="-25" on="1"/>
        <pt x="469" y="-25" on="0"/>
        <pt x="323" y="35" on="0"/>
        <pt x="209" y="142" on="0"/>
        <pt x="131" y="291" on="0"/>
        <pt x="115" y="379" on="1"/>
        <pt x="2" y="379" on="1"/>
        <pt x="33" y="453" on="1"/>
        <pt x="106" y="453" on="1"/>
        <pt x="104" y="464" on="0"/>
        <pt x="104" y="485" on="0"/>
        <pt x="104" y="496" on="1"/>
        <pt x="104" y="510" on="0"/>
        <pt x="106" y="537" on="0"/>
        <pt x="106" y="551" on="1"/>
        <pt x="0" y="551" on="1"/>
        <pt x="31" y="625" on="1"/>
        <pt x="117" y="625" on="1"/>
        <pt x="134" y="715" on="0"/>
        <pt x="213" y="869" on="0"/>
        <pt x="332" y="981" on="0"/>
        <pt x="485" y="1044" on="0"/>
        <pt x="575" y="1044" on="1"/>
        <pt x="638" y="1044" on="0"/>
        <pt x="728" y="1003" on="0"/>
        <pt x="760" y="975" on="1"/>
        <pt x="775" y="974" on="0"/>
        <pt x="798" y="988" on="0"/>
        <pt x="814" y="1009" on="0"/>
        <pt x="825" y="1034" on="0"/>
        <pt x="827" y="1044" on="1"/>
        <pt x="854" y="1044" on="1"/>
        <pt x="872" y="748" on="1"/>
        <pt x="850" y="748" on="1"/>
        <pt x="835" y="797" on="0"/>
        <pt x="784" y="885" on="0"/>
        <pt x="717" y="952" on="0"/>
        <pt x="635" y="991" on="0"/>
        <pt x="588" y="991" on="1"/>
        <pt x="510" y="991" on="0"/>
        <pt x="401" y="931" on="0"/>
        <pt x="330" y="829" on="0"/>
        <pt x="293" y="697" on="0"/>
        <pt x="285" y="625" on="1"/>
        <pt x="766" y="625" on="1"/>
        <pt x="735" y="551" on="1"/>
        <pt x="279" y="551" on="1"/>
        <pt x="279" y="535" on="0"/>
        <pt x="276" y="508" on="0"/>
        <pt x="276" y="494" on="1"/>
        <pt x="276" y="484" on="0"/>
        <pt x="277" y="464" on="0"/>
        <pt x="279" y="453" on="1"/>
        <pt x="709" y="453" on="1"/>
        <pt x="678" y="379" on="1"/>
        <pt x="285" y="379" on="1"/>
        <pt x="295" y="307" on="0"/>
        <pt x="342" y="184" on="0"/>
        <pt x="421" y="94" on="0"/>
        <pt x="534" y="43" on="0"/>
        <pt x="610" y="43" on="1"/>
        <pt x="696" y="43" on="0"/>
        <pt x="819" y="137" on="0"/>
        <pt x="872" y="215" on="1"/>
      </contour>
    </TTGlyph>
    <TTGlyph name="F" xMin="25" yMin="0" xMax="797" yMax="1022">
      <contour>
        <pt x="770" y="799" on="1"/>
        <pt x="755" y="849" on="0"/>
        <pt x="719" y="914" on="0"/>
        <pt x="667" y="952" on="0"/>
        <pt x="594" y="967" on="0"/>
        <pt x="543" y="967" on="1"/>
        <pt x="315" y="967" on="1"/>
        <pt x="315" y="565" on="1"/>
        <pt x="502" y="565" on="1"/>
        <pt x="540" y="565" on="0"/>
        <pt x="587" y="583" on="0"/>
        <pt x="616" y="619" on="0"/>
        <pt x="631" y="671" on="0"/>
        <pt x="635" y="705" on="1"/>
        <pt x="664" y="705" on="1"/>
        <pt x="664" y="358" on="1"/>
        <pt x="635" y="358" on="1"/>
        <pt x="635" y="394" on="0"/>
        <pt x="622" y="448" on="0"/>
        <pt x="591" y="484" on="0"/>
        <pt x="540" y="502" on="0"/>
        <pt x="502" y="502" on="1"/>
        <pt x="315" y="502" on="1"/>
        <pt x="315" y="180" on="1"/>
        <pt x="315" y="133" on="0"/>
        <pt x="324" y="74" on="0"/>
        <pt x="355" y="41" on="0"/>
        <pt x="414" y="29" on="0"/>
        <pt x="463" y="29" on="1"/>
        <pt x="463" y="0" on="1"/>
        <pt x="25" y="0" on="1"/>
        <pt x="25" y="29" on="1"/>
        <pt x="74" y="29" on="0"/>
        <pt x="132" y="42" on="0"/>
        <pt x="162" y="75" on="0"/>
        <pt x="170" y="134" on="0"/>
        <pt x="170" y="180" on="1"/>
        <pt x="170" y="842" on="1"/>
        <pt x="170" y="888" on="0"/>
        <pt x="161" y="947" on="0"/>
        <pt x="131" y="982" on="0"/>
        <pt x="73" y="995" on="0"/>
        <pt x="25" y="995" on="1"/>
        <pt x="25" y="1022" on="1"/>
        <pt x="786" y="1022" on="1"/>
        <pt x="797" y="799" on="1"/>
      </contour>
    </TTGlyph>
    <TTGlyph name="G" xMin="53" yMin="-25" xMax="1094" yMax="1044">
      <contour>
        <pt x="1094" y="530" on="1"/>
        <pt x="1052" y="530" on="0"/>
        <pt x="1006" y="510" on="0"/>
        <pt x="984" y="472" on="0"/>
        <pt x="979" y="416" on="0"/>
        <pt x="979" y="381" on="1"/>
        <pt x="979" y="68" on="1"/>
        <pt x="897" y="20" on="0"/>
        <pt x="714" y="-25" on="0"/>
        <pt x="618" y="-25" on="1"/>
        <pt x="501" y="-25" on="0"/>
        <pt x="295" y="45" on="0"/>
        <pt x="142" y="179" on="0"/>
        <pt x="53" y="372" on="0"/>
        <pt x="53" y="496" on="1"/>
        <pt x="53" y="610" on="0"/>
        <pt x="136" y="810" on="0"/>
        <pt x="282" y="959" on="0"/>
        <pt x="481" y="1044" on="0"/>
        <pt x="596" y="1044" on="1"/>
        <pt x="646" y="1044" on="0"/>
        <pt x="743" y="1029" on="0"/>
        <pt x="791" y="1012" on="1"/>
        <pt x="793" y="1012" on="0"/>
        <pt x="821" y="1002" on="0"/>
        <pt x="854" y="991" on="0"/>
        <pt x="882" y="981" on="0"/>
        <pt x="883" y="981" on="1"/>
        <pt x="894" y="981" on="0"/>
        <pt x="908" y="996" on="0"/>
        <pt x="917" y="1016" on="0"/>
        <pt x="921" y="1037" on="0"/>
        <pt x="922" y="1044" on="1"/>
        <pt x="948" y="1044" on="1"/>
        <pt x="975" y="723" on="1"/>
        <pt x="948" y="723" on="1"/>
        <pt x="928" y="785" on="0"/>
        <pt x="868" y="884" on="0"/>
        <pt x="786" y="955" on="0"/>
        <pt x="678" y="993" on="0"/>
        <pt x="610" y="993" on="1"/>
        <pt x="510" y="993" on="0"/>
        <pt x="366" y="915" on="0"/>
        <pt x="272" y="785" on="0"/>
        <pt x="227" y="617" on="0"/>
        <pt x="227" y="528" on="1"/>
        <pt x="227" y="439" on="0"/>
        <pt x="274" y="261" on="0"/>
        <pt x="371" y="118" on="0"/>
        <pt x="519" y="29" on="0"/>
        <pt x="621" y="29" on="1"/>
        <pt x="676" y="29" on="0"/>
        <pt x="783" y="56" on="0"/>
        <pt x="831" y="84" on="1"/>
        <pt x="831" y="381" on="1"/>
        <pt x="831" y="423" on="0"/>
        <pt x="823" y="479" on="0"/>
        <pt x="795" y="513" on="0"/>
        <pt x="743" y="529" on="0"/>
        <pt x="698" y="530" on="1"/>
        <pt x="698" y="557" on="1"/>
        <pt x="1094" y="557" on="1"/>
      </contour>
    </TTGlyph>
    <TTGlyph name="H" xMin="27" yMin="0" xMax="1083" yMax="1022">
      <contour>
        <pt x="645" y="0" on="1"/>
        <pt x="645" y="29" on="1"/>
        <pt x="693" y="29" on="0"/>
        <pt x="752" y="42" on="0"/>
        <pt x="783" y="75" on="0"/>
        <pt x="793" y="134" on="0"/>
        <pt x="793" y="180" on="1"/>
        <pt x="793" y="494" on="1"/>
        <pt x="315" y="494" on="1"/>
        <pt x="315" y="180" on="1"/>
        <pt x="315" y="133" on="0"/>
        <pt x="325" y="74" on="0"/>
        <pt x="357" y="41" on="0"/>
        <pt x="416" y="29" on="0"/>
        <pt x="465" y="29" on="1"/>
        <pt x="465" y="0" on="1"/>
        <pt x="27" y="0" on="1"/>
        <pt x="27" y="29" on="1"/>
        <pt x="76" y="29" on="0"/>
        <pt x="134" y="41" on="0"/>
        <pt x="164" y="74" on="0"/>
        <pt x="172" y="133" on="0"/>
        <pt x="172" y="180" on="1"/>
        <pt x="172" y="842" on="1"/>
        <pt x="172" y="889" on="0"/>
        <pt x="163" y="948" on="0"/>
        <pt x="133" y="982" on="0"/>
        <pt x="75" y="995" on="0"/>
        <pt x="27" y="995" on="1"/>
        <pt x="27" y="1022" on="1"/>
        <pt x="465" y="1022" on="1"/>
        <pt x="465" y="995" on="1"/>
        <pt x="417" y="995" on="0"/>
        <pt x="359" y="982" on="0"/>
        <pt x="326" y="948" on="0"/>
        <pt x="315" y="889" on="0"/>
        <pt x="315" y="842" on="1"/>
        <pt x="315" y="549" on="1"/>
        <pt x="793" y="549" on="1"/>
        <pt x="793" y="842" on="1"/>
        <pt x="793" y="889" on="0"/>
        <pt x="783" y="948" on="0"/>
        <pt x="752" y="982" on="0"/>
        <pt x="693" y="995" on="0"/>
        <pt x="645" y="995" on="1"/>
        <pt x="645" y="1022" on="1"/>
        <pt x="1083" y="1022" on="1"/>
        <pt x="1083" y="995" on="1"/>
        <pt x="1038" y="995" on="0"/>
        <pt x="981" y="984" on="0"/>
        <pt x="948" y="954" on="0"/>
        <pt x="936" y="899" on="0"/>
        <pt x="936" y="854" on="1"/>
        <pt x="938" y="170" on="1"/>
        <pt x="938" y="124" on="0"/>
        <pt x="950" y="68" on="0"/>
        <pt x="981" y="38" on="0"/>
        <pt x="1038" y="29" on="0"/>
        <pt x="1083" y="29" on="1"/>
        <pt x="1083" y="0" on="1"/>
      </contour>
    </TTGlyph>
    <TTGlyph name="I" xMin="39" yMin="0" xMax="477" yMax="1022">
      <contour>
        <pt x="39" y="0" on="1"/>
        <pt x="39" y="29" on="1"/>
        <pt x="88" y="29" on="0"/>
        <pt x="146" y="42" on="0"/>
        <pt x="176" y="75" on="0"/>
        <pt x="184" y="134" on="0"/>
        <pt x="184" y="180" on="1"/>
        <pt x="184" y="842" on="1"/>
        <pt x="184" y="889" on="0"/>
        <pt x="176" y="948" on="0"/>
        <pt x="146" y="982" on="0"/>
        <pt x="88" y="995" on="0"/>
        <pt x="39" y="995" on="1"/>
        <pt x="39" y="1022" on="1"/>
        <pt x="477" y="1022" on="1"/>
        <pt x="477" y="995" on="1"/>
        <pt x="429" y="995" on="0"/>
        <pt x="371" y="982" on="0"/>
        <pt x="340" y="948" on="0"/>
        <pt x="330" y="889" on="0"/>
        <pt x="330" y="842" on="1"/>
        <pt x="330" y="180" on="1"/>
        <pt x="330" y="134" on="0"/>
        <pt x="339" y="75" on="0"/>
        <pt x="369" y="42" on="0"/>
        <pt x="427" y="29" on="0"/>
        <pt x="477" y="29" on="1"/>
        <pt x="477" y="0" on="1"/>
      </contour>
    </TTGlyph>
    <TTGlyph name="Iacute" xMin="39" yMin="0" xMax="477" yMax="1381">
      <component glyphName="I" x="0" y="0" flags="0x204"/>
      <component glyphName="acute" x="31" y="330" flags="0x4"/>
    </TTGlyph>
    <TTGlyph name="Icircumflex" xMin="16" yMin="0" xMax="499" yMax="1364">
      <component glyphName="I" x="0" y="0" flags="0x204"/>
      <component glyphName="circumflex" x="16" y="320" flags="0x4"/>
    </TTGlyph>
    <TTGlyph name="Idieresis" xMin="16" yMin="0" xMax="477" yMax="1321">
      <component glyphName="I" x="0" y="0" flags="0x204"/>
      <component glyphName="dieresis" x="16" y="320" flags="0x4"/>
    </TTGlyph>
    <TTGlyph name="Igrave" xMin="39" yMin="0" xMax="477" yMax="1381">
      <component glyphName="I" x="0" y="0" flags="0x204"/>
      <component glyphName="grave" x="-35" y="330" flags="0x4"/>
    </TTGlyph>
    <TTGlyph name="J" xMin="33" yMin="-25" xMax="592" yMax="1022">
      <contour>
        <pt x="592" y="995" on="1"/>
        <pt x="543" y="995" on="0"/>
        <pt x="485" y="982" on="0"/>
        <pt x="455" y="948" on="0"/>
        <pt x="446" y="889" on="0"/>
        <pt x="446" y="842" on="1"/>
        <pt x="446" y="342" on="1"/>
        <pt x="446" y="278" on="0"/>
        <pt x="422" y="148" on="0"/>
        <pt x="362" y="42" on="0"/>
        <pt x="261" y="-25" on="0"/>
        <pt x="184" y="-25" on="1"/>
        <pt x="158" y="-25" on="0"/>
        <pt x="104" y="-12" on="0"/>
        <pt x="61" y="17" on="0"/>
        <pt x="33" y="61" on="0"/>
        <pt x="33" y="92" on="1"/>
        <pt x="33" y="170" on="0"/>
        <pt x="109" y="170" on="1"/>
        <pt x="130" y="170" on="0"/>
        <pt x="159" y="149" on="0"/>
        <pt x="181" y="119" on="0"/>
        <pt x="197" y="82" on="0"/>
        <pt x="214" y="52" on="0"/>
        <pt x="233" y="31" on="0"/>
        <pt x="246" y="31" on="1"/>
        <pt x="266" y="31" on="0"/>
        <pt x="288" y="56" on="0"/>
        <pt x="299" y="91" on="0"/>
        <pt x="301" y="129" on="0"/>
        <pt x="301" y="143" on="1"/>
        <pt x="301" y="842" on="1"/>
        <pt x="301" y="888" on="0"/>
        <pt x="292" y="947" on="0"/>
        <pt x="262" y="982" on="0"/>
        <pt x="204" y="995" on="0"/>
        <pt x="154" y="995" on="1"/>
        <pt x="154" y="1022" on="1"/>
        <pt x="592" y="1022" on="1"/>
      </contour>
    </TTGlyph>
    <TTGlyph name="K" xMin="27" yMin="0" xMax="1128" yMax="1022">
      <contour>
        <pt x="641" y="0" on="1"/>
        <pt x="641" y="29" on="1"/>
        <pt x="654" y="29" on="0"/>
        <pt x="684" y="33" on="0"/>
        <pt x="709" y="44" on="0"/>
        <pt x="725" y="64" on="0"/>
        <pt x="725" y="80" on="1"/>
        <pt x="725" y="88" on="0"/>
        <pt x="712" y="111" on="0"/>
        <pt x="693" y="134" on="0"/>
        <pt x="674" y="154" on="0"/>
        <pt x="668" y="160" on="1"/>
        <pt x="360" y="467" on="1"/>
        <pt x="315" y="422" on="1"/>
        <pt x="315" y="180" on="1"/>
        <pt x="315" y="133" on="0"/>
        <pt x="324" y="74" on="0"/>
        <pt x="355" y="41" on="0"/>
        <pt x="413" y="29" on="0"/>
        <pt x="461" y="29" on="1"/>
        <pt x="461" y="0" on="1"/>
        <pt x="27" y="0" on="1"/>
        <pt x="27" y="29" on="1"/>
        <pt x="76" y="29" on="0"/>
        <pt x="133" y="41" on="0"/>
        <pt x="162" y="74" on="0"/>
        <pt x="170" y="133" on="0"/>
        <pt x="170" y="180" on="1"/>
        <pt x="170" y="842" on="1"/>
        <pt x="170" y="888" on="0"/>
        <pt x="162" y="947" on="0"/>
        <pt x="133" y="982" on="0"/>
        <pt x="76" y="995" on="0"/>
        <pt x="27" y="995" on="1"/>
        <pt x="27" y="1022" on="1"/>
        <pt x="461" y="1022" on="1"/>
        <pt x="461" y="995" on="1"/>
        <pt x="414" y="995" on="0"/>
        <pt x="357" y="982" on="0"/>
        <pt x="325" y="948" on="0"/>
        <pt x="315" y="889" on="0"/>
        <pt x="315" y="842" on="1"/>
        <pt x="315" y="520" on="1"/>
        <pt x="334" y="536" on="0"/>
        <pt x="407" y="601" on="0"/>
        <pt x="495" y="683" on="0"/>
        <pt x="587" y="774" on="0"/>
        <pt x="663" y="860" on="0"/>
        <pt x="711" y="931" on="0"/>
        <pt x="711" y="952" on="1"/>
        <pt x="711" y="970" on="0"/>
        <pt x="691" y="987" on="0"/>
        <pt x="662" y="995" on="0"/>
        <pt x="630" y="995" on="0"/>
        <pt x="618" y="995" on="1"/>
        <pt x="618" y="1022" on="1"/>
        <pt x="995" y="1022" on="1"/>
        <pt x="995" y="995" on="1"/>
        <pt x="940" y="995" on="0"/>
        <pt x="831" y="934" on="0"/>
        <pt x="733" y="847" on="0"/>
        <pt x="649" y="755" on="0"/>
        <pt x="618" y="723" on="1"/>
        <pt x="461" y="567" on="1"/>
        <pt x="840" y="193" on="1"/>
        <pt x="872" y="160" on="0"/>
        <pt x="935" y="103" on="0"/>
        <pt x="1003" y="61" on="0"/>
        <pt x="1080" y="34" on="0"/>
        <pt x="1128" y="29" on="1"/>
        <pt x="1128" y="0" on="1"/>
      </contour>
    </TTGlyph>
    <TTGlyph name="L" xMin="29" yMin="0" xMax="911" yMax="1022">
      <contour>
        <pt x="823" y="0" on="1"/>
        <pt x="29" y="0" on="1"/>
        <pt x="29" y="29" on="1"/>
        <pt x="65" y="29" on="0"/>
        <pt x="121" y="38" on="0"/>
        <pt x="158" y="65" on="0"/>
        <pt x="178" y="115" on="0"/>
        <pt x="178" y="156" on="1"/>
        <pt x="178" y="866" on="1"/>
        <pt x="178" y="906" on="0"/>
        <pt x="158" y="956" on="0"/>
        <pt x="121" y="983" on="0"/>
        <pt x="65" y="993" on="0"/>
        <pt x="29" y="993" on="1"/>
        <pt x="29" y="1022" on="1"/>
        <pt x="473" y="1022" on="1"/>
        <pt x="473" y="993" on="1"/>
        <pt x="436" y="993" on="0"/>
        <pt x="380" y="983" on="0"/>
        <pt x="342" y="956" on="0"/>
        <pt x="322" y="906" on="0"/>
        <pt x="322" y="866" on="1"/>
        <pt x="322" y="193" on="1"/>
        <pt x="322" y="155" on="0"/>
        <pt x="334" y="106" on="0"/>
        <pt x="363" y="77" on="0"/>
        <pt x="413" y="66" on="0"/>
        <pt x="451" y="66" on="1"/>
        <pt x="553" y="66" on="1"/>
        <pt x="627" y="66" on="0"/>
        <pt x="727" y="83" on="0"/>
        <pt x="800" y="130" on="0"/>
        <pt x="856" y="215" on="0"/>
        <pt x="885" y="283" on="1"/>
        <pt x="911" y="279" on="1"/>
      </contour>
    </TTGlyph>
    <TTGlyph name="M" xMin="27" yMin="0" xMax="1341" yMax="1022">
      <contour>
        <pt x="905" y="0" on="1"/>
        <pt x="905" y="29" on="1"/>
        <pt x="953" y="29" on="0"/>
        <pt x="1010" y="41" on="0"/>
        <pt x="1041" y="74" on="0"/>
        <pt x="1051" y="132" on="0"/>
        <pt x="1051" y="178" on="1"/>
        <pt x="1051" y="860" on="1"/>
        <pt x="655" y="0" on="1"/>
        <pt x="631" y="0" on="1"/>
        <pt x="236" y="860" on="1"/>
        <pt x="236" y="178" on="1"/>
        <pt x="236" y="131" on="0"/>
        <pt x="246" y="73" on="0"/>
        <pt x="276" y="40" on="0"/>
        <pt x="333" y="29" on="0"/>
        <pt x="381" y="29" on="1"/>
        <pt x="381" y="0" on="1"/>
        <pt x="27" y="0" on="1"/>
        <pt x="27" y="29" on="1"/>
        <pt x="75" y="29" on="0"/>
        <pt x="131" y="41" on="0"/>
        <pt x="161" y="74" on="0"/>
        <pt x="170" y="132" on="0"/>
        <pt x="170" y="178" on="1"/>
        <pt x="170" y="846" on="1"/>
        <pt x="170" y="887" on="0"/>
        <pt x="157" y="944" on="0"/>
        <pt x="125" y="979" on="0"/>
        <pt x="70" y="995" on="0"/>
        <pt x="27" y="995" on="1"/>
        <pt x="27" y="1022" on="1"/>
        <pt x="315" y="1022" on="1"/>
        <pt x="686" y="223" on="1"/>
        <pt x="1051" y="1022" on="1"/>
        <pt x="1341" y="1022" on="1"/>
        <pt x="1341" y="995" on="1"/>
        <pt x="1293" y="995" on="0"/>
        <pt x="1235" y="983" on="0"/>
        <pt x="1205" y="950" on="0"/>
        <pt x="1196" y="892" on="0"/>
        <pt x="1196" y="846" on="1"/>
        <pt x="1196" y="178" on="1"/>
        <pt x="1196" y="131" on="0"/>
        <pt x="1206" y="73" on="0"/>
        <pt x="1236" y="40" on="0"/>
        <pt x="1293" y="29" on="0"/>
        <pt x="1341" y="29" on="1"/>
        <pt x="1341" y="0" on="1"/>
      </contour>
    </TTGlyph>
    <TTGlyph name="N" xMin="8" yMin="-16" xMax="1094" yMax="1022">
      <contour>
        <pt x="1094" y="995" on="1"/>
        <pt x="1046" y="995" on="0"/>
        <pt x="988" y="983" on="0"/>
        <pt x="957" y="950" on="0"/>
        <pt x="948" y="892" on="0"/>
        <pt x="948" y="846" on="1"/>
        <pt x="948" y="-16" on="1"/>
        <pt x="922" y="-16" on="1"/>
        <pt x="246" y="807" on="1"/>
        <pt x="246" y="178" on="1"/>
        <pt x="246" y="130" on="0"/>
        <pt x="255" y="72" on="0"/>
        <pt x="285" y="40" on="0"/>
        <pt x="343" y="29" on="0"/>
        <pt x="391" y="29" on="1"/>
        <pt x="391" y="0" on="1"/>
        <pt x="35" y="0" on="1"/>
        <pt x="35" y="29" on="1"/>
        <pt x="83" y="29" on="0"/>
        <pt x="140" y="41" on="0"/>
        <pt x="170" y="74" on="0"/>
        <pt x="180" y="132" on="0"/>
        <pt x="180" y="178" on="1"/>
        <pt x="180" y="889" on="1"/>
        <pt x="161" y="915" on="0"/>
        <pt x="128" y="954" on="0"/>
        <pt x="91" y="981" on="0"/>
        <pt x="43" y="995" on="0"/>
        <pt x="8" y="995" on="1"/>
        <pt x="8" y="1022" on="1"/>
        <pt x="258" y="1022" on="1"/>
        <pt x="883" y="256" on="1"/>
        <pt x="883" y="846" on="1"/>
        <pt x="883" y="892" on="0"/>
        <pt x="873" y="950" on="0"/>
        <pt x="842" y="983" on="0"/>
        <pt x="785" y="995" on="0"/>
        <pt x="737" y="995" on="1"/>
        <pt x="737" y="1022" on="1"/>
        <pt x="1094" y="1022" on="1"/>
      </contour>
    </TTGlyph>
    <TTGlyph name="Ntilde" xMin="8" yMin="-16" xMax="1094" yMax="1343">
      <component glyphName="N" x="0" y="0" flags="0x204"/>
      <component glyphName="tilde" x="294" y="330" flags="0x4"/>
    </TTGlyph>
    <TTGlyph name="O" xMin="53" yMin="-25" xMax="1055" yMax="1044">
      <contour>
        <pt x="1055" y="516" on="1"/>
        <pt x="1055" y="407" on="0"/>
        <pt x="983" y="211" on="0"/>
        <pt x="852" y="62" on="0"/>
        <pt x="667" y="-25" on="0"/>
        <pt x="553" y="-25" on="1"/>
        <pt x="439" y="-25" on="0"/>
        <pt x="254" y="61" on="0"/>
        <pt x="123" y="208" on="0"/>
        <pt x="53" y="404" on="0"/>
        <pt x="53" y="514" on="1"/>
        <pt x="53" y="625" on="0"/>
        <pt x="128" y="818" on="0"/>
        <pt x="264" y="961" on="0"/>
        <pt x="452" y="1044" on="0"/>
        <pt x="565" y="1044" on="1"/>
        <pt x="676" y="1044" on="0"/>
        <pt x="856" y="959" on="0"/>
        <pt x="985" y="814" on="0"/>
        <pt x="1055" y="622" on="0"/>
      </contour>
      <contour>
        <pt x="883" y="506" on="1"/>
        <pt x="883" y="562" on="0"/>
        <pt x="872" y="678" on="0"/>
        <pt x="844" y="786" on="0"/>
        <pt x="796" y="880" on="0"/>
        <pt x="722" y="950" on="0"/>
        <pt x="619" y="991" on="0"/>
        <pt x="549" y="991" on="1"/>
        <pt x="485" y="991" on="0"/>
        <pt x="388" y="950" on="0"/>
        <pt x="316" y="880" on="0"/>
        <pt x="268" y="786" on="0"/>
        <pt x="239" y="681" on="0"/>
        <pt x="227" y="570" on="0"/>
        <pt x="227" y="518" on="1"/>
        <pt x="227" y="467" on="0"/>
        <pt x="239" y="355" on="0"/>
        <pt x="269" y="247" on="0"/>
        <pt x="317" y="149" on="0"/>
        <pt x="389" y="75" on="0"/>
        <pt x="487" y="31" on="0"/>
        <pt x="551" y="31" on="1"/>
        <pt x="618" y="31" on="0"/>
        <pt x="719" y="71" on="0"/>
        <pt x="793" y="140" on="0"/>
        <pt x="842" y="233" on="0"/>
        <pt x="871" y="338" on="0"/>
        <pt x="883" y="451" on="0"/>
      </contour>
    </TTGlyph>
    <TTGlyph name="OE" xMin="57" yMin="-12" xMax="1329" yMax="1032">
      <contour>
        <pt x="1247" y="0" on="1"/>
        <pt x="754" y="0" on="1"/>
        <pt x="695" y="0" on="0"/>
        <pt x="577" y="-12" on="0"/>
        <pt x="518" y="-12" on="1"/>
        <pt x="409" y="-12" on="0"/>
        <pt x="238" y="75" on="0"/>
        <pt x="119" y="219" on="0"/>
        <pt x="57" y="408" on="0"/>
        <pt x="57" y="510" on="1"/>
        <pt x="57" y="618" on="0"/>
        <pt x="121" y="809" on="0"/>
        <pt x="243" y="950" on="0"/>
        <pt x="421" y="1032" on="0"/>
        <pt x="535" y="1032" on="1"/>
        <pt x="537" y="1032" on="1"/>
        <pt x="545" y="1032" on="1"/>
        <pt x="573" y="1030" on="1"/>
        <pt x="682" y="1026" on="1"/>
        <pt x="821" y="1020" on="0"/>
        <pt x="1099" y="1022" on="0"/>
        <pt x="1239" y="1022" on="1"/>
        <pt x="1247" y="799" on="1"/>
        <pt x="1223" y="799" on="1"/>
        <pt x="1212" y="853" on="0"/>
        <pt x="1191" y="919" on="0"/>
        <pt x="1152" y="955" on="0"/>
        <pt x="1084" y="967" on="0"/>
        <pt x="1026" y="967" on="1"/>
        <pt x="834" y="967" on="1"/>
        <pt x="834" y="565" on="1"/>
        <pt x="969" y="565" on="1"/>
        <pt x="1049" y="565" on="0"/>
        <pt x="1128" y="628" on="0"/>
        <pt x="1128" y="711" on="1"/>
        <pt x="1159" y="711" on="1"/>
        <pt x="1159" y="354" on="1"/>
        <pt x="1128" y="354" on="1"/>
        <pt x="1125" y="399" on="0"/>
        <pt x="1109" y="457" on="0"/>
        <pt x="1073" y="492" on="0"/>
        <pt x="1014" y="506" on="0"/>
        <pt x="969" y="506" on="1"/>
        <pt x="834" y="506" on="1"/>
        <pt x="834" y="170" on="1"/>
        <pt x="834" y="119" on="0"/>
        <pt x="852" y="70" on="0"/>
        <pt x="892" y="54" on="0"/>
        <pt x="955" y="57" on="0"/>
        <pt x="1001" y="57" on="1"/>
        <pt x="1063" y="57" on="0"/>
        <pt x="1152" y="76" on="0"/>
        <pt x="1221" y="123" on="0"/>
        <pt x="1274" y="199" on="0"/>
        <pt x="1298" y="256" on="1"/>
        <pt x="1329" y="256" on="1"/>
      </contour>
      <contour>
        <pt x="688" y="786" on="1"/>
        <pt x="688" y="830" on="0"/>
        <pt x="680" y="902" on="0"/>
        <pt x="650" y="954" on="0"/>
        <pt x="590" y="983" on="0"/>
        <pt x="537" y="983" on="1"/>
        <pt x="474" y="983" on="0"/>
        <pt x="379" y="940" on="0"/>
        <pt x="311" y="866" on="0"/>
        <pt x="266" y="769" on="0"/>
        <pt x="240" y="663" on="0"/>
        <pt x="229" y="554" on="0"/>
        <pt x="229" y="504" on="1"/>
        <pt x="229" y="455" on="0"/>
        <pt x="241" y="349" on="0"/>
        <pt x="268" y="246" on="0"/>
        <pt x="314" y="153" on="0"/>
        <pt x="382" y="83" on="0"/>
        <pt x="475" y="41" on="0"/>
        <pt x="535" y="41" on="1"/>
        <pt x="592" y="41" on="0"/>
        <pt x="655" y="74" on="0"/>
        <pt x="683" y="131" on="0"/>
        <pt x="688" y="210" on="0"/>
        <pt x="688" y="256" on="1"/>
      </contour>
    </TTGlyph>
    <TTGlyph name="Oacute" xMin="53" yMin="-25" xMax="1055" yMax="1381">
      <component glyphName="O" x="0" y="0" flags="0x204"/>
      <component glyphName="acute" x="327" y="330" flags="0x4"/>
    </TTGlyph>
    <TTGlyph name="Ocircumflex" xMin="53" yMin="-25" xMax="1055" yMax="1364">
      <component glyphName="O" x="0" y="0" flags="0x204"/>
      <component glyphName="circumflex" x="312" y="320" flags="0x4"/>
    </TTGlyph>
    <TTGlyph name="Odieresis" xMin="53" yMin="-25" xMax="1055" yMax="1321">
      <component glyphName="O" x="0" y="0" flags="0x204"/>
      <component glyphName="dieresis" x="312" y="320" flags="0x4"/>
    </TTGlyph>
    <TTGlyph name="Ograve" xMin="53" yMin="-25" xMax="1055" yMax="1381">
      <component glyphName="O" x="0" y="0" flags="0x204"/>
      <component glyphName="grave" x="260" y="330" flags="0x4"/>
    </TTGlyph>
    <TTGlyph name="Oslash" xMin="55" yMin="-36" xMax="1056" yMax="1055">
      <contour>
        <pt x="1056" y="519" on="1"/>
        <pt x="1056" y="401" on="0"/>
        <pt x="975" y="202" on="0"/>
        <pt x="838" y="57" on="0"/>
        <pt x="659" y="-24" on="0"/>
        <pt x="561" y="-24" on="1"/>
        <pt x="524" y="-24" on="0"/>
        <pt x="442" y="-11" on="0"/>
        <pt x="361" y="16" on="0"/>
        <pt x="283" y="57" on="0"/>
        <pt x="248" y="85" on="1"/>
        <pt x="152" y="-36" on="1"/>
        <pt x="107" y="0" on="1"/>
        <pt x="207" y="123" on="1"/>
        <pt x="55" y="278" on="0"/>
        <pt x="55" y="523" on="1"/>
        <pt x="55" y="633" on="0"/>
        <pt x="133" y="824" on="0"/>
        <pt x="269" y="965" on="0"/>
        <pt x="453" y="1046" on="0"/>
        <pt x="559" y="1046" on="1"/>
        <pt x="730" y="1046" on="0"/>
        <pt x="865" y="933" on="1"/>
        <pt x="964" y="1055" on="1"/>
        <pt x="1009" y="1022" on="1"/>
        <pt x="906" y="897" on="1"/>
        <pt x="947" y="854" on="0"/>
        <pt x="1004" y="769" on="0"/>
        <pt x="1040" y="677" on="0"/>
        <pt x="1056" y="577" on="0"/>
      </contour>
      <contour>
        <pt x="802" y="856" on="1"/>
        <pt x="715" y="992" on="0"/>
        <pt x="554" y="992" on="1"/>
        <pt x="460" y="992" on="0"/>
        <pt x="334" y="907" on="0"/>
        <pt x="258" y="772" on="0"/>
        <pt x="227" y="607" on="0"/>
        <pt x="227" y="526" on="1"/>
        <pt x="227" y="352" on="0"/>
        <pt x="282" y="218" on="1"/>
      </contour>
      <contour>
        <pt x="883" y="495" on="1"/>
        <pt x="883" y="534" on="0"/>
        <pt x="880" y="603" on="0"/>
        <pt x="869" y="675" on="0"/>
        <pt x="848" y="754" on="0"/>
        <pt x="829" y="802" on="1"/>
        <pt x="313" y="163" on="1"/>
        <pt x="365" y="89" on="0"/>
        <pt x="481" y="31" on="0"/>
        <pt x="550" y="31" on="1"/>
        <pt x="620" y="31" on="0"/>
        <pt x="741" y="82" on="0"/>
        <pt x="831" y="193" on="0"/>
        <pt x="883" y="369" on="0"/>
      </contour>
    </TTGlyph>
    <TTGlyph name="Otilde" xMin="53" yMin="-25" xMax="1055" yMax="1343">
      <component glyphName="O" x="0" y="0" flags="0x204"/>
      <component glyphName="tilde" x="297" y="330" flags="0x4"/>
    </TTGlyph>
    <TTGlyph name="P" xMin="27" yMin="0" xMax="805" yMax="1022">
      <contour>
        <pt x="805" y="739" on="1"/>
        <pt x="805" y="656" on="0"/>
        <pt x="748" y="547" on="0"/>
        <pt x="650" y="483" on="0"/>
        <pt x="519" y="457" on="0"/>
        <pt x="446" y="457" on="1"/>
        <pt x="414" y="457" on="0"/>
        <pt x="349" y="462" on="0"/>
        <pt x="315" y="465" on="1"/>
        <pt x="315" y="180" on="1"/>
        <pt x="315" y="133" on="0"/>
        <pt x="326" y="74" on="0"/>
        <pt x="357" y="41" on="0"/>
        <pt x="415" y="29" on="0"/>
        <pt x="463" y="29" on="1"/>
        <pt x="463" y="0" on="1"/>
        <pt x="27" y="0" on="1"/>
        <pt x="27" y="29" on="1"/>
        <pt x="75" y="29" on="0"/>
        <pt x="132" y="41" on="0"/>
        <pt x="162" y="74" on="0"/>
        <pt x="170" y="133" on="0"/>
        <pt x="170" y="180" on="1"/>
        <pt x="170" y="842" on="1"/>
        <pt x="170" y="890" on="0"/>
        <pt x="162" y="949" on="0"/>
        <pt x="133" y="983" on="0"/>
        <pt x="76" y="995" on="0"/>
        <pt x="27" y="995" on="1"/>
        <pt x="27" y="1022" on="1"/>
        <pt x="399" y="1022" on="1"/>
        <pt x="468" y="1022" on="0"/>
        <pt x="613" y="998" on="0"/>
        <pt x="730" y="935" on="0"/>
        <pt x="805" y="825" on="0"/>
      </contour>
      <contour>
        <pt x="633" y="725" on="1"/>
        <pt x="633" y="774" on="0"/>
        <pt x="604" y="861" on="0"/>
        <pt x="549" y="925" on="0"/>
        <pt x="468" y="963" on="0"/>
        <pt x="416" y="963" on="1"/>
        <pt x="391" y="963" on="0"/>
        <pt x="340" y="953" on="0"/>
        <pt x="315" y="948" on="1"/>
        <pt x="315" y="516" on="1"/>
        <pt x="346" y="511" on="0"/>
        <pt x="408" y="506" on="0"/>
        <pt x="440" y="506" on="1"/>
        <pt x="485" y="506" on="0"/>
        <pt x="556" y="543" on="0"/>
        <pt x="606" y="604" on="0"/>
        <pt x="633" y="683" on="0"/>
      </contour>
    </TTGlyph>
    <TTGlyph name="Q" xMin="53" yMin="-303" xMax="1055" yMax="1044">
      <contour>
        <pt x="1055" y="510" on="1"/>
        <pt x="1055" y="419" on="0"/>
        <pt x="1003" y="254" on="0"/>
        <pt x="906" y="118" on="0"/>
        <pt x="767" y="17" on="0"/>
        <pt x="680" y="-10" on="1"/>
        <pt x="711" y="-63" on="0"/>
        <pt x="787" y="-156" on="0"/>
        <pt x="878" y="-228" on="0"/>
        <pt x="987" y="-273" on="0"/>
        <pt x="1051" y="-279" on="1"/>
        <pt x="1051" y="-303" on="1"/>
        <pt x="969" y="-299" on="0"/>
        <pt x="792" y="-252" on="0"/>
        <pt x="624" y="-175" on="0"/>
        <pt x="475" y="-71" on="0"/>
        <pt x="420" y="-10" on="1"/>
        <pt x="234" y="55" on="0"/>
        <pt x="53" y="316" on="0"/>
        <pt x="53" y="512" on="1"/>
        <pt x="53" y="623" on="0"/>
        <pt x="127" y="817" on="0"/>
        <pt x="262" y="961" on="0"/>
        <pt x="449" y="1044" on="0"/>
        <pt x="563" y="1044" on="1"/>
        <pt x="675" y="1044" on="0"/>
        <pt x="857" y="958" on="0"/>
        <pt x="985" y="811" on="0"/>
        <pt x="1055" y="618" on="0"/>
      </contour>
      <contour>
        <pt x="883" y="492" on="1"/>
        <pt x="883" y="546" on="0"/>
        <pt x="871" y="661" on="0"/>
        <pt x="842" y="772" on="0"/>
        <pt x="793" y="871" on="0"/>
        <pt x="720" y="945" on="0"/>
        <pt x="620" y="989" on="0"/>
        <pt x="553" y="989" on="1"/>
        <pt x="488" y="989" on="0"/>
        <pt x="388" y="948" on="0"/>
        <pt x="316" y="877" on="0"/>
        <pt x="268" y="783" on="0"/>
        <pt x="239" y="677" on="0"/>
        <pt x="227" y="565" on="0"/>
        <pt x="227" y="512" on="1"/>
        <pt x="227" y="460" on="0"/>
        <pt x="239" y="348" on="0"/>
        <pt x="269" y="241" on="0"/>
        <pt x="318" y="145" on="0"/>
        <pt x="390" y="72" on="0"/>
        <pt x="489" y="29" on="0"/>
        <pt x="553" y="29" on="1"/>
        <pt x="651" y="29" on="0"/>
        <pt x="778" y="113" on="0"/>
        <pt x="853" y="246" on="0"/>
        <pt x="883" y="411" on="0"/>
      </contour>
    </TTGlyph>
    <TTGlyph name="R" xMin="27" yMin="0" xMax="1044" yMax="1022">
      <contour>
        <pt x="770" y="0" on="1"/>
        <pt x="424" y="477" on="1"/>
        <pt x="398" y="477" on="0"/>
        <pt x="341" y="474" on="0"/>
        <pt x="315" y="477" on="1"/>
        <pt x="315" y="180" on="1"/>
        <pt x="315" y="133" on="0"/>
        <pt x="326" y="74" on="0"/>
        <pt x="358" y="41" on="0"/>
        <pt x="417" y="29" on="0"/>
        <pt x="465" y="29" on="1"/>
        <pt x="465" y="0" on="1"/>
        <pt x="27" y="0" on="1"/>
        <pt x="27" y="29" on="1"/>
        <pt x="76" y="29" on="0"/>
        <pt x="134" y="41" on="0"/>
        <pt x="164" y="74" on="0"/>
        <pt x="172" y="133" on="0"/>
        <pt x="172" y="180" on="1"/>
        <pt x="172" y="842" on="1"/>
        <pt x="172" y="890" on="0"/>
        <pt x="164" y="949" on="0"/>
        <pt x="134" y="983" on="0"/>
        <pt x="76" y="995" on="0"/>
        <pt x="27" y="995" on="1"/>
        <pt x="27" y="1022" on="1"/>
        <pt x="412" y="1022" on="1"/>
        <pt x="457" y="1022" on="0"/>
        <pt x="552" y="1016" on="0"/>
        <pt x="643" y="996" on="0"/>
        <pt x="725" y="961" on="0"/>
        <pt x="787" y="902" on="0"/>
        <pt x="823" y="818" on="0"/>
        <pt x="823" y="760" on="1"/>
        <pt x="823" y="702" on="0"/>
        <pt x="785" y="613" on="0"/>
        <pt x="718" y="550" on="0"/>
        <pt x="626" y="509" on="0"/>
        <pt x="573" y="498" on="1"/>
        <pt x="782" y="203" on="1"/>
        <pt x="810" y="164" on="0"/>
        <pt x="862" y="104" on="0"/>
        <pt x="922" y="60" on="0"/>
        <pt x="995" y="34" on="0"/>
        <pt x="1044" y="29" on="1"/>
        <pt x="1044" y="0" on="1"/>
      </contour>
      <contour>
        <pt x="655" y="748" on="1"/>
        <pt x="655" y="797" on="0"/>
        <pt x="623" y="877" on="0"/>
        <pt x="564" y="934" on="0"/>
        <pt x="483" y="965" on="0"/>
        <pt x="434" y="965" on="1"/>
        <pt x="405" y="965" on="0"/>
        <pt x="346" y="957" on="0"/>
        <pt x="315" y="952" on="1"/>
        <pt x="315" y="526" on="1"/>
        <pt x="358" y="526" on="1"/>
        <pt x="413" y="526" on="0"/>
        <pt x="519" y="548" on="0"/>
        <pt x="603" y="599" on="0"/>
        <pt x="655" y="684" on="0"/>
      </contour>
    </TTGlyph>
    <TTGlyph name="S" xMin="98" yMin="-25" xMax="776" yMax="1044">
      <contour>
        <pt x="776" y="262" on="1"/>
        <pt x="776" y="195" on="0"/>
        <pt x="722" y="89" on="0"/>
        <pt x="633" y="15" on="0"/>
        <pt x="517" y="-25" on="0"/>
        <pt x="455" y="-25" on="1"/>
        <pt x="414" y="-25" on="0"/>
        <pt x="332" y="-6" on="0"/>
        <pt x="259" y="16" on="0"/>
        <pt x="199" y="35" on="0"/>
        <pt x="180" y="35" on="1"/>
        <pt x="168" y="35" on="0"/>
        <pt x="151" y="24" on="0"/>
        <pt x="140" y="6" on="0"/>
        <pt x="135" y="-15" on="0"/>
        <pt x="133" y="-25" on="1"/>
        <pt x="106" y="-25" on="1"/>
        <pt x="106" y="328" on="1"/>
        <pt x="133" y="328" on="1"/>
        <pt x="141" y="263" on="0"/>
        <pt x="187" y="155" on="0"/>
        <pt x="263" y="78" on="0"/>
        <pt x="370" y="35" on="0"/>
        <pt x="438" y="35" on="1"/>
        <pt x="475" y="35" on="0"/>
        <pt x="548" y="56" on="0"/>
        <pt x="605" y="98" on="0"/>
        <pt x="641" y="161" on="0"/>
        <pt x="641" y="203" on="1"/>
        <pt x="641" y="247" on="0"/>
        <pt x="594" y="318" on="0"/>
        <pt x="518" y="379" on="0"/>
        <pt x="420" y="434" on="0"/>
        <pt x="319" y="490" on="0"/>
        <pt x="221" y="552" on="0"/>
        <pt x="145" y="627" on="0"/>
        <pt x="98" y="718" on="0"/>
        <pt x="98" y="776" on="1"/>
        <pt x="98" y="839" on="0"/>
        <pt x="147" y="939" on="0"/>
        <pt x="229" y="1008" on="0"/>
        <pt x="336" y="1044" on="0"/>
        <pt x="395" y="1044" on="1"/>
        <pt x="430" y="1044" on="0"/>
        <pt x="499" y="1026" on="0"/>
        <pt x="562" y="1005" on="0"/>
        <pt x="614" y="987" on="0"/>
        <pt x="631" y="987" on="1"/>
        <pt x="643" y="987" on="0"/>
        <pt x="659" y="999" on="0"/>
        <pt x="671" y="1016" on="0"/>
        <pt x="678" y="1036" on="0"/>
        <pt x="680" y="1044" on="1"/>
        <pt x="709" y="1044" on="1"/>
        <pt x="709" y="692" on="1"/>
        <pt x="680" y="692" on="1"/>
        <pt x="675" y="752" on="0"/>
        <pt x="633" y="859" on="0"/>
        <pt x="562" y="938" on="0"/>
        <pt x="462" y="985" on="0"/>
        <pt x="397" y="985" on="1"/>
        <pt x="363" y="985" on="0"/>
        <pt x="299" y="963" on="0"/>
        <pt x="248" y="922" on="0"/>
        <pt x="217" y="865" on="0"/>
        <pt x="217" y="829" on="1"/>
        <pt x="217" y="787" on="0"/>
        <pt x="265" y="719" on="0"/>
        <pt x="344" y="661" on="0"/>
        <pt x="444" y="608" on="0"/>
        <pt x="549" y="553" on="0"/>
        <pt x="649" y="491" on="0"/>
        <pt x="728" y="415" on="0"/>
        <pt x="776" y="322" on="0"/>
      </contour>
    </TTGlyph>
    <TTGlyph name="Scaron" xMin="98" yMin="-25" xMax="776" yMax="1375">
      <component glyphName="S" x="0" y="0" flags="0x204"/>
      <component glyphName="caron" x="195" y="330" flags="0x4"/>
    </TTGlyph>
    <TTGlyph name="T" xMin="37" yMin="0" xMax="905" yMax="1022">
      <contour>
        <pt x="872" y="782" on="1"/>
        <pt x="863" y="869" on="0"/>
        <pt x="775" y="958" on="0"/>
        <pt x="684" y="958" on="1"/>
        <pt x="541" y="958" on="1"/>
        <pt x="541" y="178" on="1"/>
        <pt x="541" y="131" on="0"/>
        <pt x="549" y="73" on="0"/>
        <pt x="579" y="40" on="0"/>
        <pt x="636" y="29" on="0"/>
        <pt x="684" y="29" on="1"/>
        <pt x="684" y="0" on="1"/>
        <pt x="252" y="0" on="1"/>
        <pt x="252" y="29" on="1"/>
        <pt x="300" y="29" on="0"/>
        <pt x="356" y="41" on="0"/>
        <pt x="386" y="74" on="0"/>
        <pt x="395" y="132" on="0"/>
        <pt x="395" y="178" on="1"/>
        <pt x="395" y="958" on="1"/>
        <pt x="272" y="958" on="1"/>
        <pt x="224" y="958" on="0"/>
        <pt x="152" y="941" on="0"/>
        <pt x="103" y="901" on="0"/>
        <pt x="76" y="833" on="0"/>
        <pt x="72" y="782" on="1"/>
        <pt x="37" y="782" on="1"/>
        <pt x="47" y="1022" on="1"/>
        <pt x="895" y="1022" on="1"/>
        <pt x="905" y="782" on="1"/>
      </contour>
    </TTGlyph>
    <TTGlyph name="Thorn" xMin="28" yMin="0" xMax="801" yMax="1022">
      <contour>
        <pt x="801" y="513" on="1"/>
        <pt x="801" y="456" on="0"/>
        <pt x="756" y="358" on="0"/>
        <pt x="719" y="321" on="1"/>
        <pt x="699" y="301" on="0"/>
        <pt x="653" y="268" on="0"/>
        <pt x="577" y="244" on="0"/>
        <pt x="460" y="230" on="0"/>
        <pt x="370" y="230" on="1"/>
        <pt x="316" y="230" on="1"/>
        <pt x="316" y="184" on="1"/>
        <pt x="316" y="89" on="0"/>
        <pt x="343" y="57" on="1"/>
        <pt x="369" y="28" on="0"/>
        <pt x="432" y="28" on="1"/>
        <pt x="464" y="28" on="1"/>
        <pt x="464" y="0" on="1"/>
        <pt x="28" y="0" on="1"/>
        <pt x="28" y="28" on="1"/>
        <pt x="55" y="28" on="1"/>
        <pt x="127" y="28" on="0"/>
        <pt x="156" y="70" on="1"/>
        <pt x="171" y="90" on="0"/>
        <pt x="171" y="181" on="1"/>
        <pt x="171" y="836" on="1"/>
        <pt x="171" y="924" on="0"/>
        <pt x="162" y="940" on="1"/>
        <pt x="155" y="963" on="0"/>
        <pt x="99" y="995" on="0"/>
        <pt x="57" y="995" on="1"/>
        <pt x="28" y="995" on="1"/>
        <pt x="28" y="1022" on="1"/>
        <pt x="464" y="1022" on="1"/>
        <pt x="464" y="995" on="1"/>
        <pt x="432" y="995" on="1"/>
        <pt x="420" y="995" on="0"/>
        <pt x="389" y="989" on="0"/>
        <pt x="359" y="976" on="0"/>
        <pt x="335" y="955" on="0"/>
        <pt x="330" y="940" on="1"/>
        <pt x="326" y="928" on="0"/>
        <pt x="320" y="907" on="0"/>
        <pt x="317" y="886" on="0"/>
        <pt x="316" y="859" on="0"/>
        <pt x="316" y="841" on="1"/>
        <pt x="316" y="791" on="1"/>
        <pt x="373" y="791" on="1"/>
        <pt x="441" y="791" on="0"/>
        <pt x="535" y="785" on="0"/>
        <pt x="604" y="771" on="0"/>
        <pt x="654" y="749" on="0"/>
        <pt x="678" y="733" on="1"/>
        <pt x="730" y="697" on="0"/>
        <pt x="801" y="588" on="0"/>
      </contour>
      <contour>
        <pt x="625" y="511" on="1"/>
        <pt x="625" y="566" on="0"/>
        <pt x="582" y="659" on="0"/>
        <pt x="540" y="689" on="1"/>
        <pt x="525" y="700" on="0"/>
        <pt x="502" y="716" on="0"/>
        <pt x="464" y="727" on="0"/>
        <pt x="403" y="733" on="0"/>
        <pt x="352" y="733" on="1"/>
        <pt x="316" y="733" on="1"/>
        <pt x="316" y="282" on="1"/>
        <pt x="350" y="282" on="1"/>
        <pt x="425" y="282" on="0"/>
        <pt x="530" y="317" on="0"/>
        <pt x="596" y="379" on="0"/>
        <pt x="625" y="463" on="0"/>
      </contour>
    </TTGlyph>
    <TTGlyph name="U" xMin="23" yMin="-25" xMax="1100" yMax="1022">
      <contour>
        <pt x="1100" y="995" on="1"/>
        <pt x="1054" y="995" on="0"/>
        <pt x="996" y="979" on="0"/>
        <pt x="964" y="941" on="0"/>
        <pt x="952" y="880" on="0"/>
        <pt x="952" y="836" on="1"/>
        <pt x="952" y="420" on="1"/>
        <pt x="952" y="315" on="0"/>
        <pt x="913" y="150" on="0"/>
        <pt x="822" y="36" on="0"/>
        <pt x="670" y="-25" on="0"/>
        <pt x="557" y="-25" on="1"/>
        <pt x="432" y="-25" on="0"/>
        <pt x="275" y="37" on="0"/>
        <pt x="187" y="156" on="0"/>
        <pt x="156" y="329" on="0"/>
        <pt x="156" y="440" on="1"/>
        <pt x="156" y="842" on="1"/>
        <pt x="156" y="884" on="0"/>
        <pt x="148" y="942" on="0"/>
        <pt x="121" y="979" on="0"/>
        <pt x="68" y="995" on="0"/>
        <pt x="23" y="995" on="1"/>
        <pt x="23" y="1022" on="1"/>
        <pt x="434" y="1022" on="1"/>
        <pt x="434" y="995" on="1"/>
        <pt x="390" y="995" on="0"/>
        <pt x="338" y="979" on="0"/>
        <pt x="310" y="942" on="0"/>
        <pt x="301" y="884" on="0"/>
        <pt x="301" y="842" on="1"/>
        <pt x="301" y="395" on="1"/>
        <pt x="301" y="324" on="0"/>
        <pt x="320" y="195" on="0"/>
        <pt x="377" y="98" on="0"/>
        <pt x="482" y="41" on="0"/>
        <pt x="567" y="41" on="1"/>
        <pt x="636" y="41" on="0"/>
        <pt x="762" y="85" on="0"/>
        <pt x="813" y="133" on="1"/>
        <pt x="838" y="156" on="0"/>
        <pt x="866" y="231" on="0"/>
        <pt x="880" y="314" on="0"/>
        <pt x="883" y="397" on="0"/>
        <pt x="883" y="428" on="1"/>
        <pt x="883" y="842" on="1"/>
        <pt x="883" y="890" on="0"/>
        <pt x="874" y="949" on="0"/>
        <pt x="843" y="983" on="0"/>
        <pt x="785" y="995" on="0"/>
        <pt x="737" y="995" on="1"/>
        <pt x="737" y="1022" on="1"/>
        <pt x="1100" y="1022" on="1"/>
      </contour>
    </TTGlyph>
    <TTGlyph name="Uacute" xMin="23" yMin="-25" xMax="1100" yMax="1381">
      <component glyphName="U" x="0" y="0" flags="0x204"/>
      <component glyphName="acute" x="334" y="330" flags="0x4"/>
    </TTGlyph>
    <TTGlyph name="Ucircumflex" xMin="23" yMin="-25" xMax="1100" yMax="1364">
      <component glyphName="U" x="0" y="0" flags="0x204"/>
      <component glyphName="circumflex" x="319" y="320" flags="0x4"/>
    </TTGlyph>
    <TTGlyph name="Udieresis" xMin="23" yMin="-25" xMax="1100" yMax="1321">
      <component glyphName="U" x="0" y="0" flags="0x204"/>
      <component glyphName="dieresis" x="319" y="320" flags="0x4"/>
    </TTGlyph>
    <TTGlyph name="Ugrave" xMin="23" yMin="-25" xMax="1100" yMax="1381">
      <component glyphName="U" x="0" y="0" flags="0x204"/>
      <component glyphName="grave" x="267" y="330" flags="0x4"/>
    </TTGlyph>
    <TTGlyph name="V" xMin="14" yMin="-25" xMax="1096" yMax="1022">
      <contour>
        <pt x="1096" y="995" on="1"/>
        <pt x="1064" y="990" on="0"/>
        <pt x="1016" y="964" on="0"/>
        <pt x="980" y="926" on="0"/>
        <pt x="954" y="877" on="0"/>
        <pt x="942" y="848" on="1"/>
        <pt x="586" y="-25" on="1"/>
        <pt x="559" y="-25" on="1"/>
        <pt x="176" y="858" on="1"/>
        <pt x="162" y="890" on="0"/>
        <pt x="136" y="938" on="0"/>
        <pt x="101" y="972" on="0"/>
        <pt x="51" y="991" on="0"/>
        <pt x="14" y="995" on="1"/>
        <pt x="14" y="1022" on="1"/>
        <pt x="430" y="1022" on="1"/>
        <pt x="430" y="995" on="1"/>
        <pt x="414" y="994" on="0"/>
        <pt x="375" y="988" on="0"/>
        <pt x="340" y="973" on="0"/>
        <pt x="317" y="946" on="0"/>
        <pt x="317" y="924" on="1"/>
        <pt x="317" y="896" on="0"/>
        <pt x="337" y="842" on="0"/>
        <pt x="352" y="807" on="1"/>
        <pt x="612" y="209" on="1"/>
        <pt x="854" y="803" on="1"/>
        <pt x="859" y="814" on="0"/>
        <pt x="871" y="844" on="0"/>
        <pt x="881" y="877" on="0"/>
        <pt x="889" y="908" on="0"/>
        <pt x="889" y="920" on="1"/>
        <pt x="889" y="940" on="0"/>
        <pt x="866" y="966" on="0"/>
        <pt x="833" y="983" on="0"/>
        <pt x="795" y="992" on="0"/>
        <pt x="780" y="995" on="1"/>
        <pt x="780" y="1022" on="1"/>
        <pt x="1096" y="1022" on="1"/>
      </contour>
    </TTGlyph>
    <TTGlyph name="W" xMin="20" yMin="-25" xMax="1444" yMax="1022">
      <contour>
        <pt x="1444" y="995" on="1"/>
        <pt x="1404" y="995" on="0"/>
        <pt x="1352" y="958" on="0"/>
        <pt x="1318" y="901" on="0"/>
        <pt x="1295" y="833" on="0"/>
        <pt x="1284" y="803" on="1"/>
        <pt x="1001" y="-25" on="1"/>
        <pt x="969" y="-25" on="1"/>
        <pt x="737" y="629" on="1"/>
        <pt x="506" y="-25" on="1"/>
        <pt x="477" y="-25" on="1"/>
        <pt x="176" y="825" on="1"/>
        <pt x="164" y="858" on="0"/>
        <pt x="143" y="919" on="0"/>
        <pt x="112" y="967" on="0"/>
        <pt x="62" y="995" on="0"/>
        <pt x="20" y="995" on="1"/>
        <pt x="20" y="1022" on="1"/>
        <pt x="397" y="1022" on="1"/>
        <pt x="397" y="995" on="1"/>
        <pt x="382" y="995" on="0"/>
        <pt x="347" y="991" on="0"/>
        <pt x="318" y="979" on="0"/>
        <pt x="299" y="955" on="0"/>
        <pt x="299" y="934" on="1"/>
        <pt x="299" y="922" on="0"/>
        <pt x="307" y="890" on="0"/>
        <pt x="317" y="856" on="0"/>
        <pt x="328" y="824" on="0"/>
        <pt x="332" y="813" on="1"/>
        <pt x="532" y="238" on="1"/>
        <pt x="702" y="727" on="1"/>
        <pt x="691" y="764" on="0"/>
        <pt x="663" y="857" on="0"/>
        <pt x="619" y="939" on="0"/>
        <pt x="554" y="995" on="0"/>
        <pt x="506" y="995" on="1"/>
        <pt x="506" y="1022" on="1"/>
        <pt x="905" y="1022" on="1"/>
        <pt x="905" y="995" on="1"/>
        <pt x="886" y="995" on="0"/>
        <pt x="847" y="993" on="0"/>
        <pt x="816" y="980" on="0"/>
        <pt x="797" y="953" on="0"/>
        <pt x="797" y="928" on="1"/>
        <pt x="797" y="897" on="0"/>
        <pt x="818" y="822" on="0"/>
        <pt x="829" y="795" on="1"/>
        <pt x="1026" y="238" on="1"/>
        <pt x="1221" y="803" on="1"/>
        <pt x="1225" y="815" on="0"/>
        <pt x="1235" y="847" on="0"/>
        <pt x="1244" y="881" on="0"/>
        <pt x="1251" y="914" on="0"/>
        <pt x="1251" y="926" on="1"/>
        <pt x="1251" y="948" on="0"/>
        <pt x="1230" y="975" on="0"/>
        <pt x="1197" y="990" on="0"/>
        <pt x="1159" y="995" on="0"/>
        <pt x="1141" y="995" on="1"/>
        <pt x="1141" y="1022" on="1"/>
        <pt x="1444" y="1022" on="1"/>
      </contour>
    </TTGlyph>
    <TTGlyph name="X" xMin="10" yMin="0" xMax="1096" yMax="1022">
      <contour>
        <pt x="657" y="0" on="1"/>
        <pt x="657" y="29" on="1"/>
        <pt x="671" y="29" on="0"/>
        <pt x="707" y="32" on="0"/>
        <pt x="738" y="44" on="0"/>
        <pt x="760" y="67" on="0"/>
        <pt x="760" y="86" on="1"/>
        <pt x="760" y="98" on="0"/>
        <pt x="728" y="159" on="0"/>
        <pt x="680" y="238" on="0"/>
        <pt x="623" y="324" on="0"/>
        <pt x="574" y="398" on="0"/>
        <pt x="539" y="448" on="0"/>
        <pt x="537" y="451" on="1"/>
        <pt x="322" y="176" on="1"/>
        <pt x="316" y="168" on="0"/>
        <pt x="300" y="146" on="0"/>
        <pt x="286" y="122" on="0"/>
        <pt x="276" y="97" on="0"/>
        <pt x="276" y="86" on="1"/>
        <pt x="276" y="68" on="0"/>
        <pt x="296" y="45" on="0"/>
        <pt x="326" y="33" on="0"/>
        <pt x="360" y="29" on="0"/>
        <pt x="375" y="29" on="1"/>
        <pt x="375" y="0" on="1"/>
        <pt x="10" y="0" on="1"/>
        <pt x="10" y="29" on="1"/>
        <pt x="49" y="31" on="0"/>
        <pt x="121" y="62" on="0"/>
        <pt x="185" y="110" on="0"/>
        <pt x="240" y="169" on="0"/>
        <pt x="262" y="197" on="1"/>
        <pt x="506" y="504" on="1"/>
        <pt x="303" y="799" on="1"/>
        <pt x="276" y="838" on="0"/>
        <pt x="223" y="907" on="0"/>
        <pt x="160" y="959" on="0"/>
        <pt x="84" y="992" on="0"/>
        <pt x="33" y="995" on="1"/>
        <pt x="33" y="1022" on="1"/>
        <pt x="506" y="1022" on="1"/>
        <pt x="506" y="995" on="1"/>
        <pt x="492" y="994" on="0"/>
        <pt x="455" y="989" on="0"/>
        <pt x="422" y="977" on="0"/>
        <pt x="399" y="954" on="0"/>
        <pt x="399" y="936" on="1"/>
        <pt x="399" y="922" on="0"/>
        <pt x="425" y="869" on="0"/>
        <pt x="464" y="804" on="0"/>
        <pt x="511" y="734" on="0"/>
        <pt x="554" y="673" on="0"/>
        <pt x="587" y="629" on="0"/>
        <pt x="592" y="621" on="1"/>
        <pt x="596" y="627" on="0"/>
        <pt x="634" y="670" on="0"/>
        <pt x="685" y="732" on="0"/>
        <pt x="742" y="804" on="0"/>
        <pt x="790" y="871" on="0"/>
        <pt x="821" y="926" on="0"/>
        <pt x="821" y="940" on="1"/>
        <pt x="821" y="958" on="0"/>
        <pt x="796" y="980" on="0"/>
        <pt x="760" y="991" on="0"/>
        <pt x="723" y="994" on="0"/>
        <pt x="711" y="995" on="1"/>
        <pt x="711" y="1022" on="1"/>
        <pt x="1073" y="1022" on="1"/>
        <pt x="1073" y="995" on="1"/>
        <pt x="1028" y="992" on="0"/>
        <pt x="961" y="963" on="0"/>
        <pt x="907" y="917" on="0"/>
        <pt x="860" y="858" on="0"/>
        <pt x="834" y="825" on="1"/>
        <pt x="629" y="567" on="1"/>
        <pt x="850" y="240" on="1"/>
        <pt x="873" y="205" on="0"/>
        <pt x="921" y="133" on="0"/>
        <pt x="979" y="73" on="0"/>
        <pt x="1050" y="32" on="0"/>
        <pt x="1096" y="29" on="1"/>
        <pt x="1096" y="0" on="1"/>
      </contour>
    </TTGlyph>
    <TTGlyph name="Y" xMin="14" yMin="0" xMax="1094" yMax="1022">
      <contour>
        <pt x="1094" y="995" on="1"/>
        <pt x="1049" y="995" on="0"/>
        <pt x="985" y="965" on="0"/>
        <pt x="934" y="917" on="0"/>
        <pt x="893" y="854" on="0"/>
        <pt x="872" y="821" on="1"/>
        <pt x="625" y="434" on="1"/>
        <pt x="625" y="178" on="1"/>
        <pt x="625" y="131" on="0"/>
        <pt x="635" y="73" on="0"/>
        <pt x="665" y="40" on="0"/>
        <pt x="722" y="29" on="0"/>
        <pt x="770" y="29" on="1"/>
        <pt x="770" y="0" on="1"/>
        <pt x="336" y="0" on="1"/>
        <pt x="336" y="29" on="1"/>
        <pt x="384" y="29" on="0"/>
        <pt x="440" y="41" on="0"/>
        <pt x="469" y="74" on="0"/>
        <pt x="477" y="132" on="0"/>
        <pt x="477" y="178" on="1"/>
        <pt x="477" y="420" on="1"/>
        <pt x="199" y="848" on="1"/>
        <pt x="183" y="873" on="0"/>
        <pt x="146" y="925" on="0"/>
        <pt x="102" y="968" on="0"/>
        <pt x="48" y="995" on="0"/>
        <pt x="14" y="995" on="1"/>
        <pt x="14" y="1022" on="1"/>
        <pt x="451" y="1022" on="1"/>
        <pt x="451" y="995" on="1"/>
        <pt x="435" y="995" on="0"/>
        <pt x="394" y="991" on="0"/>
        <pt x="358" y="978" on="0"/>
        <pt x="334" y="951" on="0"/>
        <pt x="334" y="928" on="1"/>
        <pt x="334" y="914" on="0"/>
        <pt x="371" y="840" on="0"/>
        <pt x="428" y="747" on="0"/>
        <pt x="494" y="646" on="0"/>
        <pt x="551" y="561" on="0"/>
        <pt x="591" y="503" on="0"/>
        <pt x="592" y="500" on="1"/>
        <pt x="795" y="815" on="1"/>
        <pt x="801" y="825" on="0"/>
        <pt x="817" y="852" on="0"/>
        <pt x="830" y="881" on="0"/>
        <pt x="840" y="910" on="0"/>
        <pt x="840" y="922" on="1"/>
        <pt x="840" y="943" on="0"/>
        <pt x="820" y="971" on="0"/>
        <pt x="790" y="988" on="0"/>
        <pt x="754" y="995" on="0"/>
        <pt x="737" y="995" on="1"/>
        <pt x="737" y="1022" on="1"/>
        <pt x="1094" y="1022" on="1"/>
      </contour>
    </TTGlyph>
    <TTGlyph name="Yacute" xMin="14" yMin="0" xMax="1094" yMax="1381">
      <component glyphName="Y" x="0" y="0" flags="0x204"/>
      <component glyphName="acute" x="327" y="330" flags="0x4"/>
    </TTGlyph>
    <TTGlyph name="Ydieresis" xMin="14" yMin="0" xMax="1094" yMax="1321">
      <component glyphName="Y" x="0" y="0" flags="0x204"/>
      <component glyphName="dieresis" x="312" y="320" flags="0x4"/>
    </TTGlyph>
    <TTGlyph name="Z" xMin="20" yMin="0" xMax="899" yMax="1022">
      <contour>
        <pt x="852" y="0" on="1"/>
        <pt x="20" y="0" on="1"/>
        <pt x="20" y="29" on="1"/>
        <pt x="674" y="963" on="1"/>
        <pt x="348" y="963" on="1"/>
        <pt x="291" y="963" on="0"/>
        <pt x="218" y="942" on="0"/>
        <pt x="173" y="896" on="0"/>
        <pt x="148" y="820" on="0"/>
        <pt x="139" y="766" on="1"/>
        <pt x="111" y="766" on="1"/>
        <pt x="133" y="1022" on="1"/>
        <pt x="889" y="1022" on="1"/>
        <pt x="217" y="61" on="1"/>
        <pt x="635" y="61" on="1"/>
        <pt x="694" y="61" on="0"/>
        <pt x="772" y="90" on="0"/>
        <pt x="825" y="145" on="0"/>
        <pt x="861" y="224" on="0"/>
        <pt x="877" y="274" on="1"/>
        <pt x="899" y="270" on="1"/>
      </contour>
    </TTGlyph>
    <TTGlyph name="Zcaron" xMin="20" yMin="0" xMax="899" yMax="1375">
      <component glyphName="Z" x="0" y="0" flags="0x204"/>
      <component glyphName="caron" x="269" y="330" flags="0x4"/>
    </TTGlyph>
    <TTGlyph name="_bar" xMin="-182" yMin="-33" xMax="195" yMax="43">
      <contour>
        <pt x="171" y="-33" on="1"/>
        <pt x="163" y="-32" on="0"/>
        <pt x="153" y="-30" on="1"/>
        <pt x="137" y="-27" on="0"/>
        <pt x="105" y="-27" on="1"/>
        <pt x="-112" y="-27" on="1"/>
        <pt x="-126" y="-27" on="0"/>
        <pt x="-151" y="-23" on="0"/>
        <pt x="-161" y="-21" on="1"/>
        <pt x="-172" y="-18" on="0"/>
        <pt x="-182" y="-14" on="1"/>
        <pt x="-157" y="43" on="1"/>
        <pt x="-149" y="42" on="0"/>
        <pt x="-138" y="40" on="1"/>
        <pt x="-120" y="37" on="0"/>
        <pt x="-92" y="37" on="1"/>
        <pt x="123" y="37" on="1"/>
        <pt x="141" y="37" on="0"/>
        <pt x="168" y="33" on="0"/>
        <pt x="177" y="31" on="1"/>
        <pt x="188" y="28" on="0"/>
        <pt x="195" y="25" on="1"/>
      </contour>
    </TTGlyph>
    <TTGlyph name="_damma" xMin="-239" yMin="-137" xMax="97" yMax="279">
      <contour>
        <pt x="97" y="37" on="1"/>
        <pt x="97" y="32" on="0"/>
        <pt x="91" y="9" on="0"/>
        <pt x="88" y="-4" on="1"/>
        <pt x="85" y="-21" on="0"/>
        <pt x="81" y="-47" on="0"/>
        <pt x="78" y="-47" on="1"/>
        <pt x="64" y="-47" on="0"/>
        <pt x="23" y="-18" on="0"/>
        <pt x="0" y="0" on="1"/>
        <pt x="-52" y="-69" on="0"/>
        <pt x="-140" y="-137" on="0"/>
        <pt x="-174" y="-137" on="1"/>
        <pt x="-189" y="-137" on="0"/>
        <pt x="-225" y="-131" on="0"/>
        <pt x="-239" y="-123" on="1"/>
        <pt x="-216" y="-110" on="0"/>
        <pt x="-162" y="-76" on="0"/>
        <pt x="-108" y="-37" on="0"/>
        <pt x="-60" y="7" on="0"/>
        <pt x="-43" y="31" on="1"/>
        <pt x="-71" y="50" on="0"/>
        <pt x="-98" y="87" on="0"/>
        <pt x="-98" y="115" on="1"/>
        <pt x="-98" y="136" on="0"/>
        <pt x="-78" y="192" on="0"/>
        <pt x="-47" y="243" on="0"/>
        <pt x="-6" y="279" on="0"/>
        <pt x="15" y="279" on="1"/>
        <pt x="50" y="279" on="0"/>
        <pt x="82" y="222" on="0"/>
        <pt x="82" y="185" on="1"/>
        <pt x="82" y="156" on="0"/>
        <pt x="63" y="101" on="0"/>
        <pt x="52" y="76" on="1"/>
        <pt x="57" y="71" on="0"/>
        <pt x="73" y="60" on="0"/>
        <pt x="87" y="49" on="0"/>
        <pt x="97" y="40" on="0"/>
      </contour>
      <contour>
        <pt x="17" y="142" on="1"/>
        <pt x="17" y="159" on="0"/>
        <pt x="-10" y="189" on="0"/>
        <pt x="-28" y="189" on="1"/>
        <pt x="-43" y="189" on="0"/>
        <pt x="-43" y="174" on="1"/>
        <pt x="-43" y="165" on="0"/>
        <pt x="-18" y="129" on="0"/>
        <pt x="6" y="109" on="1"/>
        <pt x="10" y="117" on="0"/>
        <pt x="17" y="131" on="0"/>
      </contour>
    </TTGlyph>
    <TTGlyph name="_dot1" xMin="-77" yMin="-84" xMax="81" yMax="81">
      <contour>
        <pt x="81" y="14" on="1"/>
        <pt x="81" y="10" on="0"/>
        <pt x="63" y="-21" on="0"/>
        <pt x="40" y="-56" on="0"/>
        <pt x="18" y="-84" on="0"/>
        <pt x="13" y="-84" on="1"/>
        <pt x="11" y="-84" on="0"/>
        <pt x="-18" y="-66" on="0"/>
        <pt x="-51" y="-43" on="0"/>
        <pt x="-77" y="-21" on="0"/>
        <pt x="-77" y="-17" on="1"/>
        <pt x="-77" y="-13" on="0"/>
        <pt x="-58" y="18" on="0"/>
        <pt x="-35" y="53" on="0"/>
        <pt x="-13" y="81" on="0"/>
        <pt x="-10" y="81" on="1"/>
        <pt x="-6" y="81" on="0"/>
        <pt x="24" y="62" on="0"/>
        <pt x="56" y="38" on="0"/>
        <pt x="81" y="16" on="0"/>
      </contour>
    </TTGlyph>
    <TTGlyph name="_dot1_hat" xMin="-201" yMin="-84" xMax="200" yMax="356">
      <contour>
        <pt x="82" y="12" on="1"/>
        <pt x="82" y="9" on="0"/>
        <pt x="64" y="-22" on="0"/>
        <pt x="41" y="-56" on="0"/>
        <pt x="20" y="-84" on="0"/>
        <pt x="16" y="-84" on="1"/>
        <pt x="13" y="-84" on="0"/>
        <pt x="-16" y="-66" on="0"/>
        <pt x="-48" y="-43" on="0"/>
        <pt x="-74" y="-21" on="0"/>
        <pt x="-74" y="-17" on="1"/>
        <pt x="-74" y="-13" on="0"/>
        <pt x="-56" y="19" on="0"/>
        <pt x="-33" y="54" on="0"/>
        <pt x="-11" y="82" on="0"/>
        <pt x="-8" y="82" on="1"/>
        <pt x="-4" y="82" on="0"/>
        <pt x="25" y="62" on="0"/>
        <pt x="57" y="38" on="0"/>
        <pt x="82" y="15" on="0"/>
      </contour>
      <contour>
        <pt x="-201" y="145" on="1"/>
        <pt x="-201" y="150" on="0"/>
        <pt x="-170" y="197" on="0"/>
        <pt x="-126" y="257" on="0"/>
        <pt x="-76" y="318" on="0"/>
        <pt x="-58" y="336" on="1"/>
        <pt x="-50" y="345" on="0"/>
        <pt x="-38" y="356" on="0"/>
        <pt x="-31" y="356" on="1"/>
        <pt x="26" y="356" on="1"/>
        <pt x="32" y="356" on="0"/>
        <pt x="45" y="343" on="0"/>
        <pt x="55" y="334" on="1"/>
        <pt x="73" y="315" on="0"/>
        <pt x="122" y="253" on="0"/>
        <pt x="168" y="193" on="0"/>
        <pt x="200" y="147" on="0"/>
        <pt x="200" y="145" on="1"/>
        <pt x="200" y="140" on="0"/>
        <pt x="192" y="137" on="1"/>
        <pt x="157" y="137" on="1"/>
        <pt x="154" y="137" on="0"/>
        <pt x="130" y="157" on="0"/>
        <pt x="97" y="188" on="0"/>
        <pt x="59" y="223" on="0"/>
        <pt x="26" y="254" on="0"/>
        <pt x="1" y="274" on="0"/>
        <pt x="-3" y="274" on="1"/>
        <pt x="-6" y="274" on="0"/>
        <pt x="-31" y="254" on="0"/>
        <pt x="-65" y="223" on="0"/>
        <pt x="-102" y="188" on="0"/>
        <pt x="-136" y="157" on="0"/>
        <pt x="-161" y="137" on="0"/>
        <pt x="-164" y="137" on="1"/>
        <pt x="-195" y="137" on="1"/>
        <pt x="-201" y="137" on="0"/>
        <pt x="-201" y="143" on="0"/>
      </contour>
    </TTGlyph>
    <TTGlyph name="_dot1_smallV" xMin="-204" yMin="-84" xMax="197" yMax="410">
      <contour>
        <pt x="82" y="12" on="1"/>
        <pt x="82" y="9" on="0"/>
        <pt x="64" y="-22" on="0"/>
        <pt x="41" y="-56" on="0"/>
        <pt x="20" y="-84" on="0"/>
        <pt x="16" y="-84" on="1"/>
        <pt x="13" y="-84" on="0"/>
        <pt x="-16" y="-66" on="0"/>
        <pt x="-48" y="-43" on="0"/>
        <pt x="-74" y="-21" on="0"/>
        <pt x="-74" y="-17" on="1"/>
        <pt x="-74" y="-13" on="0"/>
        <pt x="-56" y="19" on="0"/>
        <pt x="-33" y="54" on="0"/>
        <pt x="-11" y="82" on="0"/>
        <pt x="-8" y="82" on="1"/>
        <pt x="-4" y="82" on="0"/>
        <pt x="25" y="62" on="0"/>
        <pt x="57" y="38" on="0"/>
        <pt x="82" y="15" on="0"/>
      </contour>
      <contour>
        <pt x="197" y="402" on="1"/>
        <pt x="197" y="397" on="0"/>
        <pt x="166" y="350" on="0"/>
        <pt x="122" y="290" on="0"/>
        <pt x="72" y="229" on="0"/>
        <pt x="54" y="211" on="1"/>
        <pt x="46" y="202" on="0"/>
        <pt x="34" y="191" on="0"/>
        <pt x="27" y="191" on="1"/>
        <pt x="-30" y="191" on="1"/>
        <pt x="-36" y="191" on="0"/>
        <pt x="-49" y="204" on="0"/>
        <pt x="-59" y="213" on="1"/>
        <pt x="-77" y="232" on="0"/>
        <pt x="-126" y="294" on="0"/>
        <pt x="-172" y="354" on="0"/>
        <pt x="-204" y="400" on="0"/>
        <pt x="-204" y="402" on="1"/>
        <pt x="-204" y="407" on="0"/>
        <pt x="-196" y="410" on="1"/>
        <pt x="-161" y="410" on="1"/>
        <pt x="-158" y="410" on="0"/>
        <pt x="-134" y="390" on="0"/>
        <pt x="-101" y="359" on="0"/>
        <pt x="-63" y="324" on="0"/>
        <pt x="-30" y="293" on="0"/>
        <pt x="-5" y="273" on="0"/>
        <pt x="-1" y="273" on="1"/>
        <pt x="3" y="273" on="0"/>
        <pt x="27" y="293" on="0"/>
        <pt x="61" y="324" on="0"/>
        <pt x="98" y="359" on="0"/>
        <pt x="132" y="390" on="0"/>
        <pt x="157" y="410" on="0"/>
        <pt x="160" y="410" on="1"/>
        <pt x="191" y="410" on="1"/>
        <pt x="197" y="410" on="0"/>
        <pt x="197" y="404" on="0"/>
      </contour>
    </TTGlyph>
    <TTGlyph name="_dot1_tah" xMin="-226" yMin="-84" xMax="213" yMax="684">
      <contour>
        <pt x="82" y="12" on="1"/>
        <pt x="82" y="9" on="0"/>
        <pt x="64" y="-22" on="0"/>
        <pt x="41" y="-56" on="0"/>
        <pt x="20" y="-84" on="0"/>
        <pt x="16" y="-84" on="1"/>
        <pt x="13" y="-84" on="0"/>
        <pt x="-16" y="-66" on="0"/>
        <pt x="-48" y="-43" on="0"/>
        <pt x="-74" y="-21" on="0"/>
        <pt x="-74" y="-17" on="1"/>
        <pt x="-74" y="-13" on="0"/>
        <pt x="-56" y="19" on="0"/>
        <pt x="-33" y="54" on="0"/>
        <pt x="-11" y="82" on="0"/>
        <pt x="-8" y="82" on="1"/>
        <pt x="-4" y="82" on="0"/>
        <pt x="25" y="62" on="0"/>
        <pt x="57" y="38" on="0"/>
        <pt x="82" y="15" on="0"/>
      </contour>
      <contour>
        <pt x="213" y="344" on="1"/>
        <pt x="213" y="312" on="0"/>
        <pt x="177" y="262" on="0"/>
        <pt x="118" y="225" on="0"/>
        <pt x="42" y="198" on="0"/>
        <pt x="-37" y="182" on="0"/>
        <pt x="-114" y="174" on="0"/>
        <pt x="-144" y="174" on="1"/>
        <pt x="-154" y="174" on="0"/>
        <pt x="-182" y="186" on="0"/>
        <pt x="-208" y="204" on="0"/>
        <pt x="-226" y="224" on="0"/>
        <pt x="-226" y="231" on="1"/>
        <pt x="-226" y="235" on="0"/>
        <pt x="-219" y="235" on="1"/>
        <pt x="-206" y="235" on="0"/>
        <pt x="-194" y="234" on="0"/>
        <pt x="-183" y="232" on="0"/>
        <pt x="-170" y="231" on="0"/>
        <pt x="-156" y="231" on="1"/>
        <pt x="-131" y="231" on="0"/>
        <pt x="-103" y="243" on="0"/>
        <pt x="-84" y="262" on="1"/>
        <pt x="-78" y="277" on="0"/>
        <pt x="-70" y="320" on="0"/>
        <pt x="-70" y="331" on="1"/>
        <pt x="-70" y="358" on="0"/>
        <pt x="-72" y="399" on="0"/>
        <pt x="-76" y="435" on="0"/>
        <pt x="-81" y="470" on="0"/>
        <pt x="-84" y="491" on="1"/>
        <pt x="-92" y="536" on="0"/>
        <pt x="-111" y="606" on="0"/>
        <pt x="-111" y="620" on="1"/>
        <pt x="-111" y="627" on="0"/>
        <pt x="-105" y="649" on="0"/>
        <pt x="-96" y="669" on="0"/>
        <pt x="-87" y="684" on="0"/>
        <pt x="-84" y="684" on="1"/>
        <pt x="-83" y="684" on="0"/>
        <pt x="-69" y="666" on="0"/>
        <pt x="-55" y="644" on="0"/>
        <pt x="-44" y="625" on="0"/>
        <pt x="-45" y="624" on="1"/>
        <pt x="-53" y="618" on="0"/>
        <pt x="-68" y="596" on="0"/>
        <pt x="-68" y="573" on="1"/>
        <pt x="-68" y="564" on="0"/>
        <pt x="-61" y="525" on="0"/>
        <pt x="-54" y="477" on="0"/>
        <pt x="-47" y="423" on="0"/>
        <pt x="-47" y="399" on="1"/>
        <pt x="-47" y="390" on="0"/>
        <pt x="-48" y="364" on="0"/>
        <pt x="-49" y="335" on="0"/>
        <pt x="-52" y="306" on="0"/>
        <pt x="-54" y="294" on="1"/>
        <pt x="-29" y="320" on="0"/>
        <pt x="23" y="366" on="0"/>
        <pt x="73" y="400" on="0"/>
        <pt x="120" y="419" on="0"/>
        <pt x="139" y="419" on="1"/>
        <pt x="174" y="419" on="0"/>
        <pt x="213" y="375" on="0"/>
      </contour>
      <contour>
        <pt x="174" y="313" on="1"/>
        <pt x="174" y="320" on="0"/>
        <pt x="161" y="332" on="0"/>
        <pt x="141" y="342" on="0"/>
        <pt x="118" y="348" on="0"/>
        <pt x="108" y="348" on="1"/>
        <pt x="88" y="348" on="0"/>
        <pt x="44" y="339" on="0"/>
        <pt x="-3" y="313" on="0"/>
        <pt x="-50" y="270" on="0"/>
        <pt x="-72" y="235" on="1"/>
        <pt x="-7" y="240" on="0"/>
        <pt x="86" y="263" on="0"/>
        <pt x="146" y="289" on="0"/>
        <pt x="174" y="311" on="0"/>
      </contour>
    </TTGlyph>
    <TTGlyph name="_dot2h" xMin="-156" yMin="-92" xMax="160" yMax="92">
      <contour>
        <pt x="160" y="23" on="1"/>
        <pt x="160" y="19" on="0"/>
        <pt x="142" y="-13" on="0"/>
        <pt x="119" y="-48" on="0"/>
        <pt x="98" y="-76" on="0"/>
        <pt x="94" y="-76" on="1"/>
        <pt x="92" y="-76" on="0"/>
        <pt x="65" y="-57" on="0"/>
        <pt x="49" y="-45" on="1"/>
        <pt x="31" y="-31" on="0"/>
        <pt x="8" y="-14" on="1"/>
        <pt x="1" y="-7" on="0"/>
        <pt x="-6" y="-14" on="1"/>
        <pt x="-21" y="-35" on="0"/>
        <pt x="-33" y="-53" on="1"/>
        <pt x="-44" y="-68" on="0"/>
        <pt x="-63" y="-92" on="0"/>
        <pt x="-66" y="-92" on="1"/>
        <pt x="-69" y="-92" on="0"/>
        <pt x="-98" y="-73" on="0"/>
        <pt x="-130" y="-49" on="0"/>
        <pt x="-156" y="-27" on="0"/>
        <pt x="-156" y="-24" on="1"/>
        <pt x="-156" y="-20" on="0"/>
        <pt x="-137" y="11" on="0"/>
        <pt x="-113" y="46" on="0"/>
        <pt x="-92" y="74" on="0"/>
        <pt x="-90" y="74" on="1"/>
        <pt x="-85" y="74" on="0"/>
        <pt x="-59" y="55" on="0"/>
        <pt x="-45" y="44" on="1"/>
        <pt x="-28" y="31" on="0"/>
        <pt x="-8" y="13" on="1"/>
        <pt x="-2" y="8" on="0"/>
        <pt x="3" y="7" on="0"/>
        <pt x="8" y="15" on="1"/>
        <pt x="23" y="37" on="0"/>
        <pt x="36" y="54" on="1"/>
        <pt x="47" y="68" on="0"/>
        <pt x="67" y="92" on="0"/>
        <pt x="69" y="92" on="1"/>
        <pt x="72" y="92" on="0"/>
        <pt x="102" y="72" on="0"/>
        <pt x="134" y="47" on="0"/>
        <pt x="160" y="25" on="0"/>
      </contour>
    </TTGlyph>
    <TTGlyph name="_dot2h_tah" xMin="-239" yMin="-90" xMax="200" yMax="608">
      <contour>
        <pt x="159" y="25" on="1"/>
        <pt x="159" y="21" on="0"/>
        <pt x="142" y="-11" on="0"/>
        <pt x="119" y="-46" on="0"/>
        <pt x="98" y="-74" on="0"/>
        <pt x="94" y="-74" on="1"/>
        <pt x="92" y="-74" on="0"/>
        <pt x="65" y="-55" on="0"/>
        <pt x="49" y="-43" on="1"/>
        <pt x="31" y="-29" on="0"/>
        <pt x="8" y="-12" on="1"/>
        <pt x="1" y="-5" on="0"/>
        <pt x="-7" y="-12" on="1"/>
        <pt x="-22" y="-33" on="0"/>
        <pt x="-34" y="-51" on="1"/>
        <pt x="-45" y="-66" on="0"/>
        <pt x="-63" y="-90" on="0"/>
        <pt x="-66" y="-90" on="1"/>
        <pt x="-69" y="-90" on="0"/>
        <pt x="-98" y="-71" on="0"/>
        <pt x="-130" y="-47" on="0"/>
        <pt x="-156" y="-25" on="0"/>
        <pt x="-156" y="-22" on="1"/>
        <pt x="-156" y="-18" on="0"/>
        <pt x="-137" y="13" on="0"/>
        <pt x="-114" y="48" on="0"/>
        <pt x="-93" y="76" on="0"/>
        <pt x="-91" y="76" on="1"/>
        <pt x="-86" y="76" on="0"/>
        <pt x="-59" y="57" on="0"/>
        <pt x="-45" y="45" on="1"/>
        <pt x="-28" y="31" on="0"/>
        <pt x="-9" y="14" on="1"/>
        <pt x="-3" y="9" on="0"/>
        <pt x="3" y="9" on="0"/>
        <pt x="8" y="17" on="1"/>
        <pt x="23" y="39" on="0"/>
        <pt x="36" y="56" on="1"/>
        <pt x="47" y="70" on="0"/>
        <pt x="67" y="94" on="0"/>
        <pt x="69" y="94" on="1"/>
        <pt x="72" y="94" on="0"/>
        <pt x="101" y="74" on="0"/>
        <pt x="133" y="49" on="0"/>
        <pt x="159" y="27" on="0"/>
      </contour>
      <contour>
        <pt x="200" y="313" on="1"/>
        <pt x="200" y="281" on="0"/>
        <pt x="164" y="231" on="0"/>
        <pt x="105" y="194" on="0"/>
        <pt x="29" y="167" on="0"/>
        <pt x="-50" y="151" on="0"/>
        <pt x="-127" y="143" on="0"/>
        <pt x="-157" y="143" on="1"/>
        <pt x="-167" y="143" on="0"/>
        <pt x="-195" y="155" on="0"/>
        <pt x="-221" y="173" on="0"/>
        <pt x="-239" y="193" on="0"/>
        <pt x="-239" y="200" on="1"/>
        <pt x="-239" y="204" on="0"/>
        <pt x="-232" y="204" on="1"/>
        <pt x="-219" y="204" on="0"/>
        <pt x="-207" y="203" on="0"/>
        <pt x="-196" y="201" on="0"/>
        <pt x="-183" y="200" on="0"/>
        <pt x="-169" y="200" on="1"/>
        <pt x="-144" y="200" on="0"/>
        <pt x="-116" y="212" on="0"/>
        <pt x="-97" y="231" on="1"/>
        <pt x="-91" y="246" on="0"/>
        <pt x="-83" y="289" on="0"/>
        <pt x="-83" y="300" on="1"/>
        <pt x="-83" y="327" on="0"/>
        <pt x="-85" y="361" on="0"/>
        <pt x="-89" y="390" on="0"/>
        <pt x="-94" y="419" on="0"/>
        <pt x="-97" y="440" on="1"/>
        <pt x="-105" y="485" on="0"/>
        <pt x="-124" y="535" on="0"/>
        <pt x="-124" y="549" on="1"/>
        <pt x="-124" y="556" on="0"/>
        <pt x="-118" y="576" on="0"/>
        <pt x="-109" y="595" on="0"/>
        <pt x="-100" y="608" on="0"/>
        <pt x="-97" y="608" on="1"/>
        <pt x="-96" y="608" on="0"/>
        <pt x="-82" y="590" on="0"/>
        <pt x="-68" y="568" on="0"/>
        <pt x="-57" y="549" on="0"/>
        <pt x="-58" y="548" on="1"/>
        <pt x="-66" y="542" on="0"/>
        <pt x="-81" y="525" on="0"/>
        <pt x="-81" y="502" on="1"/>
        <pt x="-81" y="483" on="0"/>
        <pt x="-60" y="407" on="0"/>
        <pt x="-60" y="358" on="1"/>
        <pt x="-60" y="341" on="0"/>
        <pt x="-63" y="286" on="0"/>
        <pt x="-67" y="263" on="1"/>
        <pt x="-42" y="289" on="0"/>
        <pt x="10" y="335" on="0"/>
        <pt x="60" y="369" on="0"/>
        <pt x="107" y="388" on="0"/>
        <pt x="126" y="388" on="1"/>
        <pt x="161" y="388" on="0"/>
        <pt x="200" y="344" on="0"/>
      </contour>
      <contour>
        <pt x="161" y="282" on="1"/>
        <pt x="161" y="289" on="0"/>
        <pt x="148" y="301" on="0"/>
        <pt x="128" y="311" on="0"/>
        <pt x="105" y="317" on="0"/>
        <pt x="95" y="317" on="1"/>
        <pt x="75" y="317" on="0"/>
        <pt x="31" y="308" on="0"/>
        <pt x="-16" y="282" on="0"/>
        <pt x="-63" y="239" on="0"/>
        <pt x="-85" y="204" on="1"/>
        <pt x="-20" y="209" on="0"/>
        <pt x="73" y="232" on="0"/>
        <pt x="133" y="258" on="0"/>
        <pt x="161" y="280" on="0"/>
      </contour>
    </TTGlyph>
    <TTGlyph name="_dot2v" xMin="-82" yMin="-170" xMax="84" yMax="168">
      <contour>
        <pt x="84" y="-74" on="1"/>
        <pt x="84" y="-77" on="0"/>
        <pt x="66" y="-108" on="0"/>
        <pt x="43" y="-142" on="0"/>
        <pt x="22" y="-170" on="0"/>
        <pt x="18" y="-170" on="1"/>
        <pt x="15" y="-170" on="0"/>
        <pt x="-14" y="-152" on="0"/>
        <pt x="-46" y="-129" on="0"/>
        <pt x="-72" y="-107" on="0"/>
        <pt x="-72" y="-103" on="1"/>
        <pt x="-72" y="-100" on="0"/>
        <pt x="-59" y="-75" on="0"/>
        <pt x="-40" y="-45" on="0"/>
        <pt x="-19" y="-17" on="0"/>
        <pt x="-12" y="-10" on="1"/>
        <pt x="-10" y="-7" on="0"/>
        <pt x="-4" y="7" on="0"/>
        <pt x="-10" y="10" on="1"/>
        <pt x="-19" y="16" on="0"/>
        <pt x="-44" y="34" on="0"/>
        <pt x="-67" y="52" on="0"/>
        <pt x="-82" y="67" on="0"/>
        <pt x="-82" y="69" on="1"/>
        <pt x="-82" y="73" on="0"/>
        <pt x="-64" y="105" on="0"/>
        <pt x="-41" y="140" on="0"/>
        <pt x="-20" y="168" on="0"/>
        <pt x="-17" y="168" on="1"/>
        <pt x="-12" y="168" on="0"/>
        <pt x="18" y="148" on="0"/>
        <pt x="49" y="124" on="0"/>
        <pt x="74" y="102" on="0"/>
        <pt x="74" y="100" on="1"/>
        <pt x="74" y="97" on="0"/>
        <pt x="61" y="73" on="0"/>
        <pt x="43" y="43" on="0"/>
        <pt x="23" y="15" on="0"/>
        <pt x="16" y="8" on="1"/>
        <pt x="13" y="5" on="0"/>
        <pt x="3" y="-10" on="0"/>
        <pt x="10" y="-15" on="1"/>
        <pt x="19" y="-20" on="0"/>
        <pt x="45" y="-38" on="0"/>
        <pt x="68" y="-57" on="0"/>
        <pt x="84" y="-72" on="0"/>
      </contour>
    </TTGlyph>
    <TTGlyph name="_dot3d" xMin="-158" yMin="-272" xMax="160" yMax="90">
      <contour>
        <pt x="160" y="22" on="1"/>
        <pt x="160" y="18" on="0"/>
        <pt x="142" y="-13" on="0"/>
        <pt x="119" y="-48" on="0"/>
        <pt x="98" y="-76" on="0"/>
        <pt x="94" y="-76" on="1"/>
        <pt x="92" y="-76" on="0"/>
        <pt x="65" y="-57" on="0"/>
        <pt x="49" y="-45" on="1"/>
        <pt x="31" y="-31" on="0"/>
        <pt x="8" y="-14" on="1"/>
        <pt x="2" y="-9" on="0"/>
        <pt x="-3" y="-11" on="0"/>
        <pt x="-6" y="-16" on="1"/>
        <pt x="-22" y="-37" on="0"/>
        <pt x="-34" y="-55" on="1"/>
        <pt x="-45" y="-70" on="0"/>
        <pt x="-65" y="-94" on="0"/>
        <pt x="-68" y="-94" on="1"/>
        <pt x="-70" y="-94" on="0"/>
        <pt x="-99" y="-75" on="0"/>
        <pt x="-132" y="-50" on="0"/>
        <pt x="-158" y="-28" on="0"/>
        <pt x="-158" y="-25" on="1"/>
        <pt x="-158" y="-22" on="0"/>
        <pt x="-139" y="10" on="0"/>
        <pt x="-115" y="44" on="0"/>
        <pt x="-94" y="72" on="0"/>
        <pt x="-92" y="72" on="1"/>
        <pt x="-87" y="72" on="0"/>
        <pt x="-61" y="53" on="0"/>
        <pt x="-46" y="42" on="1"/>
        <pt x="-28" y="29" on="0"/>
        <pt x="-8" y="12" on="1"/>
        <pt x="-2" y="7" on="0"/>
        <pt x="2" y="6" on="0"/>
        <pt x="8" y="14" on="1"/>
        <pt x="36" y="52" on="1"/>
        <pt x="47" y="66" on="0"/>
        <pt x="67" y="90" on="0"/>
        <pt x="70" y="90" on="1"/>
        <pt x="74" y="90" on="0"/>
        <pt x="103" y="71" on="0"/>
        <pt x="135" y="47" on="0"/>
        <pt x="160" y="25" on="0"/>
      </contour>
      <contour>
        <pt x="90" y="-176" on="1"/>
        <pt x="90" y="-179" on="0"/>
        <pt x="72" y="-210" on="0"/>
        <pt x="50" y="-244" on="0"/>
        <pt x="28" y="-272" on="0"/>
        <pt x="23" y="-272" on="1"/>
        <pt x="20" y="-272" on="0"/>
        <pt x="-9" y="-254" on="0"/>
        <pt x="-42" y="-231" on="0"/>
        <pt x="-68" y="-209" on="0"/>
        <pt x="-68" y="-205" on="1"/>
        <pt x="-68" y="-201" on="0"/>
        <pt x="-49" y="-170" on="0"/>
        <pt x="-25" y="-135" on="0"/>
        <pt x="-3" y="-107" on="0"/>
        <pt x="0" y="-107" on="1"/>
        <pt x="4" y="-107" on="0"/>
        <pt x="33" y="-126" on="0"/>
        <pt x="65" y="-151" on="0"/>
        <pt x="90" y="-173" on="0"/>
      </contour>
    </TTGlyph>
    <TTGlyph name="_dot3h" xMin="-240" yMin="-86" xMax="240" yMax="90">
      <contour>
        <pt x="240" y="13" on="1"/>
        <pt x="240" y="9" on="0"/>
        <pt x="219" y="-21" on="0"/>
        <pt x="194" y="-54" on="0"/>
        <pt x="170" y="-80" on="0"/>
        <pt x="166" y="-80" on="1"/>
        <pt x="164" y="-80" on="0"/>
        <pt x="138" y="-58" on="0"/>
        <pt x="123" y="-45" on="1"/>
        <pt x="105" y="-30" on="0"/>
        <pt x="85" y="-10" on="1"/>
        <pt x="81" y="-5" on="0"/>
        <pt x="75" y="-7" on="0"/>
        <pt x="71" y="-9" on="1"/>
        <pt x="69" y="-12" on="0"/>
        <pt x="65" y="-16" on="1"/>
        <pt x="62" y="-20" on="0"/>
        <pt x="55" y="-29" on="0"/>
        <pt x="51" y="-34" on="1"/>
        <pt x="37" y="-52" on="0"/>
        <pt x="9" y="-84" on="0"/>
        <pt x="5" y="-84" on="1"/>
        <pt x="3" y="-83" on="0"/>
        <pt x="-14" y="-69" on="0"/>
        <pt x="-25" y="-60" on="1"/>
        <pt x="-35" y="-52" on="0"/>
        <pt x="-54" y="-35" on="0"/>
        <pt x="-63" y="-27" on="1"/>
        <pt x="-76" y="-14" on="1"/>
        <pt x="-82" y="-7" on="0"/>
        <pt x="-89" y="-13" on="1"/>
        <pt x="-106" y="-34" on="0"/>
        <pt x="-120" y="-50" on="1"/>
        <pt x="-132" y="-64" on="0"/>
        <pt x="-153" y="-86" on="0"/>
        <pt x="-156" y="-86" on="1"/>
        <pt x="-159" y="-86" on="0"/>
        <pt x="-186" y="-64" on="0"/>
        <pt x="-216" y="-38" on="0"/>
        <pt x="-240" y="-13" on="0"/>
        <pt x="-240" y="-10" on="1"/>
        <pt x="-240" y="-6" on="0"/>
        <pt x="-218" y="23" on="0"/>
        <pt x="-191" y="56" on="0"/>
        <pt x="-168" y="82" on="0"/>
        <pt x="-166" y="82" on="1"/>
        <pt x="-161" y="82" on="0"/>
        <pt x="-137" y="61" on="0"/>
        <pt x="-123" y="48" on="1"/>
        <pt x="-107" y="33" on="0"/>
        <pt x="-89" y="14" on="1"/>
        <pt x="-84" y="8" on="0"/>
        <pt x="-78" y="6" on="0"/>
        <pt x="-73" y="14" on="1"/>
        <pt x="-56" y="34" on="0"/>
        <pt x="-42" y="50" on="1"/>
        <pt x="-30" y="64" on="0"/>
        <pt x="-8" y="86" on="0"/>
        <pt x="-6" y="86" on="1"/>
        <pt x="-5" y="86" on="1"/>
        <pt x="-1" y="85" on="0"/>
        <pt x="22" y="66" on="0"/>
        <pt x="35" y="54" on="1"/>
        <pt x="49" y="41" on="0"/>
        <pt x="73" y="17" on="0"/>
        <pt x="77" y="12" on="1"/>
        <pt x="82" y="9" on="0"/>
        <pt x="88" y="18" on="1"/>
        <pt x="105" y="38" on="0"/>
        <pt x="119" y="54" on="1"/>
        <pt x="131" y="68" on="0"/>
        <pt x="153" y="90" on="0"/>
        <pt x="155" y="90" on="1"/>
        <pt x="158" y="90" on="0"/>
        <pt x="186" y="67" on="0"/>
        <pt x="216" y="40" on="0"/>
        <pt x="240" y="15" on="0"/>
      </contour>
    </TTGlyph>
    <TTGlyph name="_dot3u" xMin="-157" yMin="-181" xMax="158" yMax="177">
      <contour>
        <pt x="56" y="110" on="1"/>
        <pt x="56" y="106" on="0"/>
        <pt x="38" y="74" on="0"/>
        <pt x="16" y="39" on="0"/>
        <pt x="-6" y="11" on="0"/>
        <pt x="-10" y="11" on="1"/>
        <pt x="-12" y="11" on="0"/>
        <pt x="-41" y="30" on="0"/>
        <pt x="-74" y="54" on="0"/>
        <pt x="-100" y="77" on="0"/>
        <pt x="-100" y="81" on="1"/>
        <pt x="-100" y="85" on="0"/>
        <pt x="-81" y="116" on="0"/>
        <pt x="-57" y="150" on="0"/>
        <pt x="-36" y="177" on="0"/>
        <pt x="-34" y="177" on="1"/>
        <pt x="-30" y="177" on="0"/>
        <pt x="0" y="158" on="0"/>
        <pt x="31" y="134" on="0"/>
        <pt x="56" y="112" on="0"/>
      </contour>
      <contour>
        <pt x="158" y="-64" on="1"/>
        <pt x="158" y="-68" on="0"/>
        <pt x="141" y="-100" on="0"/>
        <pt x="118" y="-135" on="0"/>
        <pt x="97" y="-163" on="0"/>
        <pt x="93" y="-163" on="1"/>
        <pt x="91" y="-163" on="0"/>
        <pt x="64" y="-144" on="0"/>
        <pt x="49" y="-132" on="1"/>
        <pt x="31" y="-118" on="0"/>
        <pt x="9" y="-101" on="1"/>
        <pt x="3" y="-96" on="0"/>
        <pt x="-2" y="-98" on="0"/>
        <pt x="-6" y="-103" on="1"/>
        <pt x="-22" y="-124" on="0"/>
        <pt x="-34" y="-142" on="1"/>
        <pt x="-45" y="-157" on="0"/>
        <pt x="-64" y="-181" on="0"/>
        <pt x="-67" y="-181" on="1"/>
        <pt x="-70" y="-181" on="0"/>
        <pt x="-99" y="-162" on="0"/>
        <pt x="-131" y="-137" on="0"/>
        <pt x="-157" y="-114" on="0"/>
        <pt x="-157" y="-111" on="1"/>
        <pt x="-157" y="-108" on="0"/>
        <pt x="-138" y="-77" on="0"/>
        <pt x="-115" y="-43" on="0"/>
        <pt x="-94" y="-15" on="0"/>
        <pt x="-92" y="-15" on="1"/>
        <pt x="-87" y="-15" on="0"/>
        <pt x="-60" y="-34" on="0"/>
        <pt x="-46" y="-45" on="1"/>
        <pt x="-29" y="-58" on="0"/>
        <pt x="-10" y="-75" on="1"/>
        <pt x="-3" y="-80" on="0"/>
        <pt x="3" y="-81" on="0"/>
        <pt x="9" y="-73" on="1"/>
        <pt x="24" y="-52" on="0"/>
        <pt x="36" y="-35" on="1"/>
        <pt x="47" y="-21" on="0"/>
        <pt x="65" y="3" on="0"/>
        <pt x="68" y="3" on="1"/>
        <pt x="71" y="3" on="0"/>
        <pt x="100" y="-16" on="0"/>
        <pt x="132" y="-40" on="0"/>
        <pt x="158" y="-62" on="0"/>
      </contour>
    </TTGlyph>
    <TTGlyph name="_dot3u_tah" xMin="-255" yMin="-95" xMax="184" yMax="807">
      <contour>
        <pt x="57" y="196" on="1"/>
        <pt x="57" y="192" on="0"/>
        <pt x="39" y="161" on="0"/>
        <pt x="17" y="126" on="0"/>
        <pt x="-5" y="98" on="0"/>
        <pt x="-9" y="98" on="1"/>
        <pt x="-11" y="98" on="0"/>
        <pt x="-40" y="116" on="0"/>
        <pt x="-73" y="139" on="0"/>
        <pt x="-99" y="161" on="0"/>
        <pt x="-99" y="165" on="1"/>
        <pt x="-99" y="169" on="0"/>
        <pt x="-80" y="201" on="0"/>
        <pt x="-56" y="236" on="0"/>
        <pt x="-35" y="264" on="0"/>
        <pt x="-33" y="264" on="1"/>
        <pt x="-29" y="264" on="0"/>
        <pt x="1" y="244" on="0"/>
        <pt x="32" y="220" on="0"/>
        <pt x="57" y="198" on="0"/>
      </contour>
      <contour>
        <pt x="161" y="20" on="1"/>
        <pt x="161" y="16" on="0"/>
        <pt x="143" y="-15" on="0"/>
        <pt x="120" y="-49" on="0"/>
        <pt x="98" y="-76" on="0"/>
        <pt x="94" y="-76" on="1"/>
        <pt x="92" y="-76" on="0"/>
        <pt x="65" y="-57" on="0"/>
        <pt x="50" y="-46" on="1"/>
        <pt x="32" y="-33" on="0"/>
        <pt x="10" y="-15" on="1"/>
        <pt x="4" y="-12" on="0"/>
        <pt x="-2" y="-14" on="0"/>
        <pt x="-5" y="-17" on="1"/>
        <pt x="-21" y="-38" on="0"/>
        <pt x="-33" y="-56" on="1"/>
        <pt x="-44" y="-71" on="0"/>
        <pt x="-63" y="-95" on="0"/>
        <pt x="-66" y="-95" on="1"/>
        <pt x="-69" y="-95" on="0"/>
        <pt x="-98" y="-75" on="0"/>
        <pt x="-130" y="-51" on="0"/>
        <pt x="-156" y="-29" on="0"/>
        <pt x="-156" y="-27" on="1"/>
        <pt x="-156" y="-23" on="0"/>
        <pt x="-137" y="8" on="0"/>
        <pt x="-114" y="43" on="0"/>
        <pt x="-93" y="71" on="0"/>
        <pt x="-91" y="71" on="1"/>
        <pt x="-86" y="71" on="0"/>
        <pt x="-59" y="52" on="0"/>
        <pt x="-45" y="41" on="1"/>
        <pt x="-28" y="28" on="0"/>
        <pt x="-9" y="10" on="1"/>
        <pt x="-3" y="5" on="0"/>
        <pt x="4" y="6" on="0"/>
        <pt x="10" y="14" on="1"/>
        <pt x="25" y="35" on="0"/>
        <pt x="37" y="52" on="1"/>
        <pt x="48" y="66" on="0"/>
        <pt x="67" y="89" on="0"/>
        <pt x="71" y="89" on="1"/>
        <pt x="73" y="89" on="0"/>
        <pt x="102" y="70" on="0"/>
        <pt x="135" y="45" on="0"/>
        <pt x="161" y="23" on="0"/>
      </contour>
      <contour>
        <pt x="184" y="512" on="1"/>
        <pt x="184" y="480" on="0"/>
        <pt x="148" y="430" on="0"/>
        <pt x="89" y="393" on="0"/>
        <pt x="13" y="366" on="0"/>
        <pt x="-66" y="350" on="0"/>
        <pt x="-143" y="342" on="0"/>
        <pt x="-173" y="342" on="1"/>
        <pt x="-183" y="342" on="0"/>
        <pt x="-211" y="354" on="0"/>
        <pt x="-237" y="372" on="0"/>
        <pt x="-255" y="392" on="0"/>
        <pt x="-255" y="399" on="1"/>
        <pt x="-255" y="403" on="0"/>
        <pt x="-248" y="403" on="1"/>
        <pt x="-235" y="403" on="0"/>
        <pt x="-223" y="402" on="0"/>
        <pt x="-212" y="400" on="0"/>
        <pt x="-199" y="399" on="0"/>
        <pt x="-185" y="399" on="1"/>
        <pt x="-160" y="399" on="0"/>
        <pt x="-132" y="411" on="0"/>
        <pt x="-113" y="430" on="1"/>
        <pt x="-107" y="445" on="0"/>
        <pt x="-99" y="488" on="0"/>
        <pt x="-99" y="499" on="1"/>
        <pt x="-99" y="526" on="0"/>
        <pt x="-101" y="560" on="0"/>
        <pt x="-105" y="589" on="0"/>
        <pt x="-110" y="618" on="0"/>
        <pt x="-113" y="639" on="1"/>
        <pt x="-121" y="684" on="0"/>
        <pt x="-140" y="734" on="0"/>
        <pt x="-140" y="748" on="1"/>
        <pt x="-140" y="755" on="0"/>
        <pt x="-134" y="775" on="0"/>
        <pt x="-125" y="794" on="0"/>
        <pt x="-116" y="807" on="0"/>
        <pt x="-113" y="807" on="1"/>
        <pt x="-112" y="807" on="0"/>
        <pt x="-98" y="789" on="0"/>
        <pt x="-84" y="767" on="0"/>
        <pt x="-73" y="748" on="0"/>
        <pt x="-74" y="747" on="1"/>
        <pt x="-82" y="741" on="0"/>
        <pt x="-97" y="724" on="0"/>
        <pt x="-97" y="701" on="1"/>
        <pt x="-97" y="682" on="0"/>
        <pt x="-76" y="606" on="0"/>
        <pt x="-76" y="557" on="1"/>
        <pt x="-76" y="540" on="0"/>
        <pt x="-79" y="485" on="0"/>
        <pt x="-83" y="462" on="1"/>
        <pt x="-58" y="488" on="0"/>
        <pt x="-6" y="534" on="0"/>
        <pt x="44" y="568" on="0"/>
        <pt x="91" y="587" on="0"/>
        <pt x="110" y="587" on="1"/>
        <pt x="145" y="587" on="0"/>
        <pt x="184" y="543" on="0"/>
      </contour>
      <contour>
        <pt x="145" y="481" on="1"/>
        <pt x="145" y="488" on="0"/>
        <pt x="132" y="500" on="0"/>
        <pt x="112" y="510" on="0"/>
        <pt x="89" y="516" on="0"/>
        <pt x="79" y="516" on="1"/>
        <pt x="59" y="516" on="0"/>
        <pt x="15" y="507" on="0"/>
        <pt x="-32" y="481" on="0"/>
        <pt x="-79" y="438" on="0"/>
        <pt x="-101" y="403" on="1"/>
        <pt x="-36" y="408" on="0"/>
        <pt x="57" y="431" on="0"/>
        <pt x="117" y="457" on="0"/>
        <pt x="145" y="479" on="0"/>
      </contour>
    </TTGlyph>
    <TTGlyph name="_dot4" xMin="-166" yMin="-177" xMax="166" yMax="179">
      <contour>
        <pt x="151" y="110" on="1"/>
        <pt x="151" y="106" on="0"/>
        <pt x="134" y="75" on="0"/>
        <pt x="111" y="40" on="0"/>
        <pt x="90" y="12" on="0"/>
        <pt x="86" y="12" on="1"/>
        <pt x="84" y="12" on="0"/>
        <pt x="57" y="32" on="0"/>
        <pt x="41" y="43" on="1"/>
        <pt x="23" y="56" on="0"/>
        <pt x="0" y="73" on="1"/>
        <pt x="-6" y="78" on="0"/>
        <pt x="-11" y="76" on="0"/>
        <pt x="-14" y="73" on="1"/>
        <pt x="-29" y="52" on="0"/>
        <pt x="-42" y="34" on="1"/>
        <pt x="-53" y="19" on="0"/>
        <pt x="-73" y="-5" on="0"/>
        <pt x="-76" y="-5" on="1"/>
        <pt x="-78" y="-5" on="0"/>
        <pt x="-107" y="14" on="0"/>
        <pt x="-140" y="38" on="0"/>
        <pt x="-166" y="60" on="0"/>
        <pt x="-166" y="63" on="1"/>
        <pt x="-166" y="67" on="0"/>
        <pt x="-147" y="98" on="0"/>
        <pt x="-123" y="133" on="0"/>
        <pt x="-101" y="161" on="0"/>
        <pt x="-98" y="161" on="1"/>
        <pt x="-93" y="161" on="0"/>
        <pt x="-67" y="142" on="0"/>
        <pt x="-53" y="131" on="1"/>
        <pt x="-36" y="118" on="0"/>
        <pt x="-16" y="100" on="1"/>
        <pt x="-10" y="95" on="0"/>
        <pt x="-6" y="94" on="0"/>
        <pt x="0" y="102" on="1"/>
        <pt x="16" y="124" on="0"/>
        <pt x="28" y="141" on="1"/>
        <pt x="39" y="155" on="0"/>
        <pt x="58" y="179" on="0"/>
        <pt x="61" y="179" on="1"/>
        <pt x="64" y="179" on="0"/>
        <pt x="93" y="159" on="0"/>
        <pt x="125" y="134" on="0"/>
        <pt x="151" y="112" on="0"/>
      </contour>
      <contour>
        <pt x="166" y="-62" on="1"/>
        <pt x="166" y="-66" on="0"/>
        <pt x="148" y="-98" on="0"/>
        <pt x="124" y="-133" on="0"/>
        <pt x="103" y="-161" on="0"/>
        <pt x="100" y="-161" on="1"/>
        <pt x="97" y="-161" on="0"/>
        <pt x="70" y="-142" on="0"/>
        <pt x="54" y="-130" on="1"/>
        <pt x="36" y="-116" on="0"/>
        <pt x="14" y="-99" on="1"/>
        <pt x="8" y="-94" on="0"/>
        <pt x="3" y="-96" on="0"/>
        <pt x="0" y="-99" on="1"/>
        <pt x="-16" y="-120" on="0"/>
        <pt x="-28" y="-138" on="1"/>
        <pt x="-39" y="-153" on="0"/>
        <pt x="-59" y="-177" on="0"/>
        <pt x="-62" y="-177" on="1"/>
        <pt x="-65" y="-177" on="0"/>
        <pt x="-94" y="-158" on="0"/>
        <pt x="-126" y="-134" on="0"/>
        <pt x="-152" y="-112" on="0"/>
        <pt x="-152" y="-109" on="1"/>
        <pt x="-152" y="-105" on="0"/>
        <pt x="-133" y="-74" on="0"/>
        <pt x="-109" y="-39" on="0"/>
        <pt x="-88" y="-11" on="0"/>
        <pt x="-86" y="-11" on="1"/>
        <pt x="-81" y="-11" on="0"/>
        <pt x="-55" y="-31" on="0"/>
        <pt x="-41" y="-42" on="1"/>
        <pt x="-24" y="-55" on="0"/>
        <pt x="-4" y="-72" on="1"/>
        <pt x="4" y="-77" on="0"/>
        <pt x="8" y="-78" on="0"/>
        <pt x="14" y="-70" on="1"/>
        <pt x="42" y="-32" on="1"/>
        <pt x="53" y="-18" on="0"/>
        <pt x="72" y="7" on="0"/>
        <pt x="74" y="7" on="1"/>
        <pt x="78" y="7" on="0"/>
        <pt x="107" y="-13" on="0"/>
        <pt x="140" y="-38" on="0"/>
        <pt x="166" y="-60" on="0"/>
      </contour>
    </TTGlyph>
    <TTGlyph name="_gafBar" xMin="-5" yMin="-1" xMax="750" yMax="511">
      <contour>
        <pt x="722" y="429" on="1"/>
        <pt x="714" y="409" on="0"/>
        <pt x="696" y="381" on="0"/>
        <pt x="682" y="376" on="1"/>
        <pt x="645" y="362" on="0"/>
        <pt x="535" y="308" on="0"/>
        <pt x="408" y="242" on="0"/>
        <pt x="274" y="166" on="0"/>
        <pt x="148" y="93" on="0"/>
        <pt x="40" y="27" on="0"/>
        <pt x="3" y="2" on="1"/>
        <pt x="0" y="-1" on="0"/>
        <pt x="-3" y="-1" on="1"/>
        <pt x="-5" y="-1" on="0"/>
        <pt x="-5" y="2" on="1"/>
        <pt x="-5" y="7" on="0"/>
        <pt x="6" y="32" on="0"/>
        <pt x="21" y="61" on="0"/>
        <pt x="36" y="86" on="0"/>
        <pt x="41" y="90" on="1"/>
        <pt x="84" y="131" on="0"/>
        <pt x="191" y="212" on="0"/>
        <pt x="308" y="288" on="0"/>
        <pt x="430" y="359" on="0"/>
        <pt x="487" y="391" on="1"/>
        <pt x="499" y="398" on="0"/>
        <pt x="544" y="420" on="0"/>
        <pt x="599" y="447" on="0"/>
        <pt x="657" y="475" on="0"/>
        <pt x="706" y="497" on="0"/>
        <pt x="740" y="511" on="0"/>
        <pt x="742" y="511" on="1"/>
        <pt x="750" y="511" on="0"/>
        <pt x="750" y="502" on="1"/>
        <pt x="747" y="496" on="0"/>
        <pt x="742" y="484" on="0"/>
        <pt x="740" y="479" on="1"/>
      </contour>
    </TTGlyph>
    <TTGlyph name="_gafBarShort" xMin="-5" yMin="-1" xMax="730" yMax="451">
      <contour>
        <pt x="702" y="379" on="1"/>
        <pt x="694" y="359" on="0"/>
        <pt x="676" y="330" on="0"/>
        <pt x="662" y="326" on="1"/>
        <pt x="621" y="313" on="0"/>
        <pt x="506" y="265" on="0"/>
        <pt x="375" y="205" on="0"/>
        <pt x="241" y="138" on="0"/>
        <pt x="122" y="74" on="0"/>
        <pt x="28" y="20" on="0"/>
        <pt x="3" y="2" on="1"/>
        <pt x="0" y="-1" on="0"/>
        <pt x="-3" y="-1" on="1"/>
        <pt x="-5" y="-1" on="0"/>
        <pt x="-5" y="2" on="1"/>
        <pt x="-5" y="7" on="0"/>
        <pt x="6" y="32" on="0"/>
        <pt x="21" y="61" on="0"/>
        <pt x="36" y="86" on="0"/>
        <pt x="41" y="90" on="1"/>
        <pt x="71" y="119" on="0"/>
        <pt x="164" y="186" on="0"/>
        <pt x="272" y="252" on="0"/>
        <pt x="384" y="312" on="0"/>
        <pt x="434" y="336" on="1"/>
        <pt x="446" y="342" on="0"/>
        <pt x="497" y="363" on="0"/>
        <pt x="559" y="389" on="0"/>
        <pt x="626" y="415" on="0"/>
        <pt x="682" y="437" on="0"/>
        <pt x="720" y="451" on="0"/>
        <pt x="722" y="451" on="1"/>
        <pt x="730" y="451" on="0"/>
        <pt x="730" y="442" on="1"/>
        <pt x="727" y="436" on="0"/>
        <pt x="721" y="424" on="0"/>
        <pt x="719" y="419" on="1"/>
      </contour>
    </TTGlyph>
    <TTGlyph name="_gafBarShort_dot2h" xMin="-131" yMin="-1" xMax="730" yMax="480">
      <contour>
        <pt x="184" y="410" on="1"/>
        <pt x="184" y="406" on="0"/>
        <pt x="166" y="375" on="0"/>
        <pt x="144" y="340" on="0"/>
        <pt x="122" y="312" on="0"/>
        <pt x="118" y="312" on="1"/>
        <pt x="116" y="312" on="0"/>
        <pt x="89" y="332" on="0"/>
        <pt x="74" y="343" on="1"/>
        <pt x="34" y="373" on="1"/>
        <pt x="28" y="378" on="0"/>
        <pt x="21" y="376" on="0"/>
        <pt x="18" y="373" on="1"/>
        <pt x="3" y="351" on="0"/>
        <pt x="-9" y="333" on="1"/>
        <pt x="-20" y="318" on="0"/>
        <pt x="-38" y="293" on="0"/>
        <pt x="-41" y="293" on="1"/>
        <pt x="-44" y="293" on="0"/>
        <pt x="-73" y="313" on="0"/>
        <pt x="-105" y="337" on="0"/>
        <pt x="-131" y="360" on="0"/>
        <pt x="-131" y="363" on="1"/>
        <pt x="-131" y="367" on="0"/>
        <pt x="-112" y="398" on="0"/>
        <pt x="-89" y="433" on="0"/>
        <pt x="-68" y="461" on="0"/>
        <pt x="-66" y="461" on="1"/>
        <pt x="-61" y="461" on="0"/>
        <pt x="-35" y="442" on="0"/>
        <pt x="-21" y="431" on="1"/>
        <pt x="-4" y="418" on="0"/>
        <pt x="16" y="400" on="1"/>
        <pt x="22" y="395" on="0"/>
        <pt x="28" y="394" on="0"/>
        <pt x="34" y="402" on="1"/>
        <pt x="50" y="423" on="0"/>
        <pt x="62" y="441" on="1"/>
        <pt x="73" y="456" on="0"/>
        <pt x="92" y="480" on="0"/>
        <pt x="94" y="480" on="1"/>
        <pt x="97" y="480" on="0"/>
        <pt x="126" y="460" on="0"/>
        <pt x="158" y="435" on="0"/>
        <pt x="184" y="412" on="0"/>
      </contour>
      <contour>
        <pt x="702" y="379" on="1"/>
        <pt x="694" y="359" on="0"/>
        <pt x="676" y="330" on="0"/>
        <pt x="662" y="326" on="1"/>
        <pt x="621" y="313" on="0"/>
        <pt x="506" y="265" on="0"/>
        <pt x="375" y="205" on="0"/>
        <pt x="241" y="138" on="0"/>
        <pt x="122" y="74" on="0"/>
        <pt x="28" y="20" on="0"/>
        <pt x="3" y="2" on="1"/>
        <pt x="0" y="-1" on="0"/>
        <pt x="-3" y="-1" on="1"/>
        <pt x="-5" y="-1" on="0"/>
        <pt x="-5" y="2" on="1"/>
        <pt x="-5" y="7" on="0"/>
        <pt x="6" y="32" on="0"/>
        <pt x="21" y="61" on="0"/>
        <pt x="36" y="86" on="0"/>
        <pt x="41" y="90" on="1"/>
        <pt x="71" y="119" on="0"/>
        <pt x="164" y="186" on="0"/>
        <pt x="272" y="252" on="0"/>
        <pt x="384" y="312" on="0"/>
        <pt x="434" y="336" on="1"/>
        <pt x="446" y="342" on="0"/>
        <pt x="497" y="363" on="0"/>
        <pt x="559" y="389" on="0"/>
        <pt x="626" y="415" on="0"/>
        <pt x="682" y="437" on="0"/>
        <pt x="720" y="451" on="0"/>
        <pt x="722" y="451" on="1"/>
        <pt x="730" y="451" on="0"/>
        <pt x="730" y="442" on="1"/>
        <pt x="727" y="436" on="0"/>
        <pt x="721" y="424" on="0"/>
        <pt x="719" y="419" on="1"/>
      </contour>
    </TTGlyph>
    <TTGlyph name="_gafBarShort_dot3u" xMin="-152" yMin="-1" xMax="730" yMax="613">
      <contour>
        <pt x="61" y="543" on="1"/>
        <pt x="61" y="540" on="0"/>
        <pt x="44" y="509" on="0"/>
        <pt x="21" y="475" on="0"/>
        <pt x="0" y="447" on="0"/>
        <pt x="-4" y="447" on="1"/>
        <pt x="-7" y="447" on="0"/>
        <pt x="-37" y="465" on="0"/>
        <pt x="-69" y="488" on="0"/>
        <pt x="-95" y="510" on="0"/>
        <pt x="-95" y="514" on="1"/>
        <pt x="-95" y="518" on="0"/>
        <pt x="-77" y="550" on="0"/>
        <pt x="-53" y="585" on="0"/>
        <pt x="-32" y="613" on="0"/>
        <pt x="-29" y="613" on="1"/>
        <pt x="-25" y="613" on="0"/>
        <pt x="5" y="593" on="0"/>
        <pt x="36" y="569" on="0"/>
        <pt x="61" y="546" on="0"/>
      </contour>
      <contour>
        <pt x="163" y="369" on="1"/>
        <pt x="163" y="365" on="0"/>
        <pt x="146" y="334" on="0"/>
        <pt x="123" y="299" on="0"/>
        <pt x="102" y="271" on="0"/>
        <pt x="98" y="271" on="1"/>
        <pt x="96" y="271" on="0"/>
        <pt x="69" y="291" on="0"/>
        <pt x="53" y="302" on="1"/>
        <pt x="35" y="315" on="0"/>
        <pt x="12" y="332" on="1"/>
        <pt x="7" y="337" on="0"/>
        <pt x="1" y="335" on="0"/>
        <pt x="-2" y="332" on="1"/>
        <pt x="-17" y="311" on="0"/>
        <pt x="-29" y="293" on="1"/>
        <pt x="-40" y="278" on="0"/>
        <pt x="-59" y="254" on="0"/>
        <pt x="-62" y="254" on="1"/>
        <pt x="-65" y="254" on="0"/>
        <pt x="-94" y="273" on="0"/>
        <pt x="-126" y="297" on="0"/>
        <pt x="-152" y="319" on="0"/>
        <pt x="-152" y="322" on="1"/>
        <pt x="-152" y="326" on="0"/>
        <pt x="-133" y="357" on="0"/>
        <pt x="-110" y="392" on="0"/>
        <pt x="-89" y="420" on="0"/>
        <pt x="-86" y="420" on="1"/>
        <pt x="-81" y="420" on="0"/>
        <pt x="-55" y="401" on="0"/>
        <pt x="-41" y="390" on="1"/>
        <pt x="-24" y="377" on="0"/>
        <pt x="-4" y="359" on="1"/>
        <pt x="2" y="354" on="0"/>
        <pt x="7" y="353" on="0"/>
        <pt x="12" y="361" on="1"/>
        <pt x="40" y="399" on="1"/>
        <pt x="51" y="413" on="0"/>
        <pt x="70" y="437" on="0"/>
        <pt x="73" y="437" on="1"/>
        <pt x="75" y="437" on="0"/>
        <pt x="104" y="417" on="0"/>
        <pt x="137" y="393" on="0"/>
        <pt x="163" y="371" on="0"/>
      </contour>
      <contour>
        <pt x="702" y="379" on="1"/>
        <pt x="694" y="359" on="0"/>
        <pt x="676" y="330" on="0"/>
        <pt x="662" y="326" on="1"/>
        <pt x="621" y="313" on="0"/>
        <pt x="506" y="265" on="0"/>
        <pt x="375" y="205" on="0"/>
        <pt x="241" y="138" on="0"/>
        <pt x="122" y="74" on="0"/>
        <pt x="28" y="20" on="0"/>
        <pt x="3" y="2" on="1"/>
        <pt x="0" y="-1" on="0"/>
        <pt x="-3" y="-1" on="1"/>
        <pt x="-5" y="-1" on="0"/>
        <pt x="-5" y="2" on="1"/>
        <pt x="-5" y="7" on="0"/>
        <pt x="6" y="32" on="0"/>
        <pt x="21" y="61" on="0"/>
        <pt x="36" y="86" on="0"/>
        <pt x="41" y="90" on="1"/>
        <pt x="71" y="119" on="0"/>
        <pt x="164" y="186" on="0"/>
        <pt x="272" y="252" on="0"/>
        <pt x="384" y="312" on="0"/>
        <pt x="434" y="336" on="1"/>
        <pt x="446" y="342" on="0"/>
        <pt x="497" y="363" on="0"/>
        <pt x="559" y="389" on="0"/>
        <pt x="626" y="415" on="0"/>
        <pt x="682" y="437" on="0"/>
        <pt x="720" y="451" on="0"/>
        <pt x="722" y="451" on="1"/>
        <pt x="730" y="451" on="0"/>
        <pt x="730" y="442" on="1"/>
        <pt x="727" y="436" on="0"/>
        <pt x="721" y="424" on="0"/>
        <pt x="719" y="419" on="1"/>
      </contour>
    </TTGlyph>
    <TTGlyph name="_gafBar_dot2h" xMin="-131" yMin="-1" xMax="750" yMax="511">
      <contour>
        <pt x="184" y="410" on="1"/>
        <pt x="184" y="406" on="0"/>
        <pt x="166" y="375" on="0"/>
        <pt x="144" y="340" on="0"/>
        <pt x="122" y="312" on="0"/>
        <pt x="118" y="312" on="1"/>
        <pt x="116" y="312" on="0"/>
        <pt x="89" y="332" on="0"/>
        <pt x="74" y="343" on="1"/>
        <pt x="34" y="373" on="1"/>
        <pt x="28" y="378" on="0"/>
        <pt x="21" y="376" on="0"/>
        <pt x="18" y="373" on="1"/>
        <pt x="3" y="351" on="0"/>
        <pt x="-9" y="333" on="1"/>
        <pt x="-20" y="318" on="0"/>
        <pt x="-38" y="293" on="0"/>
        <pt x="-41" y="293" on="1"/>
        <pt x="-44" y="293" on="0"/>
        <pt x="-73" y="313" on="0"/>
        <pt x="-105" y="337" on="0"/>
        <pt x="-131" y="360" on="0"/>
        <pt x="-131" y="363" on="1"/>
        <pt x="-131" y="367" on="0"/>
        <pt x="-112" y="398" on="0"/>
        <pt x="-89" y="433" on="0"/>
        <pt x="-68" y="461" on="0"/>
        <pt x="-66" y="461" on="1"/>
        <pt x="-61" y="461" on="0"/>
        <pt x="-35" y="442" on="0"/>
        <pt x="-21" y="431" on="1"/>
        <pt x="-4" y="418" on="0"/>
        <pt x="16" y="400" on="1"/>
        <pt x="22" y="395" on="0"/>
        <pt x="28" y="394" on="0"/>
        <pt x="34" y="402" on="1"/>
        <pt x="50" y="423" on="0"/>
        <pt x="62" y="441" on="1"/>
        <pt x="73" y="456" on="0"/>
        <pt x="92" y="480" on="0"/>
        <pt x="94" y="480" on="1"/>
        <pt x="97" y="480" on="0"/>
        <pt x="126" y="460" on="0"/>
        <pt x="158" y="435" on="0"/>
        <pt x="184" y="412" on="0"/>
      </contour>
      <contour>
        <pt x="722" y="429" on="1"/>
        <pt x="714" y="409" on="0"/>
        <pt x="696" y="381" on="0"/>
        <pt x="682" y="376" on="1"/>
        <pt x="645" y="362" on="0"/>
        <pt x="535" y="308" on="0"/>
        <pt x="408" y="242" on="0"/>
        <pt x="274" y="166" on="0"/>
        <pt x="148" y="93" on="0"/>
        <pt x="40" y="27" on="0"/>
        <pt x="3" y="2" on="1"/>
        <pt x="0" y="-1" on="0"/>
        <pt x="-3" y="-1" on="1"/>
        <pt x="-5" y="-1" on="0"/>
        <pt x="-5" y="2" on="1"/>
        <pt x="-5" y="7" on="0"/>
        <pt x="6" y="32" on="0"/>
        <pt x="21" y="61" on="0"/>
        <pt x="36" y="86" on="0"/>
        <pt x="41" y="90" on="1"/>
        <pt x="84" y="131" on="0"/>
        <pt x="191" y="212" on="0"/>
        <pt x="308" y="288" on="0"/>
        <pt x="430" y="359" on="0"/>
        <pt x="487" y="391" on="1"/>
        <pt x="499" y="398" on="0"/>
        <pt x="544" y="420" on="0"/>
        <pt x="599" y="447" on="0"/>
        <pt x="657" y="475" on="0"/>
        <pt x="706" y="497" on="0"/>
        <pt x="740" y="511" on="0"/>
        <pt x="742" y="511" on="1"/>
        <pt x="750" y="511" on="0"/>
        <pt x="750" y="502" on="1"/>
        <pt x="747" y="496" on="0"/>
        <pt x="742" y="484" on="0"/>
        <pt x="740" y="479" on="1"/>
      </contour>
    </TTGlyph>
    <TTGlyph name="_gafBar_dot3u" xMin="-152" yMin="-1" xMax="750" yMax="613">
      <contour>
        <pt x="61" y="543" on="1"/>
        <pt x="61" y="540" on="0"/>
        <pt x="44" y="509" on="0"/>
        <pt x="21" y="475" on="0"/>
        <pt x="0" y="447" on="0"/>
        <pt x="-4" y="447" on="1"/>
        <pt x="-7" y="447" on="0"/>
        <pt x="-37" y="465" on="0"/>
        <pt x="-69" y="488" on="0"/>
        <pt x="-95" y="510" on="0"/>
        <pt x="-95" y="514" on="1"/>
        <pt x="-95" y="518" on="0"/>
        <pt x="-77" y="550" on="0"/>
        <pt x="-53" y="585" on="0"/>
        <pt x="-32" y="613" on="0"/>
        <pt x="-29" y="613" on="1"/>
        <pt x="-25" y="613" on="0"/>
        <pt x="5" y="593" on="0"/>
        <pt x="36" y="569" on="0"/>
        <pt x="61" y="546" on="0"/>
      </contour>
      <contour>
        <pt x="163" y="369" on="1"/>
        <pt x="163" y="365" on="0"/>
        <pt x="146" y="334" on="0"/>
        <pt x="123" y="299" on="0"/>
        <pt x="102" y="271" on="0"/>
        <pt x="98" y="271" on="1"/>
        <pt x="96" y="271" on="0"/>
        <pt x="69" y="291" on="0"/>
        <pt x="53" y="302" on="1"/>
        <pt x="35" y="315" on="0"/>
        <pt x="12" y="332" on="1"/>
        <pt x="7" y="337" on="0"/>
        <pt x="1" y="335" on="0"/>
        <pt x="-2" y="332" on="1"/>
        <pt x="-17" y="311" on="0"/>
        <pt x="-29" y="293" on="1"/>
        <pt x="-40" y="278" on="0"/>
        <pt x="-59" y="254" on="0"/>
        <pt x="-62" y="254" on="1"/>
        <pt x="-65" y="254" on="0"/>
        <pt x="-94" y="273" on="0"/>
        <pt x="-126" y="297" on="0"/>
        <pt x="-152" y="319" on="0"/>
        <pt x="-152" y="322" on="1"/>
        <pt x="-152" y="326" on="0"/>
        <pt x="-133" y="357" on="0"/>
        <pt x="-110" y="392" on="0"/>
        <pt x="-89" y="420" on="0"/>
        <pt x="-86" y="420" on="1"/>
        <pt x="-81" y="420" on="0"/>
        <pt x="-55" y="401" on="0"/>
        <pt x="-41" y="390" on="1"/>
        <pt x="-24" y="377" on="0"/>
        <pt x="-4" y="359" on="1"/>
        <pt x="2" y="354" on="0"/>
        <pt x="7" y="353" on="0"/>
        <pt x="12" y="361" on="1"/>
        <pt x="40" y="399" on="1"/>
        <pt x="51" y="413" on="0"/>
        <pt x="70" y="437" on="0"/>
        <pt x="73" y="437" on="1"/>
        <pt x="75" y="437" on="0"/>
        <pt x="104" y="417" on="0"/>
        <pt x="137" y="393" on="0"/>
        <pt x="163" y="371" on="0"/>
      </contour>
      <contour>
        <pt x="722" y="429" on="1"/>
        <pt x="714" y="409" on="0"/>
        <pt x="696" y="381" on="0"/>
        <pt x="682" y="376" on="1"/>
        <pt x="645" y="362" on="0"/>
        <pt x="535" y="308" on="0"/>
        <pt x="408" y="242" on="0"/>
        <pt x="274" y="166" on="0"/>
        <pt x="148" y="93" on="0"/>
        <pt x="40" y="27" on="0"/>
        <pt x="3" y="2" on="1"/>
        <pt x="0" y="-1" on="0"/>
        <pt x="-3" y="-1" on="1"/>
        <pt x="-5" y="-1" on="0"/>
        <pt x="-5" y="2" on="1"/>
        <pt x="-5" y="7" on="0"/>
        <pt x="6" y="32" on="0"/>
        <pt x="21" y="61" on="0"/>
        <pt x="36" y="86" on="0"/>
        <pt x="41" y="90" on="1"/>
        <pt x="84" y="131" on="0"/>
        <pt x="191" y="212" on="0"/>
        <pt x="308" y="288" on="0"/>
        <pt x="430" y="359" on="0"/>
        <pt x="487" y="391" on="1"/>
        <pt x="499" y="398" on="0"/>
        <pt x="544" y="420" on="0"/>
        <pt x="599" y="447" on="0"/>
        <pt x="657" y="475" on="0"/>
        <pt x="706" y="497" on="0"/>
        <pt x="740" y="511" on="0"/>
        <pt x="742" y="511" on="1"/>
        <pt x="750" y="511" on="0"/>
        <pt x="750" y="502" on="1"/>
        <pt x="747" y="496" on="0"/>
        <pt x="742" y="484" on="0"/>
        <pt x="740" y="479" on="1"/>
      </contour>
    </TTGlyph>
    <TTGlyph name="_hamza" xMin="-137" yMin="-128" xMax="140" yMax="191">
      <contour>
        <pt x="140" y="21" on="1"/>
        <pt x="140" y="18" on="0"/>
        <pt x="135" y="0" on="0"/>
        <pt x="125" y="-19" on="0"/>
        <pt x="112" y="-37" on="0"/>
        <pt x="103" y="-40" on="1"/>
        <pt x="89" y="-43" on="0"/>
        <pt x="16" y="-70" on="0"/>
        <pt x="-24" y="-87" on="1"/>
        <pt x="-73" y="-106" on="0"/>
        <pt x="-120" y="-128" on="0"/>
        <pt x="-128" y="-128" on="1"/>
        <pt x="-131" y="-128" on="0"/>
        <pt x="-137" y="-123" on="0"/>
        <pt x="-137" y="-120" on="1"/>
        <pt x="-137" y="-116" on="0"/>
        <pt x="-131" y="-101" on="0"/>
        <pt x="-122" y="-85" on="0"/>
        <pt x="-113" y="-70" on="0"/>
        <pt x="-110" y="-67" on="1"/>
        <pt x="-108" y="-64" on="0"/>
        <pt x="-95" y="-55" on="0"/>
        <pt x="-80" y="-47" on="0"/>
        <pt x="-66" y="-40" on="0"/>
        <pt x="-61" y="-38" on="1"/>
        <pt x="-69" y="-35" on="0"/>
        <pt x="-89" y="-24" on="0"/>
        <pt x="-106" y="-8" on="0"/>
        <pt x="-118" y="13" on="0"/>
        <pt x="-118" y="27" on="1"/>
        <pt x="-118" y="52" on="0"/>
        <pt x="-75" y="115" on="0"/>
        <pt x="-51" y="140" on="1"/>
        <pt x="-31" y="160" on="0"/>
        <pt x="-4" y="181" on="0"/>
        <pt x="17" y="190" on="0"/>
        <pt x="35" y="191" on="0"/>
        <pt x="46" y="191" on="1"/>
        <pt x="66" y="191" on="0"/>
        <pt x="87" y="154" on="0"/>
        <pt x="87" y="136" on="1"/>
        <pt x="87" y="130" on="0"/>
        <pt x="81" y="110" on="0"/>
        <pt x="73" y="89" on="0"/>
        <pt x="64" y="74" on="0"/>
        <pt x="62" y="74" on="1"/>
        <pt x="58" y="74" on="0"/>
        <pt x="42" y="81" on="0"/>
        <pt x="21" y="90" on="0"/>
        <pt x="-1" y="97" on="0"/>
        <pt x="-10" y="97" on="1"/>
        <pt x="-28" y="97" on="0"/>
        <pt x="-59" y="73" on="0"/>
        <pt x="-59" y="62" on="1"/>
        <pt x="-59" y="59" on="0"/>
        <pt x="-36" y="42" on="0"/>
        <pt x="-3" y="24" on="0"/>
        <pt x="35" y="9" on="0"/>
        <pt x="50" y="7" on="1"/>
        <pt x="62" y="10" on="0"/>
        <pt x="89" y="16" on="0"/>
        <pt x="113" y="22" on="0"/>
        <pt x="131" y="25" on="0"/>
        <pt x="134" y="25" on="1"/>
        <pt x="140" y="25" on="0"/>
      </contour>
    </TTGlyph>
    <TTGlyph name="_hamzaDamma" xMin="-361" yMin="-70" xMax="302" yMax="381">
      <contour>
        <pt x="302" y="211" on="1"/>
        <pt x="302" y="209" on="0"/>
        <pt x="297" y="191" on="0"/>
        <pt x="287" y="172" on="0"/>
        <pt x="274" y="154" on="0"/>
        <pt x="265" y="152" on="1"/>
        <pt x="251" y="147" on="0"/>
        <pt x="178" y="120" on="0"/>
        <pt x="138" y="104" on="1"/>
        <pt x="89" y="84" on="0"/>
        <pt x="42" y="61" on="0"/>
        <pt x="34" y="61" on="1"/>
        <pt x="31" y="61" on="0"/>
        <pt x="26" y="68" on="0"/>
        <pt x="26" y="70" on="1"/>
        <pt x="26" y="74" on="0"/>
        <pt x="32" y="89" on="0"/>
        <pt x="40" y="106" on="0"/>
        <pt x="49" y="120" on="0"/>
        <pt x="52" y="123" on="1"/>
        <pt x="54" y="126" on="0"/>
        <pt x="67" y="135" on="0"/>
        <pt x="82" y="145" on="0"/>
        <pt x="97" y="153" on="0"/>
        <pt x="101" y="154" on="1"/>
        <pt x="93" y="156" on="0"/>
        <pt x="73" y="166" on="0"/>
        <pt x="56" y="182" on="0"/>
        <pt x="44" y="203" on="0"/>
        <pt x="44" y="217" on="1"/>
        <pt x="44" y="229" on="0"/>
        <pt x="56" y="259" on="0"/>
        <pt x="75" y="289" on="0"/>
        <pt x="100" y="318" on="0"/>
        <pt x="112" y="330" on="1"/>
        <pt x="132" y="350" on="0"/>
        <pt x="159" y="371" on="0"/>
        <pt x="179" y="380" on="0"/>
        <pt x="197" y="381" on="0"/>
        <pt x="208" y="381" on="1"/>
        <pt x="228" y="381" on="0"/>
        <pt x="249" y="344" on="0"/>
        <pt x="249" y="326" on="1"/>
        <pt x="249" y="320" on="0"/>
        <pt x="243" y="300" on="0"/>
        <pt x="235" y="279" on="0"/>
        <pt x="226" y="264" on="0"/>
        <pt x="224" y="264" on="1"/>
        <pt x="220" y="264" on="0"/>
        <pt x="204" y="271" on="0"/>
        <pt x="184" y="280" on="0"/>
        <pt x="162" y="287" on="0"/>
        <pt x="153" y="287" on="1"/>
        <pt x="134" y="287" on="0"/>
        <pt x="103" y="265" on="0"/>
        <pt x="103" y="254" on="1"/>
        <pt x="103" y="250" on="0"/>
        <pt x="126" y="233" on="0"/>
        <pt x="159" y="214" on="0"/>
        <pt x="197" y="199" on="0"/>
        <pt x="212" y="197" on="1"/>
        <pt x="224" y="201" on="0"/>
        <pt x="251" y="207" on="0"/>
        <pt x="275" y="212" on="0"/>
        <pt x="293" y="215" on="0"/>
        <pt x="296" y="215" on="1"/>
        <pt x="302" y="218" on="0"/>
      </contour>
      <contour>
        <pt x="-25" y="104" on="1"/>
        <pt x="-25" y="99" on="0"/>
        <pt x="-31" y="76" on="0"/>
        <pt x="-34" y="63" on="1"/>
        <pt x="-37" y="46" on="0"/>
        <pt x="-41" y="20" on="0"/>
        <pt x="-44" y="20" on="1"/>
        <pt x="-58" y="20" on="0"/>
        <pt x="-99" y="49" on="0"/>
        <pt x="-122" y="67" on="1"/>
        <pt x="-174" y="-2" on="0"/>
        <pt x="-262" y="-70" on="0"/>
        <pt x="-296" y="-70" on="1"/>
        <pt x="-311" y="-70" on="0"/>
        <pt x="-347" y="-64" on="0"/>
        <pt x="-361" y="-56" on="1"/>
        <pt x="-338" y="-43" on="0"/>
        <pt x="-284" y="-9" on="0"/>
        <pt x="-230" y="30" on="0"/>
        <pt x="-182" y="74" on="0"/>
        <pt x="-165" y="98" on="1"/>
        <pt x="-193" y="117" on="0"/>
        <pt x="-220" y="154" on="0"/>
        <pt x="-220" y="182" on="1"/>
        <pt x="-220" y="203" on="0"/>
        <pt x="-200" y="259" on="0"/>
        <pt x="-169" y="310" on="0"/>
        <pt x="-128" y="346" on="0"/>
        <pt x="-107" y="346" on="1"/>
        <pt x="-72" y="346" on="0"/>
        <pt x="-40" y="289" on="0"/>
        <pt x="-40" y="252" on="1"/>
        <pt x="-40" y="223" on="0"/>
        <pt x="-59" y="168" on="0"/>
        <pt x="-70" y="143" on="1"/>
        <pt x="-65" y="138" on="0"/>
        <pt x="-49" y="127" on="0"/>
        <pt x="-35" y="116" on="0"/>
        <pt x="-25" y="107" on="0"/>
      </contour>
      <contour>
        <pt x="-105" y="209" on="1"/>
        <pt x="-105" y="226" on="0"/>
        <pt x="-132" y="256" on="0"/>
        <pt x="-150" y="256" on="1"/>
        <pt x="-165" y="256" on="0"/>
        <pt x="-165" y="241" on="1"/>
        <pt x="-165" y="232" on="0"/>
        <pt x="-140" y="196" on="0"/>
        <pt x="-116" y="176" on="1"/>
        <pt x="-112" y="184" on="0"/>
        <pt x="-105" y="198" on="0"/>
      </contour>
    </TTGlyph>
    <TTGlyph name="_hat" xMin="-198" yMin="-88" xMax="203" yMax="131">
      <contour>
        <pt x="-198" y="-80" on="1"/>
        <pt x="-198" y="-75" on="0"/>
        <pt x="-167" y="-28" on="0"/>
        <pt x="-123" y="32" on="0"/>
        <pt x="-73" y="93" on="0"/>
        <pt x="-55" y="111" on="1"/>
        <pt x="-47" y="120" on="0"/>
        <pt x="-35" y="131" on="0"/>
        <pt x="-28" y="131" on="1"/>
        <pt x="29" y="131" on="1"/>
        <pt x="35" y="131" on="0"/>
        <pt x="48" y="118" on="0"/>
        <pt x="58" y="109" on="1"/>
        <pt x="76" y="90" on="0"/>
        <pt x="125" y="28" on="0"/>
        <pt x="171" y="-32" on="0"/>
        <pt x="203" y="-78" on="0"/>
        <pt x="203" y="-80" on="1"/>
        <pt x="203" y="-85" on="0"/>
        <pt x="195" y="-88" on="1"/>
        <pt x="160" y="-88" on="1"/>
        <pt x="157" y="-88" on="0"/>
        <pt x="133" y="-68" on="0"/>
        <pt x="100" y="-37" on="0"/>
        <pt x="62" y="-2" on="0"/>
        <pt x="29" y="29" on="0"/>
        <pt x="4" y="49" on="0"/>
        <pt x="0" y="49" on="1"/>
        <pt x="-3" y="49" on="0"/>
        <pt x="-28" y="29" on="0"/>
        <pt x="-62" y="-2" on="0"/>
        <pt x="-99" y="-37" on="0"/>
        <pt x="-133" y="-68" on="0"/>
        <pt x="-158" y="-88" on="0"/>
        <pt x="-161" y="-88" on="1"/>
        <pt x="-192" y="-88" on="1"/>
        <pt x="-198" y="-88" on="0"/>
        <pt x="-198" y="-82" on="0"/>
      </contour>
    </TTGlyph>
    <TTGlyph name="_highHamza" xMin="36" yMin="52" xMax="313" yMax="371">
      <contour>
        <pt x="313" y="201" on="1"/>
        <pt x="313" y="198" on="0"/>
        <pt x="308" y="180" on="0"/>
        <pt x="298" y="161" on="0"/>
        <pt x="285" y="143" on="0"/>
        <pt x="276" y="140" on="1"/>
        <pt x="262" y="137" on="0"/>
        <pt x="189" y="110" on="0"/>
        <pt x="149" y="93" on="1"/>
        <pt x="100" y="74" on="0"/>
        <pt x="53" y="52" on="0"/>
        <pt x="45" y="52" on="1"/>
        <pt x="42" y="52" on="0"/>
        <pt x="36" y="57" on="0"/>
        <pt x="36" y="60" on="1"/>
        <pt x="36" y="64" on="0"/>
        <pt x="42" y="79" on="0"/>
        <pt x="51" y="96" on="0"/>
        <pt x="60" y="110" on="0"/>
        <pt x="63" y="113" on="1"/>
        <pt x="65" y="116" on="0"/>
        <pt x="78" y="125" on="0"/>
        <pt x="93" y="133" on="0"/>
        <pt x="108" y="141" on="0"/>
        <pt x="112" y="142" on="1"/>
        <pt x="104" y="145" on="0"/>
        <pt x="84" y="156" on="0"/>
        <pt x="67" y="172" on="0"/>
        <pt x="55" y="193" on="0"/>
        <pt x="55" y="207" on="1"/>
        <pt x="55" y="232" on="0"/>
        <pt x="98" y="295" on="0"/>
        <pt x="122" y="320" on="1"/>
        <pt x="142" y="340" on="0"/>
        <pt x="169" y="361" on="0"/>
        <pt x="190" y="370" on="0"/>
        <pt x="208" y="371" on="0"/>
        <pt x="219" y="371" on="1"/>
        <pt x="239" y="371" on="0"/>
        <pt x="260" y="334" on="0"/>
        <pt x="260" y="316" on="1"/>
        <pt x="260" y="310" on="0"/>
        <pt x="254" y="290" on="0"/>
        <pt x="246" y="269" on="0"/>
        <pt x="237" y="254" on="0"/>
        <pt x="235" y="254" on="1"/>
        <pt x="231" y="254" on="0"/>
        <pt x="215" y="261" on="0"/>
        <pt x="194" y="270" on="0"/>
        <pt x="172" y="277" on="0"/>
        <pt x="163" y="277" on="1"/>
        <pt x="145" y="277" on="0"/>
        <pt x="114" y="253" on="0"/>
        <pt x="114" y="242" on="1"/>
        <pt x="114" y="239" on="0"/>
        <pt x="137" y="222" on="0"/>
        <pt x="170" y="204" on="0"/>
        <pt x="208" y="189" on="0"/>
        <pt x="223" y="187" on="1"/>
        <pt x="235" y="190" on="0"/>
        <pt x="262" y="196" on="0"/>
        <pt x="286" y="202" on="0"/>
        <pt x="304" y="205" on="0"/>
        <pt x="307" y="205" on="1"/>
        <pt x="313" y="205" on="0"/>
      </contour>
    </TTGlyph>
    <TTGlyph name="_invSmallV" xMin="-181" yMin="-113" xMax="180" yMax="106">
      <contour>
        <pt x="-181" y="-105" on="1"/>
        <pt x="-181" y="-100" on="0"/>
        <pt x="-156" y="-53" on="0"/>
        <pt x="-119" y="7" on="0"/>
        <pt x="-76" y="68" on="0"/>
        <pt x="-58" y="86" on="1"/>
        <pt x="-50" y="95" on="0"/>
        <pt x="-38" y="106" on="0"/>
        <pt x="-31" y="106" on="1"/>
        <pt x="26" y="106" on="1"/>
        <pt x="32" y="106" on="0"/>
        <pt x="45" y="93" on="0"/>
        <pt x="55" y="84" on="1"/>
        <pt x="73" y="65" on="0"/>
        <pt x="116" y="3" on="0"/>
        <pt x="154" y="-57" on="0"/>
        <pt x="180" y="-103" on="0"/>
        <pt x="180" y="-105" on="1"/>
        <pt x="180" y="-110" on="0"/>
        <pt x="172" y="-113" on="1"/>
        <pt x="137" y="-113" on="1"/>
        <pt x="134" y="-113" on="0"/>
        <pt x="113" y="-93" on="0"/>
        <pt x="84" y="-62" on="0"/>
        <pt x="52" y="-27" on="0"/>
        <pt x="23" y="4" on="0"/>
        <pt x="1" y="24" on="0"/>
        <pt x="-3" y="24" on="1"/>
        <pt x="-7" y="24" on="0"/>
        <pt x="-28" y="4" on="0"/>
        <pt x="-57" y="-27" on="0"/>
        <pt x="-90" y="-62" on="0"/>
        <pt x="-119" y="-93" on="0"/>
        <pt x="-141" y="-113" on="0"/>
        <pt x="-144" y="-113" on="1"/>
        <pt x="-175" y="-113" on="1"/>
        <pt x="-181" y="-113" on="0"/>
        <pt x="-181" y="-107" on="0"/>
      </contour>
    </TTGlyph>
    <TTGlyph name="_lines" xMin="-35" yMin="-81" xMax="217" yMax="226">
      <contour>
        <pt x="39" y="-36" on="1"/>
        <pt x="-35" y="-81" on="1"/>
        <pt x="-35" y="181" on="1"/>
        <pt x="39" y="226" on="1"/>
      </contour>
      <contour>
        <pt x="217" y="-36" on="1"/>
        <pt x="143" y="-81" on="1"/>
        <pt x="143" y="181" on="1"/>
        <pt x="217" y="226" on="1"/>
      </contour>
    </TTGlyph>
    <TTGlyph name="_madda" xMin="-301" yMin="-116" xMax="383" yMax="107">
      <contour>
        <pt x="383" y="82" on="1"/>
        <pt x="383" y="68" on="0"/>
        <pt x="339" y="37" on="0"/>
        <pt x="269" y="7" on="0"/>
        <pt x="183" y="-21" on="0"/>
        <pt x="96" y="-42" on="0"/>
        <pt x="19" y="-55" on="0"/>
        <pt x="-6" y="-55" on="1"/>
        <pt x="-32" y="-55" on="0"/>
        <pt x="-97" y="-53" on="0"/>
        <pt x="-126" y="-51" on="1"/>
        <pt x="-159" y="-49" on="0"/>
        <pt x="-193" y="-47" on="1"/>
        <pt x="-202" y="-47" on="0"/>
        <pt x="-208" y="-69" on="0"/>
        <pt x="-212" y="-94" on="0"/>
        <pt x="-219" y="-116" on="0"/>
        <pt x="-230" y="-116" on="1"/>
        <pt x="-243" y="-116" on="0"/>
        <pt x="-269" y="-93" on="0"/>
        <pt x="-289" y="-60" on="0"/>
        <pt x="-301" y="-24" on="0"/>
        <pt x="-301" y="-12" on="1"/>
        <pt x="-301" y="12" on="0"/>
        <pt x="-281" y="42" on="0"/>
        <pt x="-250" y="60" on="0"/>
        <pt x="-213" y="66" on="0"/>
        <pt x="-197" y="66" on="1"/>
        <pt x="-185" y="66" on="0"/>
        <pt x="-141" y="62" on="0"/>
        <pt x="-86" y="58" on="0"/>
        <pt x="-23" y="54" on="0"/>
        <pt x="8" y="54" on="1"/>
        <pt x="94" y="54" on="0"/>
        <pt x="220" y="71" on="0"/>
        <pt x="306" y="90" on="0"/>
        <pt x="355" y="107" on="0"/>
        <pt x="362" y="107" on="1"/>
        <pt x="383" y="107" on="0"/>
      </contour>
    </TTGlyph>
    <TTGlyph name="_ring" xMin="-119" yMin="-158" xMax="133" yMax="141">
      <contour>
        <pt x="133" y="4" on="1"/>
        <pt x="133" y="-29" on="0"/>
        <pt x="110" y="-88" on="0"/>
        <pt x="69" y="-132" on="0"/>
        <pt x="13" y="-158" on="0"/>
        <pt x="-20" y="-158" on="1"/>
        <pt x="-68" y="-158" on="0"/>
        <pt x="-119" y="-89" on="0"/>
        <pt x="-119" y="-15" on="1"/>
        <pt x="-119" y="16" on="0"/>
        <pt x="-98" y="72" on="0"/>
        <pt x="-60" y="115" on="0"/>
        <pt x="-7" y="141" on="0"/>
        <pt x="25" y="141" on="1"/>
        <pt x="47" y="141" on="0"/>
        <pt x="86" y="114" on="0"/>
        <pt x="116" y="73" on="0"/>
        <pt x="133" y="25" on="0"/>
      </contour>
      <contour>
        <pt x="76" y="-27" on="1"/>
        <pt x="76" y="-15" on="0"/>
        <pt x="56" y="15" on="0"/>
        <pt x="26" y="40" on="0"/>
        <pt x="-9" y="57" on="0"/>
        <pt x="-24" y="57" on="1"/>
        <pt x="-50" y="57" on="0"/>
        <pt x="-82" y="17" on="0"/>
        <pt x="-82" y="-6" on="1"/>
        <pt x="-82" y="-18" on="0"/>
        <pt x="-67" y="-38" on="0"/>
        <pt x="-43" y="-52" on="0"/>
        <pt x="-12" y="-60" on="0"/>
        <pt x="4" y="-60" on="1"/>
        <pt x="13" y="-60" on="0"/>
        <pt x="38" y="-54" on="0"/>
        <pt x="61" y="-45" on="0"/>
        <pt x="76" y="-33" on="0"/>
      </contour>
    </TTGlyph>
    <TTGlyph name="_smallV" xMin="-163" yMin="-112" xMax="158" yMax="107">
      <contour>
        <pt x="158" y="99" on="1"/>
        <pt x="158" y="94" on="0"/>
        <pt x="138" y="48" on="0"/>
        <pt x="108" y="-11" on="0"/>
        <pt x="72" y="-72" on="0"/>
        <pt x="55" y="-92" on="1"/>
        <pt x="47" y="-101" on="0"/>
        <pt x="35" y="-112" on="0"/>
        <pt x="28" y="-112" on="1"/>
        <pt x="-29" y="-112" on="1"/>
        <pt x="-41" y="-112" on="0"/>
        <pt x="-58" y="-90" on="1"/>
        <pt x="-74" y="-71" on="0"/>
        <pt x="-111" y="-8" on="0"/>
        <pt x="-142" y="52" on="0"/>
        <pt x="-163" y="97" on="0"/>
        <pt x="-163" y="99" on="1"/>
        <pt x="-163" y="104" on="0"/>
        <pt x="-155" y="107" on="1"/>
        <pt x="-130" y="107" on="1"/>
        <pt x="-127" y="107" on="0"/>
        <pt x="-107" y="85" on="0"/>
        <pt x="-81" y="53" on="0"/>
        <pt x="-51" y="14" on="0"/>
        <pt x="-24" y="-18" on="0"/>
        <pt x="-4" y="-40" on="0"/>
        <pt x="0" y="-40" on="1"/>
        <pt x="4" y="-40" on="0"/>
        <pt x="24" y="-18" on="0"/>
        <pt x="50" y="14" on="0"/>
        <pt x="81" y="53" on="0"/>
        <pt x="107" y="85" on="0"/>
        <pt x="128" y="107" on="0"/>
        <pt x="131" y="107" on="1"/>
        <pt x="152" y="107" on="1"/>
        <pt x="158" y="107" on="0"/>
        <pt x="158" y="101" on="0"/>
      </contour>
    </TTGlyph>
    <TTGlyph name="_tah" xMin="-242" yMin="-107" xMax="194" yMax="403">
      <contour>
        <pt x="194" y="63" on="1"/>
        <pt x="194" y="31" on="0"/>
        <pt x="158" y="-19" on="0"/>
        <pt x="99" y="-56" on="0"/>
        <pt x="24" y="-83" on="0"/>
        <pt x="-55" y="-99" on="0"/>
        <pt x="-130" y="-107" on="0"/>
        <pt x="-160" y="-107" on="1"/>
        <pt x="-171" y="-107" on="0"/>
        <pt x="-199" y="-95" on="0"/>
        <pt x="-225" y="-77" on="0"/>
        <pt x="-242" y="-58" on="0"/>
        <pt x="-242" y="-50" on="1"/>
        <pt x="-242" y="-45" on="0"/>
        <pt x="-238" y="-45" on="1"/>
        <pt x="-225" y="-45" on="0"/>
        <pt x="-211" y="-47" on="0"/>
        <pt x="-201" y="-48" on="0"/>
        <pt x="-187" y="-50" on="0"/>
        <pt x="-174" y="-50" on="1"/>
        <pt x="-148" y="-50" on="0"/>
        <pt x="-121" y="-37" on="0"/>
        <pt x="-103" y="-19" on="1"/>
        <pt x="-95" y="-3" on="0"/>
        <pt x="-88" y="40" on="0"/>
        <pt x="-88" y="51" on="1"/>
        <pt x="-88" y="78" on="0"/>
        <pt x="-90" y="118" on="0"/>
        <pt x="-93" y="154" on="0"/>
        <pt x="-99" y="189" on="0"/>
        <pt x="-103" y="211" on="1"/>
        <pt x="-109" y="256" on="0"/>
        <pt x="-127" y="326" on="0"/>
        <pt x="-127" y="340" on="1"/>
        <pt x="-127" y="346" on="0"/>
        <pt x="-122" y="367" on="0"/>
        <pt x="-114" y="388" on="0"/>
        <pt x="-104" y="403" on="0"/>
        <pt x="-100" y="403" on="1"/>
        <pt x="-99" y="403" on="0"/>
        <pt x="-86" y="385" on="0"/>
        <pt x="-72" y="363" on="0"/>
        <pt x="-61" y="345" on="0"/>
        <pt x="-62" y="344" on="1"/>
        <pt x="-70" y="337" on="0"/>
        <pt x="-84" y="313" on="0"/>
        <pt x="-84" y="290" on="1"/>
        <pt x="-84" y="282" on="0"/>
        <pt x="-78" y="245" on="0"/>
        <pt x="-70" y="197" on="0"/>
        <pt x="-64" y="143" on="0"/>
        <pt x="-64" y="118" on="1"/>
        <pt x="-64" y="110" on="0"/>
        <pt x="-65" y="84" on="0"/>
        <pt x="-66" y="55" on="0"/>
        <pt x="-69" y="26" on="0"/>
        <pt x="-70" y="14" on="1"/>
        <pt x="-46" y="40" on="0"/>
        <pt x="6" y="86" on="0"/>
        <pt x="57" y="120" on="0"/>
        <pt x="104" y="139" on="0"/>
        <pt x="123" y="139" on="1"/>
        <pt x="157" y="139" on="0"/>
        <pt x="194" y="94" on="0"/>
      </contour>
      <contour>
        <pt x="158" y="32" on="1"/>
        <pt x="158" y="39" on="0"/>
        <pt x="145" y="52" on="0"/>
        <pt x="125" y="61" on="0"/>
        <pt x="102" y="67" on="0"/>
        <pt x="92" y="67" on="1"/>
        <pt x="71" y="67" on="0"/>
        <pt x="26" y="58" on="0"/>
        <pt x="-21" y="33" on="0"/>
        <pt x="-67" y="-11" on="0"/>
        <pt x="-88" y="-45" on="1"/>
        <pt x="-23" y="-41" on="0"/>
        <pt x="70" y="-18" on="0"/>
        <pt x="130" y="8" on="0"/>
        <pt x="158" y="30" on="0"/>
      </contour>
    </TTGlyph>
    <TTGlyph name="_vline" xMin="-40" yMin="-171" xMax="34" yMax="226">
      <contour>
        <pt x="34" y="-126" on="1"/>
        <pt x="-40" y="-171" on="1"/>
        <pt x="-40" y="181" on="1"/>
        <pt x="34" y="226" on="1"/>
      </contour>
    </TTGlyph>
    <TTGlyph name="_wasla" xMin="-207" yMin="-83" xMax="143" yMax="126">
      <contour>
        <pt x="143" y="38" on="1"/>
        <pt x="143" y="29" on="0"/>
        <pt x="126" y="-4" on="0"/>
        <pt x="89" y="-36" on="0"/>
        <pt x="32" y="-60" on="0"/>
        <pt x="-7" y="-60" on="1"/>
        <pt x="-13" y="-60" on="0"/>
        <pt x="-52" y="-59" on="0"/>
        <pt x="-99" y="-57" on="0"/>
        <pt x="-142" y="-56" on="0"/>
        <pt x="-152" y="-56" on="1"/>
        <pt x="-166" y="-56" on="0"/>
        <pt x="-182" y="-60" on="0"/>
        <pt x="-191" y="-66" on="0"/>
        <pt x="-195" y="-74" on="0"/>
        <pt x="-197" y="-77" on="1"/>
        <pt x="-200" y="-83" on="0"/>
        <pt x="-203" y="-83" on="1"/>
        <pt x="-207" y="-83" on="0"/>
        <pt x="-207" y="-74" on="1"/>
        <pt x="-207" y="-67" on="0"/>
        <pt x="-203" y="-47" on="0"/>
        <pt x="-191" y="-28" on="0"/>
        <pt x="-171" y="-12" on="0"/>
        <pt x="-156" y="-7" on="1"/>
        <pt x="-139" y="-2" on="0"/>
        <pt x="-85" y="-1" on="0"/>
        <pt x="-62" y="-1" on="1"/>
        <pt x="-48" y="27" on="0"/>
        <pt x="-21" y="73" on="0"/>
        <pt x="12" y="107" on="0"/>
        <pt x="52" y="126" on="0"/>
        <pt x="79" y="126" on="1"/>
        <pt x="108" y="126" on="0"/>
        <pt x="143" y="86" on="0"/>
      </contour>
      <contour>
        <pt x="90" y="36" on="1"/>
        <pt x="90" y="49" on="0"/>
        <pt x="69" y="63" on="0"/>
        <pt x="51" y="63" on="1"/>
        <pt x="42" y="63" on="0"/>
        <pt x="20" y="50" on="0"/>
        <pt x="-2" y="31" on="0"/>
        <pt x="-21" y="8" on="0"/>
        <pt x="-27" y="-1" on="1"/>
        <pt x="-10" y="-1" on="0"/>
        <pt x="31" y="1" on="0"/>
        <pt x="66" y="9" on="0"/>
        <pt x="90" y="24" on="0"/>
      </contour>
    </TTGlyph>
    <TTGlyph name="_wavyHamza" xMin="-314" yMin="-124" xMax="180" yMax="202">
      <contour>
        <pt x="180" y="32" on="1"/>
        <pt x="180" y="29" on="0"/>
        <pt x="175" y="11" on="0"/>
        <pt x="165" y="-8" on="0"/>
        <pt x="152" y="-26" on="0"/>
        <pt x="143" y="-29" on="1"/>
        <pt x="129" y="-32" on="0"/>
        <pt x="56" y="-59" on="0"/>
        <pt x="16" y="-76" on="1"/>
        <pt x="-33" y="-95" on="0"/>
        <pt x="-96" y="-124" on="0"/>
        <pt x="-121" y="-124" on="1"/>
        <pt x="-138" y="-124" on="0"/>
        <pt x="-163" y="-114" on="0"/>
        <pt x="-185" y="-101" on="0"/>
        <pt x="-207" y="-91" on="0"/>
        <pt x="-222" y="-91" on="1"/>
        <pt x="-237" y="-91" on="0"/>
        <pt x="-263" y="-98" on="0"/>
        <pt x="-284" y="-106" on="0"/>
        <pt x="-299" y="-113" on="0"/>
        <pt x="-303" y="-113" on="1"/>
        <pt x="-311" y="-113" on="0"/>
        <pt x="-314" y="-106" on="0"/>
        <pt x="-314" y="-101" on="1"/>
        <pt x="-314" y="-98" on="0"/>
        <pt x="-294" y="-78" on="0"/>
        <pt x="-261" y="-57" on="0"/>
        <pt x="-220" y="-40" on="0"/>
        <pt x="-199" y="-40" on="1"/>
        <pt x="-177" y="-40" on="0"/>
        <pt x="-149" y="-48" on="0"/>
        <pt x="-130" y="-58" on="0"/>
        <pt x="-114" y="-66" on="0"/>
        <pt x="-103" y="-66" on="1"/>
        <pt x="-92" y="-66" on="0"/>
        <pt x="-71" y="-57" on="0"/>
        <pt x="-51" y="-44" on="0"/>
        <pt x="-31" y="-31" on="0"/>
        <pt x="-21" y="-27" on="1"/>
        <pt x="-29" y="-24" on="0"/>
        <pt x="-49" y="-13" on="0"/>
        <pt x="-66" y="3" on="0"/>
        <pt x="-78" y="24" on="0"/>
        <pt x="-78" y="38" on="1"/>
        <pt x="-78" y="63" on="0"/>
        <pt x="-35" y="126" on="0"/>
        <pt x="-11" y="151" on="1"/>
        <pt x="9" y="171" on="0"/>
        <pt x="36" y="192" on="0"/>
        <pt x="57" y="201" on="0"/>
        <pt x="75" y="202" on="0"/>
        <pt x="86" y="202" on="1"/>
        <pt x="106" y="202" on="0"/>
        <pt x="127" y="165" on="0"/>
        <pt x="127" y="147" on="1"/>
        <pt x="127" y="141" on="0"/>
        <pt x="121" y="121" on="0"/>
        <pt x="113" y="100" on="0"/>
        <pt x="104" y="85" on="0"/>
        <pt x="102" y="85" on="1"/>
        <pt x="98" y="85" on="0"/>
        <pt x="82" y="92" on="0"/>
        <pt x="61" y="101" on="0"/>
        <pt x="39" y="108" on="0"/>
        <pt x="30" y="108" on="1"/>
        <pt x="12" y="108" on="0"/>
        <pt x="-19" y="84" on="0"/>
        <pt x="-19" y="73" on="1"/>
        <pt x="-19" y="70" on="0"/>
        <pt x="4" y="53" on="0"/>
        <pt x="37" y="35" on="0"/>
        <pt x="75" y="20" on="0"/>
        <pt x="90" y="18" on="1"/>
        <pt x="102" y="21" on="0"/>
        <pt x="129" y="27" on="0"/>
        <pt x="153" y="33" on="0"/>
        <pt x="171" y="36" on="0"/>
        <pt x="174" y="36" on="1"/>
        <pt x="180" y="36" on="0"/>
      </contour>
    </TTGlyph>
    <TTGlyph name="_wavyHamza.b" xMin="-314" yMin="-124" xMax="180" yMax="202">
      <component glyphName="_wavyHamza" x="0" y="0" flags="0x204"/>
    </TTGlyph>
    <TTGlyph name="a" xMin="55" yMin="-14" xMax="684" yMax="711">
      <contour>
        <pt x="684" y="100" on="1"/>
        <pt x="670" y="81" on="0"/>
        <pt x="635" y="40" on="0"/>
        <pt x="594" y="7" on="0"/>
        <pt x="546" y="-14" on="0"/>
        <pt x="520" y="-14" on="1"/>
        <pt x="496" y="-14" on="0"/>
        <pt x="465" y="6" on="0"/>
        <pt x="447" y="39" on="0"/>
        <pt x="440" y="79" on="0"/>
        <pt x="440" y="100" on="1"/>
        <pt x="415" y="80" on="0"/>
        <pt x="365" y="40" on="0"/>
        <pt x="311" y="7" on="0"/>
        <pt x="253" y="-14" on="0"/>
        <pt x="219" y="-14" on="1"/>
        <pt x="180" y="-14" on="0"/>
        <pt x="119" y="13" on="0"/>
        <pt x="77" y="61" on="0"/>
        <pt x="55" y="126" on="0"/>
        <pt x="55" y="164" on="1"/>
        <pt x="55" y="206" on="0"/>
        <pt x="94" y="276" on="0"/>
        <pt x="158" y="334" on="0"/>
        <pt x="240" y="381" on="0"/>
        <pt x="326" y="418" on="0"/>
        <pt x="408" y="446" on="0"/>
        <pt x="440" y="457" on="1"/>
        <pt x="440" y="485" on="1"/>
        <pt x="440" y="520" on="0"/>
        <pt x="431" y="585" on="0"/>
        <pt x="403" y="636" on="0"/>
        <pt x="353" y="666" on="0"/>
        <pt x="311" y="666" on="1"/>
        <pt x="277" y="666" on="0"/>
        <pt x="236" y="647" on="0"/>
        <pt x="215" y="612" on="0"/>
        <pt x="209" y="565" on="0"/>
        <pt x="209" y="537" on="1"/>
        <pt x="209" y="503" on="0"/>
        <pt x="183" y="465" on="0"/>
        <pt x="145" y="465" on="1"/>
        <pt x="110" y="465" on="0"/>
        <pt x="82" y="505" on="0"/>
        <pt x="82" y="537" on="1"/>
        <pt x="82" y="584" on="0"/>
        <pt x="132" y="650" on="0"/>
        <pt x="207" y="692" on="0"/>
        <pt x="295" y="711" on="0"/>
        <pt x="334" y="711" on="1"/>
        <pt x="399" y="711" on="0"/>
        <pt x="488" y="686" on="0"/>
        <pt x="542" y="629" on="0"/>
        <pt x="565" y="540" on="0"/>
        <pt x="565" y="475" on="1"/>
        <pt x="565" y="240" on="1"/>
        <pt x="565" y="211" on="0"/>
        <pt x="564" y="147" on="0"/>
        <pt x="569" y="119" on="1"/>
        <pt x="572" y="105" on="0"/>
        <pt x="585" y="82" on="0"/>
        <pt x="602" y="82" on="1"/>
        <pt x="611" y="82" on="0"/>
        <pt x="634" y="97" on="0"/>
        <pt x="658" y="117" on="0"/>
        <pt x="679" y="138" on="0"/>
        <pt x="684" y="143" on="1"/>
      </contour>
      <contour>
        <pt x="440" y="414" on="1"/>
        <pt x="406" y="400" on="0"/>
        <pt x="316" y="363" on="0"/>
        <pt x="237" y="312" on="0"/>
        <pt x="182" y="244" on="0"/>
        <pt x="182" y="199" on="1"/>
        <pt x="182" y="177" on="0"/>
        <pt x="196" y="132" on="0"/>
        <pt x="224" y="96" on="0"/>
        <pt x="264" y="74" on="0"/>
        <pt x="289" y="74" on="1"/>
        <pt x="309" y="74" on="0"/>
        <pt x="350" y="88" on="0"/>
        <pt x="389" y="111" on="0"/>
        <pt x="425" y="138" on="0"/>
        <pt x="440" y="150" on="1"/>
      </contour>
    </TTGlyph>
    <TTGlyph name="aacute" xMin="55" yMin="-14" xMax="684" yMax="1051">
      <component glyphName="a" x="0" y="0" flags="0x204"/>
      <component glyphName="acute" x="109" y="0" flags="0x4"/>
    </TTGlyph>
    <TTGlyph name="absAutoKashida" xMin="0" yMin="0" xMax="250" yMax="125">
      <contour>
        <pt x="0" y="0" on="1"/>
        <pt x="0" y="125" on="1"/>
        <pt x="250" y="125" on="1"/>
        <pt x="250" y="0" on="1"/>
      </contour>
    </TTGlyph>
    <TTGlyph name="absJeemRetro1" xMin="43" yMin="-727" xMax="1008" yMax="393">
      <component glyphName="uni062D" x="0" y="0" flags="0x204"/>
      <component glyphName="_tah" x="552" y="-354" flags="0x4"/>
    </TTGlyph>
    <TTGlyph name="absJeemRetro1Fin" xMin="41" yMin="-729" xMax="1064" yMax="389">
      <component glyphName="uni062D.fina" x="0" y="0" flags="0x204"/>
      <component glyphName="_tah" x="546" y="-383" flags="0x4"/>
    </TTGlyph>
    <TTGlyph name="absJeemRetro1Ini" xMin="-87" yMin="-609" xMax="895" yMax="455">
      <component glyphName="uni062D.init" x="0" y="0" flags="0x204"/>
      <component glyphName="_tah" x="465" y="-502" flags="0x4"/>
    </TTGlyph>
    <TTGlyph name="absJeemRetro1Med" xMin="-87" yMin="-609" xMax="1132" yMax="455">
      <component glyphName="uni062D.medi" x="0" y="0" flags="0x204"/>
      <component glyphName="_tah" x="546" y="-502" flags="0x4"/>
    </TTGlyph>
    <TTGlyph name="absJeemRetro2" xMin="43" yMin="-727" xMax="1008" yMax="1003">
      <component glyphName="uni062D" x="0" y="0" flags="0x204"/>
      <component glyphName="_tah" x="549" y="600" flags="0x4"/>
      <component glyphName="_dot1" x="526" y="-199" flags="0x4"/>
    </TTGlyph>
    <TTGlyph name="absJeemRetro2Fin" xMin="41" yMin="-729" xMax="1064" yMax="999">
      <component glyphName="uni062D.fina" x="0" y="0" flags="0x204"/>
      <component glyphName="_tah" x="546" y="596" flags="0x4"/>
      <component glyphName="_dot1" x="520" y="-228" flags="0x4"/>
    </TTGlyph>
    <TTGlyph name="absJeemRetro2Ini" xMin="-87" yMin="-264" xMax="895" yMax="1065">
      <component glyphName="uni062D.init" x="0" y="0" flags="0x204"/>
      <component glyphName="_tah" x="465" y="662" flags="0x4"/>
      <component glyphName="_dot1" x="439" y="-180" flags="0x4"/>
    </TTGlyph>
    <TTGlyph name="absJeemRetro2Med" xMin="-87" yMin="-264" xMax="1132" yMax="1065">
      <component glyphName="uni062D.medi" x="0" y="0" flags="0x204"/>
      <component glyphName="_tah" x="546" y="662" flags="0x4"/>
      <component glyphName="_dot1" x="520" y="-180" flags="0x4"/>
    </TTGlyph>
    <TTGlyph name="absJeemRetro3" xMin="43" yMin="-727" xMax="1008" yMax="1003">
      <component glyphName="uni062D" x="0" y="0" flags="0x204"/>
      <component glyphName="_tah" x="549" y="600" flags="0x4"/>
    </TTGlyph>
    <TTGlyph name="absJeemRetro3Fin" xMin="41" yMin="-729" xMax="1064" yMax="999">
      <component glyphName="uni062D.fina" x="0" y="0" flags="0x204"/>
      <component glyphName="_tah" x="546" y="596" flags="0x4"/>
    </TTGlyph>
    <TTGlyph name="absJeemRetro3Ini" xMin="-87" yMin="0" xMax="895" yMax="1065">
      <component glyphName="uni062D.init" x="0" y="0" flags="0x204"/>
      <component glyphName="_tah" x="465" y="662" flags="0x4"/>
    </TTGlyph>
    <TTGlyph name="absJeemRetro3Med" xMin="-87" yMin="0" xMax="1132" yMax="1065">
      <component glyphName="uni062D.medi" x="0" y="0" flags="0x204"/>
      <component glyphName="_tah" x="546" y="662" flags="0x4"/>
    </TTGlyph>
    <TTGlyph name="absJehRetro1" xMin="-109" yMin="-399" xMax="581" yMax="1144">
      <component glyphName="uni0631" x="0" y="0" flags="0x204"/>
      <component glyphName="_dot2h_tah" x="381" y="536" flags="0x4"/>
    </TTGlyph>
    <TTGlyph name="absJehRetro1Fin" xMin="-100" yMin="-432" xMax="575" yMax="992">
      <component glyphName="uni0631.fina" x="0" y="0" flags="0x204"/>
      <component glyphName="_dot2h_tah" x="355" y="384" flags="0x4"/>
    </TTGlyph>
    <TTGlyph name="absJehRetro2" xMin="-109" yMin="-399" xMax="559" yMax="1346">
      <component glyphName="uni0631" x="0" y="0" flags="0x204"/>
      <component glyphName="_dot3u_tah" x="375" y="539" flags="0x4"/>
    </TTGlyph>
    <TTGlyph name="absJehRetro2Fin" xMin="-100" yMin="-432" xMax="575" yMax="1194">
      <component glyphName="uni0631.fina" x="0" y="0" flags="0x204"/>
      <component glyphName="_dot3u_tah" x="349" y="387" flags="0x4"/>
    </TTGlyph>
    <TTGlyph name="absLamRetro" xMin="78" yMin="-233" xMax="815" yMax="1703">
      <component glyphName="uni0644" x="0" y="0" flags="0x204"/>
      <component glyphName="_tah" x="621" y="1300" flags="0x4"/>
    </TTGlyph>
    <TTGlyph name="absLamRetroAlef" xMin="23" yMin="-4" xMax="909" yMax="1755">
      <component glyphName="uni06440627" x="0" y="0" flags="0x204"/>
      <component glyphName="_tah" x="715" y="1352" flags="0x4"/>
    </TTGlyph>
    <TTGlyph name="absLamRetroAlefFin" xMin="49" yMin="-119" xMax="1109" yMax="1580">
      <component glyphName="uni06440627.fina" x="0" y="0" flags="0x204"/>
      <component glyphName="_tah" x="754" y="1177" flags="0x4"/>
    </TTGlyph>
    <TTGlyph name="absLamRetroFin" xMin="23" yMin="-528" xMax="937" yMax="1583">
      <component glyphName="uni0644.fina" x="0" y="0" flags="0x204"/>
      <component glyphName="_tah" x="615" y="1180" flags="0x4"/>
    </TTGlyph>
    <TTGlyph name="absLamRetroIni" xMin="-98" yMin="0" xMax="338" yMax="1671">
      <component glyphName="uni0644.init" x="0" y="0" flags="0x204"/>
      <component glyphName="_tah" x="144" y="1268" flags="0x4"/>
    </TTGlyph>
    <TTGlyph name="absLamRetroIni.preAlef" xMin="-192" yMin="-4" xMax="374" yMax="1755">
      <component glyphName="uni0644.init.preAlef" x="0" y="0" flags="0x204"/>
      <component glyphName="_tah" x="180" y="1352" flags="0x4"/>
    </TTGlyph>
    <TTGlyph name="absLamRetroMed" xMin="-87" yMin="0" xMax="491" yMax="1635">
      <component glyphName="uni0644.medi" x="0" y="0" flags="0x204"/>
      <component glyphName="_tah" x="189" y="1232" flags="0x4"/>
    </TTGlyph>
    <TTGlyph name="absLamRetroMed.preAlef" xMin="-334" yMin="-119" xMax="609" yMax="1580">
      <component glyphName="uni0644.medi.preAlef" x="0" y="0" flags="0x204"/>
      <component glyphName="_tah" x="254" y="1177" flags="0x4"/>
    </TTGlyph>
    <TTGlyph name="absShaddaAlef" xMin="-35" yMin="997" xMax="342" yMax="1696">
      <contour>
        <pt x="172" y="1391" on="1"/>
        <pt x="172" y="1380" on="0"/>
        <pt x="158" y="1352" on="0"/>
        <pt x="152" y="1352" on="1"/>
        <pt x="150" y="1352" on="0"/>
        <pt x="144" y="1365" on="0"/>
        <pt x="138" y="1382" on="0"/>
        <pt x="131" y="1399" on="0"/>
        <pt x="129" y="1403" on="1"/>
        <pt x="106" y="1456" on="0"/>
        <pt x="34" y="1538" on="0"/>
        <pt x="0" y="1567" on="1"/>
        <pt x="-2" y="1569" on="0"/>
        <pt x="-14" y="1599" on="0"/>
        <pt x="-26" y="1636" on="0"/>
        <pt x="-35" y="1671" on="0"/>
        <pt x="-35" y="1677" on="1"/>
        <pt x="-35" y="1687" on="0"/>
        <pt x="-32" y="1696" on="0"/>
        <pt x="-23" y="1696" on="1"/>
        <pt x="-18" y="1696" on="0"/>
        <pt x="5" y="1687" on="0"/>
        <pt x="34" y="1671" on="0"/>
        <pt x="64" y="1648" on="0"/>
        <pt x="76" y="1634" on="1"/>
        <pt x="100" y="1604" on="0"/>
        <pt x="136" y="1527" on="0"/>
        <pt x="160" y="1455" on="0"/>
        <pt x="172" y="1399" on="0"/>
      </contour>
      <contour>
        <pt x="342" y="1253" on="1"/>
        <pt x="342" y="1220" on="0"/>
        <pt x="331" y="1154" on="0"/>
        <pt x="307" y="1100" on="0"/>
        <pt x="268" y="1067" on="0"/>
        <pt x="240" y="1067" on="1"/>
        <pt x="199" y="1067" on="0"/>
        <pt x="170" y="1087" on="1"/>
        <pt x="159" y="1071" on="0"/>
        <pt x="137" y="1039" on="0"/>
        <pt x="111" y="1013" on="0"/>
        <pt x="79" y="997" on="0"/>
        <pt x="59" y="997" on="1"/>
        <pt x="25" y="997" on="0"/>
        <pt x="-25" y="1058" on="0"/>
        <pt x="-25" y="1112" on="1"/>
        <pt x="-25" y="1117" on="0"/>
        <pt x="-22" y="1144" on="0"/>
        <pt x="-16" y="1177" on="0"/>
        <pt x="-7" y="1211" on="0"/>
        <pt x="0" y="1223" on="1"/>
        <pt x="2" y="1228" on="0"/>
        <pt x="11" y="1225" on="0"/>
        <pt x="16" y="1225" on="1"/>
        <pt x="23" y="1225" on="0"/>
        <pt x="24" y="1188" on="0"/>
        <pt x="28" y="1145" on="0"/>
        <pt x="42" y="1108" on="0"/>
        <pt x="63" y="1108" on="1"/>
        <pt x="80" y="1108" on="0"/>
        <pt x="105" y="1132" on="0"/>
        <pt x="125" y="1168" on="0"/>
        <pt x="139" y="1211" on="0"/>
        <pt x="148" y="1248" on="0"/>
        <pt x="153" y="1275" on="0"/>
        <pt x="154" y="1276" on="1"/>
        <pt x="156" y="1281" on="0"/>
        <pt x="172" y="1280" on="0"/>
        <pt x="174" y="1280" on="1"/>
        <pt x="180" y="1280" on="0"/>
        <pt x="186" y="1249" on="0"/>
        <pt x="196" y="1213" on="0"/>
        <pt x="216" y="1182" on="0"/>
        <pt x="236" y="1182" on="1"/>
        <pt x="257" y="1182" on="0"/>
        <pt x="281" y="1227" on="0"/>
        <pt x="295" y="1282" on="0"/>
        <pt x="299" y="1329" on="0"/>
        <pt x="299" y="1331" on="1"/>
        <pt x="301" y="1337" on="0"/>
        <pt x="319" y="1346" on="0"/>
        <pt x="324" y="1346" on="1"/>
        <pt x="328" y="1346" on="0"/>
        <pt x="334" y="1325" on="0"/>
        <pt x="339" y="1296" on="0"/>
        <pt x="342" y="1264" on="0"/>
      </contour>
    </TTGlyph>
    <TTGlyph name="absSheenRetro1" xMin="29" yMin="-492" xMax="1237" yMax="1401">
      <component glyphName="uni0633" x="0" y="0" flags="0x204"/>
      <component glyphName="_dot3u_tah" x="927" y="594" flags="0x4"/>
    </TTGlyph>
    <TTGlyph name="absSheenRetro1Fin" xMin="29" yMin="-492" xMax="1494" yMax="1285">
      <component glyphName="uni0633.fina" x="0" y="0" flags="0x204"/>
      <component glyphName="_dot3u_tah" x="969" y="478" flags="0x4"/>
    </TTGlyph>
    <TTGlyph name="absSheenRetro1Ini" xMin="-87" yMin="0" xMax="815" yMax="1381">
      <component glyphName="uni0633.init" x="0" y="0" flags="0x204"/>
      <component glyphName="_dot3u_tah" x="500" y="574" flags="0x4"/>
    </TTGlyph>
    <TTGlyph name="absSheenRetro1Med" xMin="-87" yMin="0" xMax="1105" yMax="1285">
      <component glyphName="uni0633.medi" x="0" y="0" flags="0x204"/>
      <component glyphName="_dot3u_tah" x="509" y="478" flags="0x4"/>
    </TTGlyph>
    <TTGlyph name="absSheenRetro2" xMin="29" yMin="-492" xMax="1237" yMax="1199">
      <component glyphName="uni0633" x="0" y="0" flags="0x204"/>
      <component glyphName="_dot2h_tah" x="933" y="591" flags="0x4"/>
    </TTGlyph>
    <TTGlyph name="absSheenRetro2Fin" xMin="29" yMin="-492" xMax="1494" yMax="1083">
      <component glyphName="uni0633.fina" x="0" y="0" flags="0x204"/>
      <component glyphName="_dot2h_tah" x="975" y="475" flags="0x4"/>
    </TTGlyph>
    <TTGlyph name="absSheenRetro2Ini" xMin="-87" yMin="0" xMax="815" yMax="1179">
      <component glyphName="uni0633.init" x="0" y="0" flags="0x204"/>
      <component glyphName="_dot2h_tah" x="506" y="571" flags="0x4"/>
    </TTGlyph>
    <TTGlyph name="absSheenRetro2Med" xMin="-87" yMin="0" xMax="1105" yMax="1083">
      <component glyphName="uni0633.medi" x="0" y="0" flags="0x204"/>
      <component glyphName="_dot2h_tah" x="515" y="475" flags="0x4"/>
    </TTGlyph>
    <TTGlyph name="absTchehRetro1" xMin="43" yMin="-727" xMax="1008" yMax="1003">
      <component glyphName="uni062D" x="0" y="0" flags="0x204"/>
      <component glyphName="_tah" x="549" y="600" flags="0x4"/>
      <component glyphName="_dot3d" x="526" y="-109" flags="0x4"/>
    </TTGlyph>
    <TTGlyph name="absTchehRetro1Fin" xMin="41" yMin="-729" xMax="1064" yMax="999">
      <component glyphName="uni062D.fina" x="0" y="0" flags="0x204"/>
      <component glyphName="_tah" x="546" y="596" flags="0x4"/>
      <component glyphName="_dot3d" x="520" y="-138" flags="0x4"/>
    </TTGlyph>
    <TTGlyph name="absTchehRetro1Ini" xMin="-87" yMin="-461" xMax="895" yMax="1065">
      <component glyphName="uni062D.init" x="0" y="0" flags="0x204"/>
      <component glyphName="_tah" x="465" y="662" flags="0x4"/>
      <component glyphName="_dot3d" x="440" y="-189" flags="0x4"/>
    </TTGlyph>
    <TTGlyph name="absTchehRetro1Med" xMin="-87" yMin="-461" xMax="1132" yMax="1065">
      <component glyphName="uni062D.medi" x="0" y="0" flags="0x204"/>
      <component glyphName="_tah" x="546" y="662" flags="0x4"/>
      <component glyphName="_dot3d" x="521" y="-189" flags="0x4"/>
    </TTGlyph>
    <TTGlyph name="absTchehRetro2" xMin="43" yMin="-727" xMax="1008" yMax="393">
      <component glyphName="uni062D" x="0" y="0" flags="0x204"/>
      <component glyphName="_dot2h_tah" x="526" y="-449" flags="0x4"/>
    </TTGlyph>
    <TTGlyph name="absTchehRetro2Fin" xMin="41" yMin="-729" xMax="1064" yMax="389">
      <component glyphName="uni062D.fina" x="0" y="0" flags="0x204"/>
      <component glyphName="_dot2h_tah" x="520" y="-478" flags="0x4"/>
    </TTGlyph>
    <TTGlyph name="absTchehRetro2Ini" xMin="-87" yMin="-787" xMax="895" yMax="455">
      <component glyphName="uni062D.init" x="0" y="0" flags="0x204"/>
      <component glyphName="_dot2h_tah" x="446" y="-697" flags="0x4"/>
    </TTGlyph>
    <TTGlyph name="absTchehRetro2Med" xMin="-87" yMin="-787" xMax="1132" yMax="455">
      <component glyphName="uni062D.medi" x="0" y="0" flags="0x204"/>
      <component glyphName="_dot2h_tah" x="527" y="-697" flags="0x4"/>
    </TTGlyph>
    <TTGlyph name="absWawDotBelow" xMin="-76" yMin="-675" xMax="522" yMax="444">
      <component glyphName="uni0648" x="0" y="0" flags="0x204"/>
      <component glyphName="_dot1" x="382" y="-591" flags="0x4"/>
    </TTGlyph>
    <TTGlyph name="absWawDotBelowFin" xMin="-106" yMin="-671" xMax="661" yMax="346">
      <component glyphName="uni0648.fina" x="0" y="0" flags="0x204"/>
      <component glyphName="_dot1" x="373" y="-587" flags="0x4"/>
    </TTGlyph>
    <TTGlyph name="acircumflex" xMin="55" yMin="-14" xMax="684" yMax="1035">
      <component glyphName="a" x="0" y="0" flags="0x204"/>
      <component glyphName="circumflex" x="94" y="-9" flags="0x4"/>
    </TTGlyph>
    <TTGlyph name="acute" xMin="88" yMin="786" xMax="434" yMax="1051">
      <contour>
        <pt x="434" y="1001" on="1"/>
        <pt x="434" y="989" on="0"/>
        <pt x="422" y="967" on="0"/>
        <pt x="403" y="948" on="0"/>
        <pt x="382" y="932" on="0"/>
        <pt x="373" y="926" on="1"/>
        <pt x="150" y="786" on="1"/>
        <pt x="88" y="786" on="1"/>
        <pt x="301" y="1001" on="1"/>
        <pt x="320" y="1020" on="0"/>
        <pt x="367" y="1051" on="0"/>
        <pt x="395" y="1051" on="1"/>
        <pt x="402" y="1051" on="0"/>
        <pt x="416" y="1041" on="0"/>
        <pt x="427" y="1026" on="0"/>
        <pt x="434" y="1008" on="0"/>
      </contour>
    </TTGlyph>
    <TTGlyph name="adieresis" xMin="55" yMin="-14" xMax="684" yMax="992">
      <component glyphName="a" x="0" y="0" flags="0x204"/>
      <component glyphName="dieresis" x="94" y="-9" flags="0x4"/>
    </TTGlyph>
    <TTGlyph name="ae" xMin="55" yMin="-22" xMax="984" yMax="710">
      <contour>
        <pt x="984" y="241" on="1"/>
        <pt x="970" y="190" on="0"/>
        <pt x="925" y="95" on="0"/>
        <pt x="857" y="22" on="0"/>
        <pt x="765" y="-22" on="0"/>
        <pt x="704" y="-22" on="1"/>
        <pt x="678" y="-22" on="0"/>
        <pt x="626" y="-16" on="0"/>
        <pt x="572" y="8" on="0"/>
        <pt x="515" y="56" on="0"/>
        <pt x="482" y="99" on="1"/>
        <pt x="466" y="85" on="0"/>
        <pt x="415" y="44" on="0"/>
        <pt x="349" y="5" on="0"/>
        <pt x="269" y="-22" on="0"/>
        <pt x="224" y="-22" on="1"/>
        <pt x="189" y="-22" on="0"/>
        <pt x="128" y="5" on="0"/>
        <pt x="82" y="52" on="0"/>
        <pt x="55" y="116" on="0"/>
        <pt x="55" y="152" on="1"/>
        <pt x="55" y="204" on="0"/>
        <pt x="95" y="280" on="0"/>
        <pt x="183" y="345" on="0"/>
        <pt x="324" y="410" on="0"/>
        <pt x="425" y="450" on="1"/>
        <pt x="425" y="519" on="1"/>
        <pt x="425" y="602" on="0"/>
        <pt x="365" y="669" on="0"/>
        <pt x="313" y="669" on="1"/>
        <pt x="264" y="669" on="0"/>
        <pt x="208" y="622" on="0"/>
        <pt x="207" y="588" on="1"/>
        <pt x="206" y="549" on="0"/>
        <pt x="198" y="502" on="0"/>
        <pt x="184" y="478" on="0"/>
        <pt x="162" y="470" on="0"/>
        <pt x="147" y="468" on="1"/>
        <pt x="110" y="468" on="0"/>
        <pt x="79" y="511" on="0"/>
        <pt x="79" y="540" on="1"/>
        <pt x="79" y="568" on="0"/>
        <pt x="109" y="628" on="0"/>
        <pt x="171" y="678" on="0"/>
        <pt x="267" y="710" on="0"/>
        <pt x="333" y="710" on="1"/>
        <pt x="427" y="710" on="0"/>
        <pt x="521" y="659" on="0"/>
        <pt x="536" y="619" on="1"/>
        <pt x="573" y="670" on="0"/>
        <pt x="671" y="710" on="0"/>
        <pt x="738" y="710" on="1"/>
        <pt x="850" y="710" on="0"/>
        <pt x="982" y="564" on="0"/>
        <pt x="984" y="428" on="1"/>
        <pt x="553" y="428" on="1"/>
        <pt x="553" y="335" on="0"/>
        <pt x="568" y="217" on="0"/>
        <pt x="591" y="180" on="1"/>
        <pt x="606" y="154" on="0"/>
        <pt x="645" y="120" on="0"/>
        <pt x="687" y="100" on="0"/>
        <pt x="729" y="92" on="0"/>
        <pt x="746" y="92" on="1"/>
        <pt x="757" y="92" on="0"/>
        <pt x="807" y="97" on="0"/>
        <pt x="869" y="128" on="0"/>
        <pt x="935" y="196" on="0"/>
        <pt x="960" y="258" on="1"/>
      </contour>
      <contour>
        <pt x="839" y="477" on="1"/>
        <pt x="838" y="525" on="0"/>
        <pt x="816" y="594" on="0"/>
        <pt x="779" y="638" on="0"/>
        <pt x="729" y="658" on="0"/>
        <pt x="700" y="658" on="1"/>
        <pt x="671" y="658" on="0"/>
        <pt x="618" y="636" on="0"/>
        <pt x="578" y="591" on="0"/>
        <pt x="554" y="523" on="0"/>
        <pt x="553" y="477" on="1"/>
      </contour>
      <contour>
        <pt x="461" y="140" on="1"/>
        <pt x="453" y="155" on="0"/>
        <pt x="440" y="199" on="0"/>
        <pt x="430" y="250" on="0"/>
        <pt x="425" y="307" on="0"/>
        <pt x="425" y="334" on="1"/>
        <pt x="425" y="401" on="1"/>
        <pt x="383" y="385" on="0"/>
        <pt x="296" y="349" on="0"/>
        <pt x="227" y="301" on="0"/>
        <pt x="183" y="237" on="0"/>
        <pt x="183" y="194" on="1"/>
        <pt x="183" y="166" on="0"/>
        <pt x="202" y="118" on="0"/>
        <pt x="234" y="81" on="0"/>
        <pt x="278" y="60" on="0"/>
        <pt x="303" y="59" on="1"/>
        <pt x="318" y="59" on="0"/>
        <pt x="347" y="65" on="0"/>
        <pt x="383" y="83" on="0"/>
        <pt x="430" y="115" on="0"/>
      </contour>
    </TTGlyph>
    <TTGlyph name="agrave" xMin="55" yMin="-14" xMax="684" yMax="1051">
      <component glyphName="a" x="0" y="0" flags="0x204"/>
      <component glyphName="grave" x="42" y="0" flags="0x4"/>
    </TTGlyph>
    <TTGlyph name="ampersand" xMin="57" yMin="-25" xMax="1153" yMax="1044">
      <contour>
        <pt x="1153" y="184" on="1"/>
        <pt x="1144" y="140" on="0"/>
        <pt x="1104" y="63" on="0"/>
        <pt x="1046" y="7" on="0"/>
        <pt x="969" y="-25" on="0"/>
        <pt x="922" y="-25" on="1"/>
        <pt x="882" y="-25" on="0"/>
        <pt x="808" y="0" on="0"/>
        <pt x="741" y="42" on="0"/>
        <pt x="681" y="95" on="0"/>
        <pt x="655" y="123" on="1"/>
        <pt x="618" y="91" on="0"/>
        <pt x="545" y="36" on="0"/>
        <pt x="467" y="-3" on="0"/>
        <pt x="379" y="-25" on="0"/>
        <pt x="328" y="-25" on="1"/>
        <pt x="277" y="-25" on="0"/>
        <pt x="180" y="4" on="0"/>
        <pt x="104" y="61" on="0"/>
        <pt x="57" y="147" on="0"/>
        <pt x="57" y="203" on="1"/>
        <pt x="57" y="268" on="0"/>
        <pt x="116" y="379" on="0"/>
        <pt x="207" y="471" on="0"/>
        <pt x="319" y="544" on="0"/>
        <pt x="371" y="571" on="1"/>
        <pt x="346" y="622" on="0"/>
        <pt x="307" y="740" on="0"/>
        <pt x="307" y="797" on="1"/>
        <pt x="307" y="854" on="0"/>
        <pt x="347" y="946" on="0"/>
        <pt x="417" y="1010" on="0"/>
        <pt x="513" y="1044" on="0"/>
        <pt x="569" y="1044" on="1"/>
        <pt x="611" y="1044" on="0"/>
        <pt x="685" y="1020" on="0"/>
        <pt x="741" y="974" on="0"/>
        <pt x="774" y="906" on="0"/>
        <pt x="774" y="862" on="1"/>
        <pt x="774" y="809" on="0"/>
        <pt x="727" y="726" on="0"/>
        <pt x="654" y="661" on="0"/>
        <pt x="566" y="611" on="0"/>
        <pt x="526" y="590" on="1"/>
        <pt x="571" y="508" on="0"/>
        <pt x="670" y="353" on="0"/>
        <pt x="727" y="279" on="1"/>
        <pt x="748" y="305" on="0"/>
        <pt x="795" y="368" on="0"/>
        <pt x="833" y="437" on="0"/>
        <pt x="858" y="510" on="0"/>
        <pt x="858" y="545" on="1"/>
        <pt x="858" y="560" on="0"/>
        <pt x="849" y="590" on="0"/>
        <pt x="831" y="614" on="0"/>
        <pt x="804" y="629" on="0"/>
        <pt x="786" y="629" on="1"/>
        <pt x="786" y="657" on="1"/>
        <pt x="1104" y="657" on="1"/>
        <pt x="1104" y="629" on="1"/>
        <pt x="1095" y="629" on="0"/>
        <pt x="1071" y="625" on="0"/>
        <pt x="1045" y="619" on="0"/>
        <pt x="1020" y="608" on="0"/>
        <pt x="1010" y="600" on="1"/>
        <pt x="998" y="590" on="0"/>
        <pt x="970" y="554" on="0"/>
        <pt x="944" y="513" on="0"/>
        <pt x="921" y="473" on="0"/>
        <pt x="913" y="459" on="1"/>
        <pt x="879" y="399" on="0"/>
        <pt x="805" y="287" on="0"/>
        <pt x="762" y="233" on="1"/>
        <pt x="783" y="210" on="0"/>
        <pt x="833" y="160" on="0"/>
        <pt x="891" y="119" on="0"/>
        <pt x="954" y="92" on="0"/>
        <pt x="987" y="92" on="1"/>
        <pt x="1044" y="92" on="0"/>
        <pt x="1112" y="149" on="0"/>
        <pt x="1126" y="203" on="1"/>
      </contour>
      <contour>
        <pt x="686" y="864" on="1"/>
        <pt x="686" y="890" on="0"/>
        <pt x="670" y="936" on="0"/>
        <pt x="639" y="970" on="0"/>
        <pt x="596" y="991" on="0"/>
        <pt x="569" y="991" on="1"/>
        <pt x="541" y="991" on="0"/>
        <pt x="492" y="970" on="0"/>
        <pt x="456" y="934" on="0"/>
        <pt x="436" y="885" on="0"/>
        <pt x="436" y="856" on="1"/>
        <pt x="436" y="830" on="0"/>
        <pt x="448" y="773" on="0"/>
        <pt x="466" y="717" on="0"/>
        <pt x="489" y="663" on="0"/>
        <pt x="500" y="639" on="1"/>
        <pt x="535" y="655" on="0"/>
        <pt x="602" y="698" on="0"/>
        <pt x="654" y="753" on="0"/>
        <pt x="686" y="822" on="0"/>
      </contour>
      <contour>
        <pt x="616" y="166" on="1"/>
        <pt x="551" y="254" on="0"/>
        <pt x="444" y="424" on="0"/>
        <pt x="393" y="520" on="1"/>
        <pt x="357" y="500" on="0"/>
        <pt x="292" y="450" on="0"/>
        <pt x="242" y="388" on="0"/>
        <pt x="213" y="314" on="0"/>
        <pt x="213" y="270" on="1"/>
        <pt x="213" y="229" on="0"/>
        <pt x="240" y="155" on="0"/>
        <pt x="290" y="100" on="0"/>
        <pt x="360" y="68" on="0"/>
        <pt x="403" y="68" on="1"/>
        <pt x="433" y="68" on="0"/>
        <pt x="490" y="85" on="0"/>
        <pt x="544" y="113" on="0"/>
        <pt x="594" y="148" on="0"/>
      </contour>
    </TTGlyph>
    <TTGlyph name="aring" xMin="55" yMin="-14" xMax="684" yMax="1074">
      <component glyphName="a" x="0" y="0" flags="0x204"/>
      <component glyphName="ring" x="192" y="0" flags="0x4"/>
    </TTGlyph>
    <TTGlyph name="asciicircum" xMin="354" yMin="14" xMax="1130" yMax="905">
      <contour>
        <pt x="1038" y="14" on="1"/>
        <pt x="743" y="811" on="1"/>
        <pt x="446" y="14" on="1"/>
        <pt x="354" y="14" on="1"/>
        <pt x="696" y="905" on="1"/>
        <pt x="788" y="905" on="1"/>
        <pt x="1130" y="14" on="1"/>
      </contour>
    </TTGlyph>
    <TTGlyph name="asciitilde" xMin="31" yMin="279" xMax="811" yMax="532">
      <contour>
        <pt x="811" y="475" on="1"/>
        <pt x="795" y="444" on="0"/>
        <pt x="753" y="385" on="0"/>
        <pt x="700" y="339" on="0"/>
        <pt x="636" y="311" on="0"/>
        <pt x="598" y="311" on="1"/>
        <pt x="551" y="311" on="0"/>
        <pt x="461" y="346" on="0"/>
        <pt x="371" y="387" on="0"/>
        <pt x="282" y="422" on="0"/>
        <pt x="236" y="422" on="1"/>
        <pt x="205" y="422" on="0"/>
        <pt x="157" y="395" on="0"/>
        <pt x="118" y="353" on="0"/>
        <pt x="86" y="303" on="0"/>
        <pt x="72" y="279" on="1"/>
        <pt x="31" y="334" on="1"/>
        <pt x="48" y="366" on="0"/>
        <pt x="87" y="430" on="0"/>
        <pt x="138" y="481" on="0"/>
        <pt x="202" y="512" on="0"/>
        <pt x="244" y="512" on="1"/>
        <pt x="287" y="512" on="0"/>
        <pt x="383" y="476" on="0"/>
        <pt x="479" y="433" on="0"/>
        <pt x="569" y="397" on="0"/>
        <pt x="606" y="397" on="1"/>
        <pt x="635" y="397" on="0"/>
        <pt x="684" y="421" on="0"/>
        <pt x="724" y="459" on="0"/>
        <pt x="756" y="508" on="0"/>
        <pt x="768" y="532" on="1"/>
      </contour>
    </TTGlyph>
    <TTGlyph name="asterisk" xMin="12" yMin="-94" xMax="676" yMax="569">
      <contour>
        <pt x="578" y="471" on="1"/>
        <pt x="590" y="460" on="0"/>
        <pt x="582" y="414" on="0"/>
        <pt x="551" y="383" on="1"/>
        <pt x="536" y="368" on="0"/>
        <pt x="484" y="332" on="0"/>
        <pt x="433" y="300" on="0"/>
        <pt x="393" y="282" on="0"/>
        <pt x="391" y="285" on="1"/>
        <pt x="388" y="287" on="0"/>
        <pt x="407" y="327" on="0"/>
        <pt x="438" y="378" on="0"/>
        <pt x="475" y="430" on="0"/>
        <pt x="489" y="444" on="1"/>
        <pt x="518" y="475" on="0"/>
        <pt x="567" y="483" on="0"/>
      </contour>
      <contour>
        <pt x="387" y="487" on="1"/>
        <pt x="387" y="466" on="0"/>
        <pt x="376" y="404" on="0"/>
        <pt x="361" y="345" on="0"/>
        <pt x="347" y="303" on="0"/>
        <pt x="344" y="303" on="1"/>
        <pt x="340" y="303" on="0"/>
        <pt x="325" y="345" on="0"/>
        <pt x="310" y="404" on="0"/>
        <pt x="299" y="466" on="0"/>
        <pt x="299" y="487" on="1"/>
        <pt x="299" y="531" on="0"/>
        <pt x="327" y="569" on="0"/>
        <pt x="344" y="569" on="1"/>
        <pt x="361" y="569" on="0"/>
        <pt x="387" y="531" on="0"/>
      </contour>
      <contour>
        <pt x="676" y="238" on="1"/>
        <pt x="676" y="221" on="0"/>
        <pt x="636" y="195" on="0"/>
        <pt x="594" y="195" on="1"/>
        <pt x="573" y="195" on="0"/>
        <pt x="510" y="205" on="0"/>
        <pt x="451" y="219" on="0"/>
        <pt x="410" y="234" on="0"/>
        <pt x="410" y="238" on="1"/>
        <pt x="410" y="242" on="0"/>
        <pt x="451" y="256" on="0"/>
        <pt x="510" y="270" on="0"/>
        <pt x="573" y="281" on="0"/>
        <pt x="594" y="281" on="1"/>
        <pt x="636" y="281" on="0"/>
        <pt x="676" y="255" on="0"/>
      </contour>
      <contour>
        <pt x="297" y="285" on="1"/>
        <pt x="295" y="282" on="0"/>
        <pt x="255" y="300" on="0"/>
        <pt x="203" y="332" on="0"/>
        <pt x="150" y="368" on="0"/>
        <pt x="135" y="383" on="1"/>
        <pt x="106" y="414" on="0"/>
        <pt x="98" y="460" on="0"/>
        <pt x="109" y="471" on="1"/>
        <pt x="121" y="483" on="0"/>
        <pt x="168" y="475" on="0"/>
        <pt x="199" y="444" on="1"/>
        <pt x="214" y="430" on="0"/>
        <pt x="250" y="378" on="0"/>
        <pt x="280" y="327" on="0"/>
        <pt x="299" y="287" on="0"/>
      </contour>
      <contour>
        <pt x="578" y="4" on="1"/>
        <pt x="567" y="-8" on="0"/>
        <pt x="518" y="0" on="0"/>
        <pt x="489" y="31" on="1"/>
        <pt x="475" y="46" on="0"/>
        <pt x="438" y="97" on="0"/>
        <pt x="407" y="148" on="0"/>
        <pt x="388" y="188" on="0"/>
        <pt x="391" y="190" on="1"/>
        <pt x="393" y="193" on="0"/>
        <pt x="433" y="175" on="0"/>
        <pt x="484" y="143" on="0"/>
        <pt x="536" y="107" on="0"/>
        <pt x="551" y="92" on="1"/>
        <pt x="582" y="61" on="0"/>
        <pt x="590" y="15" on="0"/>
      </contour>
      <contour>
        <pt x="279" y="238" on="1"/>
        <pt x="279" y="234" on="0"/>
        <pt x="237" y="219" on="0"/>
        <pt x="178" y="205" on="0"/>
        <pt x="115" y="195" on="0"/>
        <pt x="94" y="195" on="1"/>
        <pt x="51" y="195" on="0"/>
        <pt x="12" y="221" on="0"/>
        <pt x="12" y="238" on="1"/>
        <pt x="12" y="255" on="0"/>
        <pt x="51" y="281" on="0"/>
        <pt x="94" y="281" on="1"/>
        <pt x="115" y="281" on="0"/>
        <pt x="178" y="270" on="0"/>
        <pt x="237" y="256" on="0"/>
        <pt x="279" y="242" on="0"/>
      </contour>
      <contour>
        <pt x="387" y="-12" on="1"/>
        <pt x="387" y="-56" on="0"/>
        <pt x="361" y="-94" on="0"/>
        <pt x="344" y="-94" on="1"/>
        <pt x="327" y="-94" on="0"/>
        <pt x="299" y="-56" on="0"/>
        <pt x="299" y="-12" on="1"/>
        <pt x="299" y="9" on="0"/>
        <pt x="310" y="71" on="0"/>
        <pt x="325" y="130" on="0"/>
        <pt x="340" y="172" on="0"/>
        <pt x="344" y="172" on="1"/>
        <pt x="347" y="172" on="0"/>
        <pt x="361" y="130" on="0"/>
        <pt x="376" y="71" on="0"/>
        <pt x="387" y="9" on="0"/>
      </contour>
      <contour>
        <pt x="297" y="190" on="1"/>
        <pt x="299" y="188" on="0"/>
        <pt x="280" y="148" on="0"/>
        <pt x="250" y="97" on="0"/>
        <pt x="214" y="46" on="0"/>
        <pt x="199" y="31" on="1"/>
        <pt x="168" y="0" on="0"/>
        <pt x="121" y="-8" on="0"/>
        <pt x="109" y="4" on="1"/>
        <pt x="98" y="15" on="0"/>
        <pt x="106" y="61" on="0"/>
        <pt x="135" y="92" on="1"/>
        <pt x="150" y="107" on="0"/>
        <pt x="203" y="143" on="0"/>
        <pt x="255" y="175" on="0"/>
        <pt x="295" y="193" on="0"/>
      </contour>
    </TTGlyph>
    <TTGlyph name="at" xMin="74" yMin="-334" xMax="1384" yMax="1071">
      <contour>
        <pt x="1384" y="129" on="1"/>
        <pt x="1355" y="22" on="0"/>
        <pt x="1223" y="-149" on="0"/>
        <pt x="1046" y="-269" on="0"/>
        <pt x="837" y="-334" on="0"/>
        <pt x="731" y="-334" on="1"/>
        <pt x="587" y="-334" on="0"/>
        <pt x="346" y="-231" on="0"/>
        <pt x="172" y="-51" on="0"/>
        <pt x="74" y="194" on="0"/>
        <pt x="74" y="336" on="1"/>
        <pt x="74" y="489" on="0"/>
        <pt x="180" y="756" on="0"/>
        <pt x="369" y="956" on="0"/>
        <pt x="630" y="1071" on="0"/>
        <pt x="786" y="1071" on="1"/>
        <pt x="904" y="1071" on="0"/>
        <pt x="1102" y="1000" on="0"/>
        <pt x="1245" y="867" on="0"/>
        <pt x="1325" y="676" on="0"/>
        <pt x="1325" y="555" on="1"/>
        <pt x="1325" y="495" on="0"/>
        <pt x="1302" y="369" on="0"/>
        <pt x="1256" y="251" on="0"/>
        <pt x="1186" y="147" on="0"/>
        <pt x="1094" y="70" on="0"/>
        <pt x="978" y="25" on="0"/>
        <pt x="909" y="25" on="1"/>
        <pt x="854" y="25" on="0"/>
        <pt x="795" y="77" on="0"/>
        <pt x="795" y="133" on="1"/>
        <pt x="795" y="159" on="0"/>
        <pt x="802" y="212" on="0"/>
        <pt x="807" y="238" on="1"/>
        <pt x="783" y="210" on="0"/>
        <pt x="715" y="136" on="0"/>
        <pt x="635" y="70" on="0"/>
        <pt x="551" y="25" on="0"/>
        <pt x="510" y="25" on="1"/>
        <pt x="475" y="25" on="0"/>
        <pt x="424" y="56" on="0"/>
        <pt x="391" y="106" on="0"/>
        <pt x="375" y="167" on="0"/>
        <pt x="375" y="197" on="1"/>
        <pt x="375" y="246" on="0"/>
        <pt x="406" y="363" on="0"/>
        <pt x="462" y="480" on="0"/>
        <pt x="539" y="591" on="0"/>
        <pt x="630" y="676" on="0"/>
        <pt x="734" y="727" on="0"/>
        <pt x="788" y="727" on="1"/>
        <pt x="897" y="727" on="0"/>
        <pt x="920" y="623" on="1"/>
        <pt x="942" y="705" on="1"/>
        <pt x="1061" y="723" on="1"/>
        <pt x="1057" y="711" on="0"/>
        <pt x="1031" y="624" on="0"/>
        <pt x="996" y="505" on="0"/>
        <pt x="957" y="369" on="0"/>
        <pt x="924" y="246" on="0"/>
        <pt x="903" y="151" on="0"/>
        <pt x="903" y="133" on="1"/>
        <pt x="903" y="110" on="0"/>
        <pt x="938" y="78" on="0"/>
        <pt x="961" y="78" on="1"/>
        <pt x="993" y="78" on="0"/>
        <pt x="1051" y="100" on="0"/>
        <pt x="1102" y="137" on="0"/>
        <pt x="1146" y="184" on="0"/>
        <pt x="1165" y="208" on="1"/>
        <pt x="1225" y="286" on="0"/>
        <pt x="1278" y="472" on="0"/>
        <pt x="1278" y="569" on="1"/>
        <pt x="1278" y="676" on="0"/>
        <pt x="1203" y="848" on="0"/>
        <pt x="1072" y="969" on="0"/>
        <pt x="894" y="1034" on="0"/>
        <pt x="791" y="1034" on="1"/>
        <pt x="692" y="1034" on="0"/>
        <pt x="518" y="979" on="0"/>
        <pt x="374" y="882" on="0"/>
        <pt x="261" y="747" on="0"/>
        <pt x="184" y="587" on="0"/>
        <pt x="143" y="408" on="0"/>
        <pt x="143" y="315" on="1"/>
        <pt x="143" y="182" on="0"/>
        <pt x="228" y="-39" on="0"/>
        <pt x="383" y="-198" on="0"/>
        <pt x="602" y="-287" on="0"/>
        <pt x="735" y="-287" on="1"/>
        <pt x="841" y="-287" on="0"/>
        <pt x="1026" y="-228" on="0"/>
        <pt x="1179" y="-120" on="0"/>
        <pt x="1299" y="34" on="0"/>
        <pt x="1341" y="129" on="1"/>
      </contour>
      <contour>
        <pt x="891" y="569" on="1"/>
        <pt x="891" y="593" on="0"/>
        <pt x="883" y="637" on="0"/>
        <pt x="862" y="672" on="0"/>
        <pt x="825" y="692" on="0"/>
        <pt x="797" y="692" on="1"/>
        <pt x="760" y="692" on="0"/>
        <pt x="685" y="641" on="0"/>
        <pt x="618" y="558" on="0"/>
        <pt x="560" y="455" on="0"/>
        <pt x="518" y="350" on="0"/>
        <pt x="494" y="254" on="0"/>
        <pt x="494" y="221" on="1"/>
        <pt x="494" y="203" on="0"/>
        <pt x="505" y="165" on="0"/>
        <pt x="527" y="134" on="0"/>
        <pt x="559" y="115" on="0"/>
        <pt x="580" y="115" on="1"/>
        <pt x="622" y="115" on="0"/>
        <pt x="701" y="162" on="0"/>
        <pt x="770" y="239" on="0"/>
        <pt x="827" y="337" on="0"/>
        <pt x="868" y="438" on="0"/>
        <pt x="891" y="533" on="0"/>
      </contour>
    </TTGlyph>
    <TTGlyph name="atilde" xMin="55" yMin="-14" xMax="684" yMax="1013">
      <component glyphName="a" x="0" y="0" flags="0x204"/>
      <component glyphName="tilde" x="79" y="0" flags="0x4"/>
    </TTGlyph>
</ttFont>
